<svg width="24" height="23" viewBox="0 0 24 23" fill="none" xmlns="http://www.w3.org/2000/svg">
<path d="M7.99902 0C8.55153 6.67259e-05 8.99993 0.447896 9 1.00098V2H23C23.5523 2 24 2.44772 24 3C24 3.55228 23.5523 4 23 4H22V20H23C23.5523 20 24 20.4477 24 21C24 21.5523 23.5523 22 23 22H7C6.99946 22.5522 6.55169 23 5.99902 23H1C0.447715 23 0 22.5523 0 22V1C0 0.447715 0.447715 0 1 0H7.99902ZM2 21H5V17C5 15.1362 3.72523 13.57 2 13.126V21ZM10.5996 17.7002C10.2441 17.4337 9.75588 17.4337 9.40039 17.7002L7 19.499V20H20V19.4141L18.5195 17.9336C18.1676 17.5817 17.61 17.5422 17.2119 17.8408L15.7998 18.9004C14.7333 19.7001 13.2667 19.7001 12.2002 18.9004L10.5996 17.7002ZM10.5996 13.7002C10.2441 13.4337 9.75588 13.4337 9.40039 13.7002L6.83887 15.6201C6.9432 16.0633 7 16.525 7 17L8.2002 16.0996C9.26673 15.2999 10.7333 15.2999 11.7998 16.0996L13.4004 17.2998C13.7559 17.5663 14.2441 17.5663 14.5996 17.2998L16.0127 16.2412C17.2071 15.3455 18.8779 15.4639 19.9336 16.5195L20 16.5859V15.4141L18.5195 13.9336C18.1676 13.5817 17.61 13.5422 17.2119 13.8408L15.7998 14.9004C14.7333 15.7001 13.2667 15.7001 12.2002 14.9004L10.5996 13.7002ZM9 5C9 8.14145 7.18837 10.8581 4.55371 12.167C5.13401 12.5944 5.63394 13.1236 6.02832 13.7285L8.2002 12.0996C9.26673 11.2999 10.7333 11.2999 11.7998 12.0996L13.4004 13.2998C13.7559 13.5663 14.2441 13.5663 14.5996 13.2998L16.0127 12.2412C17.2071 11.3455 18.8779 11.4639 19.9336 12.5195L20 12.5859V4H9V5ZM16 5C17.6569 5 19 6.34315 19 8C19 9.65685 17.6569 11 16 11C14.3431 11 13 9.65685 13 8C13 6.34315 14.3431 5 16 5ZM2 10.915C4.83755 10.4388 7 7.97288 7 5V2H2V10.915ZM16 7C15.4477 7 15 7.44772 15 8C15 8.55228 15.4477 9 16 9C16.5523 9 17 8.55228 17 8C17 7.44772 16.5523 7 16 7Z" fill="#757575"/>
</svg>
