<svg width="20" height="20" viewBox="0 0 20 20" fill="none" xmlns="http://www.w3.org/2000/svg">
<g clip-path="url(#clip0_46_132)">
<path d="M14.2084 16.9003C13.4084 17.692 12.3584 18.3337 11.1084 18.3337C9.88337 18.3337 9.0667 17.7837 8.05837 17.7837C7.05003 17.7837 6.13337 18.3337 5.05003 18.3337C3.80003 18.3337 2.72503 17.6587 1.95003 16.9003C0.4167 15.367 0.1667 12.442 1.0167 10.6253C1.8667 8.80866 3.6167 7.78366 5.20003 7.78366C6.12503 7.78366 6.8167 8.10866 7.50003 8.10866C8.17503 8.10866 8.85003 7.78366 9.90837 7.78366C11.4334 7.78366 12.8334 8.60866 13.6167 9.82533C10.425 11.367 10.9584 15.967 14.2084 16.9003ZM11.0417 4.31699C11 2.86699 12.2084 1.66699 13.6584 1.66699C13.7 3.09199 12.4917 4.31699 11.0417 4.31699Z" fill="#1B1C1A"/>
</g>
<defs>
<clipPath id="clip0_46_132">
<rect width="20" height="20" fill="white"/>
</clipPath>
</defs>
</svg>
