<svg width="25" height="23" viewBox="0 0 25 23" fill="none" xmlns="http://www.w3.org/2000/svg">
<path fill-rule="evenodd" clip-rule="evenodd" d="M14.1691 20.168C15.4133 19.3386 17.0343 19.3385 18.2785 20.168L19.7785 21.168C20.2379 21.4743 20.3621 22.0952 20.0558 22.5547C19.7495 23.0142 19.1286 23.1383 18.6691 22.832L17.1691 21.832C16.5967 21.4504 15.8509 21.4505 15.2785 21.832C14.0343 22.6615 12.4133 22.6614 11.1691 21.832C10.5967 21.4504 9.85089 21.4505 9.27848 21.832C8.0343 22.6615 6.41331 22.6614 5.16911 21.832C4.59672 21.4504 3.85089 21.4505 3.27848 21.832L1.77848 22.832C1.31898 23.1384 0.698135 23.0141 0.391762 22.5547C0.0854097 22.0952 0.209577 21.4743 0.669106 21.168L2.16911 20.168C3.41332 19.3386 5.0343 19.3385 6.27848 20.168C6.85089 20.5495 7.59672 20.5496 8.16911 20.168C9.41331 19.3386 11.0343 19.3385 12.2785 20.168C12.8509 20.5495 13.5967 20.5496 14.1691 20.168ZM14.1691 16.168C15.4133 15.3386 17.0343 15.3385 18.2785 16.168L19.7785 17.168C20.2379 17.4743 20.3621 18.0952 20.0558 18.5547C19.7495 19.0142 19.1286 19.1383 18.6691 18.832L17.1691 17.832C16.5967 17.4504 15.8509 17.4505 15.2785 17.832C14.0343 18.6615 12.4133 18.6614 11.1691 17.832C10.5967 17.4504 9.85089 17.4505 9.27848 17.832C8.0343 18.6615 6.41331 18.6614 5.16911 17.832C4.59672 17.4504 3.85089 17.4505 3.27848 17.832L1.77848 18.832C1.31898 19.1384 0.698135 19.0141 0.391762 18.5547C0.0854097 18.0952 0.209577 17.4743 0.669106 17.168L2.16911 16.168C3.41332 15.3386 5.0343 15.3385 6.27848 16.168C6.85089 16.5495 7.59672 16.5496 8.16911 16.168C9.41331 15.3386 11.0343 15.3385 12.2785 16.168C12.8509 16.5495 13.5967 16.5496 14.1691 16.168ZM5.81754 2.48535C6.35228 2.07916 7.09534 2.0791 7.63004 2.48535L7.74137 2.57812L12.9621 7.39746C13.894 8.25788 13.3941 9.76382 12.2238 9.97363V13C12.2238 14.1045 11.3283 14.9999 10.2238 15H3.22379C2.11922 15 1.22379 14.1046 1.22379 13V9.97363C0.0531609 9.76407 -0.446686 8.25795 0.485512 7.39746L5.70622 2.57812L5.81754 2.48535ZM20.2238 0C22.4328 0.000102047 24.2238 1.79092 24.2238 4C24.2238 4.55222 23.776 4.9999 23.2238 5C22.6715 5 22.2238 4.55228 22.2238 4C22.2238 2.89549 21.3283 2.0001 20.2238 2C19.4789 2 18.8297 2.40771 18.4855 3.01172C18.5639 3.00431 18.6435 3 18.7238 3C20.1044 3.0001 21.2238 4.11935 21.2238 5.5C21.2238 6.05222 20.776 6.4999 20.2238 6.5C19.6715 6.5 19.2238 6.05228 19.2238 5.5C19.2238 5.22392 18.9998 5.0001 18.7238 5C18.4477 5 18.2238 5.22386 18.2238 5.5V5.87695C18.2238 8.697 17.8775 11.5063 17.1935 14.2422C17.0596 14.7778 16.5173 15.1034 15.9816 14.9697C15.4459 14.8358 15.1203 14.2935 15.2541 13.7578C15.8984 11.1805 16.2238 8.53356 16.2238 5.87695V5.5C16.2238 5.22392 15.9998 5.0001 15.7238 5C15.4477 5 15.2238 5.22386 15.2238 5.5C15.2238 6.05222 14.776 6.4999 14.2238 6.5C13.6715 6.5 13.2238 6.05228 13.2238 5.5C13.2238 4.11929 14.3431 3 15.7238 3C15.8038 3.00001 15.883 3.00435 15.9611 3.01172C15.6169 2.40791 14.9685 2.00007 14.2238 2C13.1192 2 12.2238 2.89543 12.2238 4C12.2238 4.55222 11.776 4.9999 11.2238 5C10.6715 5 10.2238 4.55228 10.2238 4C10.2238 1.79086 12.0147 0 14.2238 0C15.4186 5.51924e-05 16.4899 0.524897 17.2228 1.35547C17.9558 0.5244 19.0286 0 20.2238 0ZM3.22379 13H5.72379V12C5.72379 11.4477 6.17151 11 6.72379 11C7.27599 11.0001 7.72379 11.4478 7.72379 12V13H10.2238V10H3.22379V13ZM2.78141 8H10.6662L6.72379 4.36035L2.78141 8Z" fill="#757575"/>
</svg>
