<svg width="31" height="32" viewBox="0 0 31 32" fill="none" xmlns="http://www.w3.org/2000/svg">
<path d="M14.6588 7.44685C15.1529 6.45912 16.3546 6.05839 17.3424 6.55232L22.1715 8.96638C22.5318 9.14665 22.8294 9.43255 23.025 9.78474L27.7487 18.2877C27.9136 18.5846 28.0006 18.9187 28.0006 19.2584V24.9996C28.0006 26.104 27.105 26.9993 26.0006 26.9996H6.28188C4.98074 26.9996 4.02588 25.7765 4.34146 24.5142L6.87661 14.3707C7.0642 13.6211 7.66771 13.0466 8.42544 12.8951L12.3249 12.1148L14.6588 7.44685ZM14.1139 13.0094C13.838 13.5611 13.3223 13.9545 12.7174 14.0758L8.81704 14.856L8.03091 17.9996H10.0006C10.5526 17.9998 11.0006 18.4475 11.0006 18.9996C11.0006 19.5517 10.5527 19.9993 10.0006 19.9996H7.53188L6.28188 24.9996H11.0006V23.9996C11.0007 21.2382 13.2393 18.9996 16.0006 18.9996C18.7618 18.9998 21.0006 21.2384 21.0006 23.9996V24.9996H26.0006V19.2584L25.278 17.9586C25.1898 17.9841 25.0971 17.9995 25.0006 17.9996H21.0006C20.4484 17.9996 20.0006 17.5519 20.0006 16.9996C20.0007 16.4474 20.4484 15.9996 21.0006 15.9996H24.1901L23.6344 14.9996H19.0006C18.4484 14.9996 18.0006 14.5519 18.0006 13.9996C18.0007 13.4474 18.4484 12.9996 19.0006 12.9996H22.5241L21.277 10.7554L16.4479 8.34138L14.1139 13.0094ZM16.0006 20.9996C14.3438 20.9996 13.0007 22.3428 13.0006 23.9996V24.9996H19.0006V23.9996C19.0006 22.343 17.6572 20.9998 16.0006 20.9996Z" fill="#757575"/>
</svg>
