<svg width="24" height="24" viewBox="0 0 24 24" fill="none" xmlns="http://www.w3.org/2000/svg">
<path d="M8 12C9.30585 12 10.4141 12.8353 10.8262 14H18C18.5523 14 19 14.4477 19 15C19 15.5523 18.5523 16 18 16H10.8262C10.4141 17.1647 9.30585 18 8 18C6.34315 18 5 16.6569 5 15C5 13.3431 6.34315 12 8 12ZM8 14C7.44772 14 7 14.4477 7 15C7 15.5523 7.44772 16 8 16C8.55228 16 9 15.5523 9 15C9 14.4477 8.55228 14 8 14ZM16 6C17.6569 6 19 7.34315 19 9C19 10.6569 17.6569 12 16 12C14.6941 12 13.5859 11.1647 13.1738 10H6C5.44772 10 5 9.55228 5 9C5 8.44772 5.44772 8 6 8H13.1738C13.5859 6.83532 14.6941 6 16 6ZM16 8C15.4477 8 15 8.44772 15 9C15 9.55228 15.4477 10 16 10C16.5523 10 17 9.55228 17 9C17 8.44772 16.5523 8 16 8Z" fill="black"/>
</svg>
