<svg width="26" height="24" viewBox="0 0 26 24" fill="none" xmlns="http://www.w3.org/2000/svg">
<path fill-rule="evenodd" clip-rule="evenodd" d="M11.5858 0.585711C12.3669 -0.195237 13.6329 -0.195237 14.4139 0.585711L20.9999 7.17165V3.58571C20.9999 3.03343 21.4476 2.58571 21.9999 2.58571C22.5522 2.58571 22.9999 3.03343 22.9999 3.58571V9.17165L25.7069 11.8787C26.0974 12.2692 26.0974 12.9022 25.7069 13.2927C25.3164 13.6832 24.6834 13.6832 24.2929 13.2927L22.9247 11.9246C22.9726 12.1374 22.9999 12.3584 22.9999 12.5857C22.9998 13.3552 22.7076 14.0547 22.2313 14.5857C22.7076 15.1167 22.9999 15.8163 22.9999 16.5857C22.9998 17.3552 22.7076 18.0547 22.2313 18.5857C22.7076 19.1167 22.9999 19.8163 22.9999 20.5857C22.9998 22.2425 21.6567 23.5857 19.9999 23.5857H5.99989C4.34308 23.5857 2.99997 22.2425 2.99989 20.5857C2.99989 19.8165 3.29149 19.1167 3.76746 18.5857C3.29144 18.0548 2.99992 17.3549 2.99989 16.5857C2.99989 15.8165 3.29149 15.1167 3.76746 14.5857C3.29144 14.0548 2.99992 13.3549 2.99989 12.5857C2.99989 12.3585 3.02625 12.1373 3.07411 11.9246L1.70692 13.2927C1.31641 13.6832 0.683361 13.6832 0.292856 13.2927C-0.0976437 12.9022 -0.0975934 12.2692 0.292856 11.8787L11.5858 0.585711ZM5.99989 19.5857C5.4476 19.5857 4.99989 20.0334 4.99989 20.5857C4.99997 21.1379 5.44765 21.5857 5.99989 21.5857H8.99989V19.5857H5.99989ZM10.9999 21.5857H14.9999V14.5857H10.9999V21.5857ZM16.9999 21.5857H19.9999C20.5521 21.5857 20.9998 21.1379 20.9999 20.5857C20.9999 20.0334 20.5522 19.5857 19.9999 19.5857H16.9999V21.5857ZM5.99989 15.5857C5.4476 15.5857 4.99989 16.0334 4.99989 16.5857C4.99996 17.1033 5.39326 17.5295 5.89735 17.5808L5.99989 17.5857H8.99989V15.5857H5.99989ZM16.9999 17.5857H19.9999C20.5521 17.5857 20.9998 17.1379 20.9999 16.5857C20.9999 16.0334 20.5522 15.5857 19.9999 15.5857H16.9999V17.5857ZM5.99989 11.5857C5.4476 11.5857 4.99989 12.0334 4.99989 12.5857C4.99996 13.1033 5.39326 13.5295 5.89735 13.5808L5.99989 13.5857H9.26942C9.61533 12.9883 10.2599 12.5857 10.9999 12.5857H14.9999C15.7399 12.5857 16.3844 12.9883 16.7304 13.5857H19.9999C20.5521 13.5857 20.9998 13.1379 20.9999 12.5857C20.9999 12.0334 20.5522 11.5857 19.9999 11.5857H5.99989ZM5.33875 9.65993C5.55155 9.61205 5.77263 9.58571 5.99989 9.58571H19.9999C20.2268 9.58571 20.4475 9.61218 20.66 9.65993L18.5858 7.58571H7.41297L5.33875 9.65993ZM9.41395 5.58571H16.5858L12.9999 1.99977L9.41395 5.58571Z" fill="black"/>
</svg>
