<svg width="25" height="19" viewBox="0 0 25 19" fill="none" xmlns="http://www.w3.org/2000/svg">
<path d="M13 0C14.1046 0 15 0.895431 15 2V8.26953C15.303 8.44499 15.555 8.69703 15.7305 9H18.5V7H16.7383C15.6774 6.99984 14.952 5.92847 15.3457 4.94336L16.9463 0.943359L16.9922 0.838867C17.2427 0.328405 17.7637 0 18.3389 0H20.6611C21.2745 0 21.8259 0.373873 22.0537 0.943359L23.6543 4.94336C24.048 5.92847 23.3226 6.99984 22.2617 7H20.5V9H23C24.1046 9 25 9.89543 25 11V18C25 18.5523 24.5523 19 24 19C23.4477 19 23 18.5523 23 18V17H16V18C16 18.5523 15.5523 19 15 19C14.4477 19 14 18.5523 14 18V17H2V18C2 18.5523 1.55228 19 1 19C0.447715 19 0 18.5523 0 18V10C0 9.26007 0.402669 8.61546 1 8.26953V2C1 0.89543 1.89543 0 3 0H13ZM2 15H14V10H2V15ZM16 15H23V11H16V15ZM20 12C20.5523 12 21 12.4477 21 13C21 13.5523 20.5523 14 20 14H19C18.4477 14 18 13.5523 18 13C18 12.4477 18.4477 12 19 12H20ZM3 8H4V6C4 4.89543 4.89543 4 6 4H10C11.1046 4 12 4.89543 12 6V8H13V2H3V8ZM6 8H10V6H6V8ZM17.4775 5H21.5225L20.3232 2H18.6768L17.4775 5Z" fill="#757575"/>
</svg>
