<svg width="390" height="772" viewBox="0 0 390 772" fill="none" xmlns="http://www.w3.org/2000/svg">
<rect width="390" height="772" fill="#F2ECDE"/>
<rect x="24" y="16" width="40" height="40" rx="12" fill="#EAE8E5"/>
<path d="M44 36C42.9 36 41.9583 35.6083 41.175 34.825C40.3917 34.0417 40 33.1 40 32C40 30.9 40.3917 29.9583 41.175 29.175C41.9583 28.3917 42.9 28 44 28C45.1 28 46.0417 28.3917 46.825 29.175C47.6083 29.9583 48 30.9 48 32C48 33.1 47.6083 34.0417 46.825 34.825C46.0417 35.6083 45.1 36 44 36ZM36 44V41.2C36 40.6333 36.1458 40.1125 36.4375 39.6375C36.7292 39.1625 37.1167 38.8 37.6 38.55C38.6333 38.0333 39.6833 37.6458 40.75 37.3875C41.8167 37.1292 42.9 37 44 37C45.1 37 46.1833 37.1292 47.25 37.3875C48.3167 37.6458 49.3667 38.0333 50.4 38.55C50.8833 38.8 51.2708 39.1625 51.5625 39.6375C51.8542 40.1125 52 40.6333 52 41.2V44H36ZM38 42H50V41.2C50 41.0167 49.9542 40.85 49.8625 40.7C49.7708 40.55 49.65 40.4333 49.5 40.35C48.6 39.9 47.6917 39.5625 46.775 39.3375C45.8583 39.1125 44.9333 39 44 39C43.0667 39 42.1417 39.1125 41.225 39.3375C40.3083 39.5625 39.4 39.9 38.5 40.35C38.35 40.4333 38.2292 40.55 38.1375 40.7C38.0458 40.85 38 41.0167 38 41.2V42ZM44 34C44.55 34 45.0208 33.8042 45.4125 33.4125C45.8042 33.0208 46 32.55 46 32C46 31.45 45.8042 30.9792 45.4125 30.5875C45.0208 30.1958 44.55 30 44 30C43.45 30 42.9792 30.1958 42.5875 30.5875C42.1958 30.9792 42 31.45 42 32C42 32.55 42.1958 33.0208 42.5875 33.4125C42.9792 33.8042 43.45 34 44 34Z" fill="#4C463C"/>
<path d="M86.73 44.3C85.6789 44.3 84.7317 44.1167 83.8883 43.75C83.045 43.3833 82.3517 42.8586 81.8083 42.1758C81.265 41.4931 80.9178 40.68 80.7667 39.7367L83.2733 39.36C83.4833 40.2134 83.92 40.8739 84.5833 41.3417C85.2466 41.8095 86.0122 42.0434 86.88 42.0434C87.3922 42.0434 87.8756 41.9628 88.33 41.8017C88.7844 41.6406 89.1531 41.4059 89.4358 41.0975C89.7186 40.7892 89.86 40.4145 89.86 39.9733C89.86 39.77 89.827 39.5842 89.7608 39.4158C89.6947 39.2475 89.5969 39.0964 89.4675 38.9625C89.3381 38.8286 89.1719 38.7072 88.9692 38.5983C88.7664 38.4894 88.5289 38.3933 88.2567 38.31L84.54 37.2133C84.22 37.1211 83.8744 36.9955 83.5033 36.8366C83.1322 36.6778 82.7822 36.4611 82.4533 36.1866C82.1244 35.9122 81.8544 35.5597 81.6433 35.1291C81.4322 34.6986 81.3267 34.1655 81.3267 33.53C81.3267 32.6022 81.5625 31.8242 82.0342 31.1958C82.5058 30.5675 83.1394 30.0958 83.935 29.7808C84.7305 29.4658 85.6167 29.3111 86.5933 29.3167C87.5778 29.3278 88.4572 29.4983 89.2316 29.8283C90.0061 30.1583 90.6525 30.6356 91.1708 31.26C91.6891 31.8844 92.0555 32.6422 92.27 33.5333L89.68 33.9767C89.5756 33.4711 89.3706 33.0408 89.065 32.6858C88.7595 32.3308 88.3886 32.0594 87.9525 31.8716C87.5164 31.6839 87.0522 31.5844 86.56 31.5733C86.0789 31.5622 85.6339 31.6325 85.225 31.7841C84.8161 31.9358 84.4863 32.1511 84.2358 32.43C83.9852 32.7089 83.86 33.0355 83.86 33.41C83.86 33.7667 83.9663 34.0556 84.1791 34.2767C84.3919 34.4978 84.6577 34.6742 84.9766 34.8058C85.2955 34.9375 85.6166 35.0467 85.94 35.1333L88.52 35.85C88.8733 35.9456 89.2694 36.0734 89.7083 36.2334C90.1472 36.3933 90.57 36.6164 90.9766 36.9025C91.3833 37.1886 91.7189 37.5653 91.9833 38.0325C92.2477 38.4997 92.38 39.0911 92.38 39.8067C92.38 40.5545 92.2258 41.2103 91.9175 41.7742C91.6091 42.3381 91.1905 42.8064 90.6616 43.1792C90.1328 43.5519 89.5297 43.8319 88.8525 44.0192C88.1753 44.2064 87.4678 44.3 86.73 44.3ZM96.5733 44.3C95.7889 44.3 95.1269 44.1519 94.5875 43.8558C94.0481 43.5597 93.6403 43.1647 93.3642 42.6708C93.0881 42.1769 92.95 41.6333 92.95 41.04C92.95 40.5178 93.0369 40.0497 93.2108 39.6358C93.3847 39.2219 93.652 38.8631 94.0125 38.5592C94.3731 38.2553 94.8378 38.0056 95.4067 37.81C95.8445 37.6667 96.3536 37.5397 96.9342 37.4292C97.5147 37.3186 98.1472 37.2147 98.8317 37.1175C99.5161 37.0203 100.233 36.9156 100.983 36.8033L100.117 37.2867C100.122 36.5411 99.9559 35.9914 99.6175 35.6375C99.2792 35.2836 98.7056 35.1066 97.8967 35.1066C97.4122 35.1066 96.9436 35.2208 96.4908 35.4491C96.038 35.6775 95.7211 36.0666 95.54 36.6167L93.3367 35.9267C93.6044 35.0156 94.1142 34.2833 94.8658 33.73C95.6175 33.1767 96.63 32.9 97.9033 32.9C98.8644 32.9 99.7089 33.0561 100.437 33.3683C101.164 33.6806 101.707 34.1945 102.063 34.91C102.257 35.2878 102.373 35.675 102.413 36.0717C102.453 36.4683 102.473 36.9022 102.473 37.3733V44H100.36V41.6567L100.71 42.0433C100.223 42.82 99.6547 43.3903 99.0042 43.7542C98.3536 44.1181 97.5433 44.3 96.5733 44.3ZM97.05 42.3767C97.5967 42.3767 98.0628 42.2797 98.4483 42.0859C98.8339 41.892 99.1422 41.6564 99.3734 41.3792C99.6045 41.1019 99.7589 40.8378 99.8367 40.5867C99.9622 40.28 100.035 39.9286 100.054 39.5325C100.074 39.1364 100.083 38.8144 100.083 38.5666L100.823 38.79C100.092 38.9066 99.4664 39.0072 98.9459 39.0916C98.4253 39.1761 97.9795 39.2564 97.6083 39.3325C97.2372 39.4086 96.9078 39.4944 96.62 39.59C96.3433 39.6922 96.108 39.8091 95.9141 39.9408C95.7203 40.0725 95.5716 40.2255 95.4683 40.4C95.365 40.5744 95.3133 40.7778 95.3133 41.01C95.3133 41.2733 95.3791 41.5081 95.5108 41.7142C95.6425 41.9203 95.8369 42.0822 96.0941 42.2C96.3514 42.3178 96.67 42.3767 97.05 42.3767ZM104.053 44L104.07 29.6H106.51V38.4L110.46 33.2H113.47L109.28 38.6L113.83 44H110.64L106.51 38.8V44H104.053ZM114.03 31.5633V29.35H116.437V31.5633H114.03ZM114.03 44V33.2H116.437V44H114.03ZM125.91 44V38.7967C125.91 38.4622 125.886 38.0883 125.838 37.675C125.789 37.2616 125.681 36.863 125.513 36.4791C125.346 36.0952 125.093 35.78 124.757 35.5333C124.42 35.2866 123.963 35.1633 123.387 35.1633C123.082 35.1633 122.78 35.213 122.481 35.3125C122.181 35.4119 121.911 35.5825 121.668 35.8241C121.426 36.0658 121.231 36.3994 121.084 36.825C120.937 37.2505 120.863 37.7922 120.863 38.45L119.433 37.8367C119.433 36.92 119.612 36.0875 119.968 35.3392C120.325 34.5908 120.849 33.9961 121.542 33.555C122.234 33.1139 123.088 32.8933 124.103 32.8933C124.9 32.8933 125.559 33.0256 126.079 33.29C126.6 33.5544 127.013 33.8942 127.32 34.3092C127.627 34.7242 127.853 35.1653 128 35.6325C128.147 36.0997 128.242 36.5419 128.285 36.9592C128.328 37.3764 128.35 37.7133 128.35 37.97V44H125.91ZM118.423 44V33.2H120.57V36.55H120.863V44H118.423ZM132.973 44.3C132.189 44.3 131.527 44.1519 130.987 43.8558C130.448 43.5597 130.04 43.1647 129.764 42.6708C129.488 42.1769 129.35 41.6333 129.35 41.04C129.35 40.5178 129.437 40.0497 129.611 39.6358C129.785 39.2219 130.052 38.8631 130.413 38.5592C130.773 38.2553 131.238 38.0056 131.807 37.81C132.244 37.6667 132.754 37.5397 133.334 37.4292C133.915 37.3186 134.547 37.2147 135.232 37.1175C135.916 37.0203 136.633 36.9156 137.383 36.8033L136.517 37.2867C136.522 36.5411 136.356 35.9914 136.018 35.6375C135.679 35.2836 135.106 35.1066 134.297 35.1066C133.812 35.1066 133.344 35.2208 132.891 35.4491C132.438 35.6775 132.121 36.0666 131.94 36.6167L129.737 35.9267C130.004 35.0156 130.514 34.2833 131.266 33.73C132.017 33.1767 133.03 32.9 134.303 32.9C135.264 32.9 136.109 33.0561 136.837 33.3683C137.564 33.6806 138.107 34.1945 138.463 34.91C138.657 35.2878 138.773 35.675 138.813 36.0717C138.853 36.4683 138.873 36.9022 138.873 37.3733V44H136.76V41.6567L137.11 42.0433C136.623 42.82 136.055 43.3903 135.404 43.7542C134.754 44.1181 133.943 44.3 132.973 44.3ZM133.45 42.3767C133.997 42.3767 134.463 42.2797 134.848 42.0859C135.234 41.892 135.542 41.6564 135.773 41.3792C136.004 41.1019 136.159 40.8378 136.237 40.5867C136.362 40.28 136.435 39.9286 136.454 39.5325C136.474 39.1364 136.483 38.8144 136.483 38.5666L137.223 38.79C136.492 38.9066 135.866 39.0072 135.346 39.0916C134.825 39.1761 134.379 39.2564 134.008 39.3325C133.637 39.4086 133.308 39.4944 133.02 39.59C132.743 39.6922 132.508 39.8091 132.314 39.9408C132.12 40.0725 131.972 40.2255 131.868 40.4C131.765 40.5744 131.713 40.7778 131.713 41.01C131.713 41.2733 131.779 41.5081 131.911 41.7142C132.042 41.9203 132.237 42.0822 132.494 42.2C132.751 42.3178 133.07 42.3767 133.45 42.3767Z" fill="#120A00"/>
<path d="M350 43V41H352V34C352 32.6167 352.417 31.3875 353.25 30.3125C354.083 29.2375 355.167 28.5333 356.5 28.2V27.5C356.5 27.0833 356.646 26.7292 356.938 26.4375C357.229 26.1458 357.583 26 358 26C358.417 26 358.771 26.1458 359.062 26.4375C359.354 26.7292 359.5 27.0833 359.5 27.5V28.2C360.833 28.5333 361.917 29.2375 362.75 30.3125C363.583 31.3875 364 32.6167 364 34V41H366V43H350ZM358 46C357.45 46 356.979 45.8042 356.588 45.4125C356.196 45.0208 356 44.55 356 44H360C360 44.55 359.804 45.0208 359.413 45.4125C359.021 45.8042 358.55 46 358 46ZM354 41H362V34C362 32.9 361.608 31.9583 360.825 31.175C360.042 30.3917 359.1 30 358 30C356.9 30 355.958 30.3917 355.175 31.175C354.392 31.9583 354 32.9 354 34V41Z" fill="#120A00"/>
<path d="M304.05 745V734.2H305.16L311.108 743.05V734.2H312.218V745H311.108L305.16 736.142V745H304.05ZM317.736 745.225C316.946 745.225 316.261 745.05 315.681 744.7C315.106 744.35 314.659 743.857 314.339 743.222C314.019 742.587 313.859 741.842 313.859 740.987C313.859 740.102 314.016 739.337 314.331 738.692C314.646 738.047 315.089 737.55 315.659 737.2C316.234 736.85 316.911 736.675 317.691 736.675C318.491 736.675 319.174 736.86 319.739 737.23C320.304 737.595 320.731 738.12 321.021 738.805C321.311 739.49 321.444 740.307 321.419 741.257H320.294V740.868C320.274 739.817 320.046 739.025 319.611 738.49C319.181 737.955 318.551 737.687 317.721 737.687C316.851 737.687 316.184 737.97 315.719 738.535C315.259 739.1 315.029 739.905 315.029 740.95C315.029 741.97 315.259 742.762 315.719 743.327C316.184 743.887 316.841 744.167 317.691 744.167C318.271 744.167 318.776 744.035 319.206 743.77C319.641 743.5 319.984 743.112 320.234 742.607L321.261 743.005C320.941 743.71 320.469 744.257 319.844 744.647C319.224 745.033 318.521 745.225 317.736 745.225ZM314.639 741.257V740.335H320.826V741.257H314.639ZM321.88 745L325.045 740.905L321.947 736.9H323.267L325.69 740.057L328.09 736.9H329.41L326.312 740.905L329.485 745H328.157L325.69 741.752L323.207 745H321.88ZM335.09 745C334.635 745.095 334.185 745.133 333.74 745.113C333.3 745.093 332.905 744.997 332.555 744.827C332.21 744.657 331.948 744.392 331.768 744.032C331.623 743.732 331.543 743.43 331.528 743.125C331.518 742.815 331.513 742.462 331.513 742.067V734.65H332.608V742.022C332.608 742.362 332.61 742.647 332.615 742.877C332.625 743.102 332.678 743.302 332.773 743.477C332.953 743.812 333.238 744.012 333.628 744.077C334.023 744.142 334.51 744.127 335.09 744.032V745ZM329.78 737.845V736.9H335.09V737.845H329.78Z" fill="#2C2005"/>
<g clip-path="url(#clip0_185_815)">
<path d="M359.01 738H348C347.45 738 347 738.45 347 739C347 739.55 347.45 740 348 740H359.01V741.79C359.01 742.24 359.55 742.46 359.86 742.14L362.64 739.35C362.83 739.15 362.83 738.84 362.64 738.64L359.86 735.85C359.55 735.53 359.01 735.76 359.01 736.2V738Z" fill="#2C2005"/>
</g>
<path d="M33.91 744V734.64H37.524C38.0483 734.64 38.5055 734.748 38.8955 734.965C39.2855 735.182 39.5888 735.474 39.8055 735.842C40.0222 736.206 40.1305 736.609 40.1305 737.051C40.1305 737.554 39.9962 738.003 39.7275 738.397C39.4588 738.787 39.0992 739.058 38.6485 739.209L38.6355 738.891C39.2422 739.064 39.7188 739.368 40.0655 739.801C40.4122 740.234 40.5855 740.759 40.5855 741.374C40.5855 741.916 40.4707 742.384 40.241 742.778C40.0113 743.168 39.6885 743.469 39.2725 743.681C38.8565 743.894 38.3733 744 37.823 744H33.91ZM34.872 743.083H37.589C37.9703 743.083 38.3127 743.016 38.616 742.882C38.9193 742.743 39.1577 742.548 39.331 742.297C39.5087 742.046 39.5975 741.742 39.5975 741.387C39.5975 741.04 39.5173 740.728 39.357 740.451C39.1967 740.174 38.9778 739.953 38.7005 739.788C38.4275 739.619 38.1155 739.534 37.7645 739.534H34.872V743.083ZM34.872 738.631H37.5175C37.8165 738.631 38.0895 738.564 38.3365 738.429C38.5835 738.291 38.7785 738.102 38.9215 737.864C39.0688 737.626 39.1425 737.35 39.1425 737.038C39.1425 736.596 38.9887 736.237 38.681 735.959C38.3777 735.682 37.9898 735.543 37.5175 735.543H34.872V738.631ZM43.8812 744.195C43.3525 744.195 42.9083 744.1 42.5487 743.909C42.1933 743.718 41.9268 743.465 41.7492 743.148C41.5715 742.832 41.4827 742.488 41.4827 742.115C41.4827 741.734 41.5585 741.409 41.7102 741.14C41.8662 740.867 42.0763 740.644 42.3407 740.47C42.6093 740.297 42.9192 740.165 43.2702 740.074C43.6255 739.987 44.0177 739.911 44.4467 739.846C44.88 739.777 45.3025 739.719 45.7142 739.671C46.1302 739.619 46.4942 739.569 46.8062 739.521L46.4682 739.729C46.4812 739.036 46.3468 738.523 46.0652 738.189C45.7835 737.855 45.2938 737.688 44.5962 737.688C44.1152 737.688 43.7078 737.797 43.3742 738.013C43.0448 738.23 42.813 738.572 42.6787 739.04L41.7492 738.767C41.9095 738.139 42.2323 737.652 42.7177 737.305C43.203 736.958 43.8335 736.785 44.6092 736.785C45.2505 736.785 45.7943 736.906 46.2407 737.149C46.6913 737.387 47.0098 737.734 47.1962 738.189C47.2828 738.393 47.3392 738.62 47.3652 738.871C47.3912 739.123 47.4042 739.378 47.4042 739.638V744H46.5527V742.238L46.7997 742.342C46.5613 742.945 46.1908 743.404 45.6882 743.72C45.1855 744.037 44.5832 744.195 43.8812 744.195ZM43.9917 743.369C44.438 743.369 44.828 743.289 45.1617 743.129C45.4953 742.969 45.764 742.75 45.9677 742.472C46.1713 742.191 46.3035 741.874 46.3642 741.523C46.4162 741.298 46.4443 741.051 46.4487 740.782C46.453 740.509 46.4552 740.306 46.4552 740.171L46.8192 740.36C46.4942 740.403 46.141 740.447 45.7597 740.49C45.3827 740.533 45.01 740.583 44.6417 740.639C44.2777 740.696 43.9483 740.763 43.6537 740.841C43.4543 740.897 43.2615 740.977 43.0752 741.081C42.8888 741.181 42.735 741.315 42.6137 741.484C42.4967 741.653 42.4382 741.864 42.4382 742.115C42.4382 742.319 42.488 742.516 42.5877 742.706C42.6917 742.897 42.8563 743.055 43.0817 743.181C43.3113 743.307 43.6147 743.369 43.9917 743.369ZM51.9983 744.195C51.292 744.195 50.694 744.037 50.2043 743.72C49.7146 743.404 49.342 742.969 49.0863 742.414C48.835 741.855 48.705 741.214 48.6963 740.49C48.705 739.753 48.8393 739.108 49.0993 738.553C49.3593 737.994 49.7341 737.561 50.2238 737.253C50.7135 736.941 51.3071 736.785 52.0048 736.785C52.7155 736.785 53.333 736.958 53.8573 737.305C54.386 737.652 54.7478 738.126 54.9428 738.728L54.0068 739.027C53.8421 738.607 53.58 738.282 53.2203 738.052C52.865 737.818 52.4576 737.701 51.9983 737.701C51.4826 737.701 51.0558 737.821 50.7178 738.059C50.3798 738.293 50.1285 738.62 49.9638 739.04C49.7991 739.461 49.7146 739.944 49.7103 740.49C49.719 741.331 49.914 742.007 50.2953 742.518C50.6766 743.025 51.2443 743.278 51.9983 743.278C52.475 743.278 52.8801 743.17 53.2138 742.953C53.5518 742.732 53.8075 742.412 53.9808 741.991L54.9428 742.277C54.6828 742.901 54.3015 743.378 53.7988 743.707C53.2961 744.033 52.696 744.195 51.9983 744.195ZM56.268 744L56.2745 734.64H57.2365V740.36L60.3695 736.98H61.6435L58.3545 740.49L62.0725 744H60.6815L57.2365 740.62V744H56.268Z" fill="#2C2005"/>
<mask id="path-8-inside-1_185_815" fill="white">
<path d="M13 174H378V211H13V174Z"/>
</mask>
<path d="M378 211V210H13V211V212H378V211Z" fill="#CFC5B8" fill-opacity="0.15" mask="url(#path-8-inside-1_185_815)"/>
<path d="M14.4 196V181.6H18.77C18.9233 181.6 19.1833 181.603 19.55 181.61C19.9233 181.617 20.28 181.643 20.62 181.69C21.7133 181.843 22.6267 182.25 23.36 182.91C24.0933 183.57 24.6433 184.41 25.01 185.43C25.3767 186.45 25.56 187.573 25.56 188.8C25.56 190.027 25.3767 191.15 25.01 192.17C24.6433 193.19 24.0933 194.03 23.36 194.69C22.6267 195.35 21.7133 195.757 20.62 195.91C20.2867 195.95 19.93 195.977 19.55 195.99C19.17 195.997 18.91 196 18.77 196H14.4ZM15.92 194.59H18.77C19.0433 194.59 19.3367 194.583 19.65 194.57C19.97 194.55 20.2433 194.517 20.47 194.47C21.31 194.323 21.9867 193.983 22.5 193.45C23.02 192.917 23.4 192.25 23.64 191.45C23.88 190.643 24 189.76 24 188.8C24 187.833 23.88 186.947 23.64 186.14C23.4 185.333 23.02 184.667 22.5 184.14C21.98 183.613 21.3033 183.277 20.47 183.13C20.2433 183.083 19.9667 183.053 19.64 183.04C19.32 183.02 19.03 183.01 18.77 183.01H15.92V194.59ZM30.4275 196.3C29.6142 196.3 28.9308 196.153 28.3775 195.86C27.8308 195.567 27.4208 195.177 27.1475 194.69C26.8742 194.203 26.7375 193.673 26.7375 193.1C26.7375 192.513 26.8542 192.013 27.0875 191.6C27.3275 191.18 27.6508 190.837 28.0575 190.57C28.4708 190.303 28.9475 190.1 29.4875 189.96C30.0342 189.827 30.6375 189.71 31.2975 189.61C31.9642 189.503 32.6142 189.413 33.2475 189.34C33.8875 189.26 34.4475 189.183 34.9275 189.11L34.4075 189.43C34.4275 188.363 34.2208 187.573 33.7875 187.06C33.3542 186.547 32.6008 186.29 31.5275 186.29C30.7875 186.29 30.1608 186.457 29.6475 186.79C29.1408 187.123 28.7842 187.65 28.5775 188.37L27.1475 187.95C27.3942 186.983 27.8908 186.233 28.6375 185.7C29.3842 185.167 30.3542 184.9 31.5475 184.9C32.5342 184.9 33.3708 185.087 34.0575 185.46C34.7508 185.827 35.2408 186.36 35.5275 187.06C35.6608 187.373 35.7475 187.723 35.7875 188.11C35.8275 188.497 35.8475 188.89 35.8475 189.29V196H34.5375V193.29L34.9175 193.45C34.5508 194.377 33.9808 195.083 33.2075 195.57C32.4342 196.057 31.5075 196.3 30.4275 196.3ZM30.5975 195.03C31.2842 195.03 31.8842 194.907 32.3975 194.66C32.9108 194.413 33.3242 194.077 33.6375 193.65C33.9508 193.217 34.1542 192.73 34.2475 192.19C34.3275 191.843 34.3708 191.463 34.3775 191.05C34.3842 190.63 34.3875 190.317 34.3875 190.11L34.9475 190.4C34.4475 190.467 33.9042 190.533 33.3175 190.6C32.7375 190.667 32.1642 190.743 31.5975 190.83C31.0375 190.917 30.5308 191.02 30.0775 191.14C29.7708 191.227 29.4742 191.35 29.1875 191.51C28.9008 191.663 28.6642 191.87 28.4775 192.13C28.2975 192.39 28.2075 192.713 28.2075 193.1C28.2075 193.413 28.2842 193.717 28.4375 194.01C28.5975 194.303 28.8508 194.547 29.1975 194.74C29.5508 194.933 30.0175 195.03 30.5975 195.03ZM38.1508 183.15V181.5H39.6208V183.15H38.1508ZM38.1508 196V185.2H39.6208V196H38.1508ZM42.3188 196V181.3H43.7888V196H42.3188ZM47.8267 200.8L49.9167 195.13L49.9467 196.81L45.2167 185.2H46.7767L50.6567 194.91H50.0167L53.5967 185.2H55.0967L49.2967 200.8H47.8267ZM63.8675 196.29C62.6008 196.29 61.5575 196.017 60.7375 195.47C59.9242 194.923 59.4242 194.163 59.2375 193.19L60.7375 192.94C60.8975 193.553 61.2608 194.043 61.8275 194.41C62.4008 194.77 63.1075 194.95 63.9475 194.95C64.7675 194.95 65.4142 194.78 65.8875 194.44C66.3608 194.093 66.5975 193.623 66.5975 193.03C66.5975 192.697 66.5208 192.427 66.3675 192.22C66.2208 192.007 65.9175 191.81 65.4575 191.63C64.9975 191.45 64.3108 191.237 63.3975 190.99C62.4175 190.723 61.6508 190.457 61.0975 190.19C60.5442 189.923 60.1508 189.617 59.9175 189.27C59.6842 188.917 59.5675 188.487 59.5675 187.98C59.5675 187.367 59.7408 186.83 60.0875 186.37C60.4342 185.903 60.9142 185.543 61.5275 185.29C62.1408 185.03 62.8542 184.9 63.6675 184.9C64.4808 184.9 65.2075 185.033 65.8475 185.3C66.4942 185.56 67.0142 185.927 67.4075 186.4C67.8008 186.873 68.0342 187.423 68.1075 188.05L66.6075 188.32C66.5075 187.687 66.1908 187.187 65.6575 186.82C65.1308 186.447 64.4608 186.253 63.6475 186.24C62.8808 186.22 62.2575 186.367 61.7775 186.68C61.2975 186.987 61.0575 187.397 61.0575 187.91C61.0575 188.197 61.1442 188.443 61.3175 188.65C61.4908 188.85 61.8042 189.04 62.2575 189.22C62.7175 189.4 63.3708 189.597 64.2175 189.81C65.2108 190.063 65.9908 190.33 66.5575 190.61C67.1242 190.89 67.5275 191.22 67.7675 191.6C68.0075 191.98 68.1275 192.45 68.1275 193.01C68.1275 194.03 67.7475 194.833 66.9875 195.42C66.2342 196 65.1942 196.29 63.8675 196.29ZM75.7253 196C75.1186 196.127 74.5186 196.177 73.9253 196.15C73.3386 196.123 72.812 195.997 72.3453 195.77C71.8853 195.543 71.5353 195.19 71.2953 194.71C71.102 194.31 70.9953 193.907 70.9753 193.5C70.962 193.087 70.9553 192.617 70.9553 192.09V182.2H72.4153V192.03C72.4153 192.483 72.4186 192.863 72.4253 193.17C72.4386 193.47 72.5086 193.737 72.6353 193.97C72.8753 194.417 73.2553 194.683 73.7753 194.77C74.302 194.857 74.952 194.837 75.7253 194.71V196ZM68.6453 186.46V185.2H75.7253V186.46H68.6453ZM81.4831 196.27C80.8365 196.27 80.2698 196.17 79.7831 195.97C79.3031 195.77 78.8931 195.5 78.5531 195.16C78.2198 194.82 77.9498 194.433 77.7431 194C77.5365 193.56 77.3865 193.097 77.2931 192.61C77.1998 192.117 77.1531 191.627 77.1531 191.14V185.2H78.6331V190.71C78.6331 191.303 78.6898 191.853 78.8031 192.36C78.9165 192.867 79.0965 193.31 79.3431 193.69C79.5965 194.063 79.9198 194.353 80.3131 194.56C80.7131 194.767 81.1965 194.87 81.7631 194.87C82.2831 194.87 82.7398 194.78 83.1331 194.6C83.5331 194.42 83.8665 194.163 84.1331 193.83C84.4065 193.49 84.6131 193.08 84.7531 192.6C84.8931 192.113 84.9631 191.567 84.9631 190.96L86.0031 191.19C86.0031 192.297 85.8098 193.227 85.4231 193.98C85.0365 194.733 84.5031 195.303 83.8231 195.69C83.1431 196.077 82.3631 196.27 81.4831 196.27ZM85.1131 196V193.34H84.9631V185.2H86.4331V196H85.1131ZM92.9181 196.3C91.9115 196.3 91.0515 196.05 90.3381 195.55C89.6248 195.043 89.0781 194.36 88.6981 193.5C88.3181 192.64 88.1281 191.67 88.1281 190.59C88.1281 189.517 88.3148 188.55 88.6881 187.69C89.0681 186.83 89.6115 186.15 90.3181 185.65C91.0248 185.15 91.8715 184.9 92.8581 184.9C93.8715 184.9 94.7248 185.147 95.4181 185.64C96.1115 186.133 96.6348 186.81 96.9881 187.67C97.3481 188.523 97.5281 189.497 97.5281 190.59C97.5281 191.663 97.3515 192.633 96.9981 193.5C96.6448 194.36 96.1248 195.043 95.4381 195.55C94.7515 196.05 93.9115 196.3 92.9181 196.3ZM93.0681 194.93C93.8348 194.93 94.4681 194.743 94.9681 194.37C95.4681 193.997 95.8415 193.483 96.0881 192.83C96.3348 192.17 96.4581 191.423 96.4581 190.59C96.4581 189.743 96.3348 188.997 96.0881 188.35C95.8415 187.697 95.4681 187.187 94.9681 186.82C94.4748 186.453 93.8515 186.27 93.0981 186.27C92.3248 186.27 91.6848 186.46 91.1781 186.84C90.6715 187.22 90.2948 187.737 90.0481 188.39C89.8081 189.043 89.6881 189.777 89.6881 190.59C89.6881 191.41 89.8115 192.15 90.0581 192.81C90.3115 193.463 90.6881 193.98 91.1881 194.36C91.6881 194.74 92.3148 194.93 93.0681 194.93ZM96.4581 196V187.87H96.2981V181.6H97.7781V196H96.4581ZM101.624 200.8L103.714 195.13L103.744 196.81L99.0136 185.2H100.574L104.454 194.91H103.814L107.394 185.2H108.894L103.094 200.8H101.624ZM121.434 196V190.49C121.434 189.89 121.378 189.34 121.264 188.84C121.151 188.333 120.968 187.893 120.714 187.52C120.468 187.14 120.144 186.847 119.744 186.64C119.351 186.433 118.871 186.33 118.304 186.33C117.784 186.33 117.324 186.42 116.924 186.6C116.531 186.78 116.198 187.04 115.924 187.38C115.658 187.713 115.454 188.12 115.314 188.6C115.174 189.08 115.104 189.627 115.104 190.24L114.064 190.01C114.064 188.903 114.258 187.973 114.644 187.22C115.031 186.467 115.564 185.897 116.244 185.51C116.924 185.123 117.704 184.93 118.584 184.93C119.231 184.93 119.794 185.03 120.274 185.23C120.761 185.43 121.171 185.7 121.504 186.04C121.844 186.38 122.118 186.77 122.324 187.21C122.531 187.643 122.681 188.107 122.774 188.6C122.868 189.087 122.914 189.573 122.914 190.06V196H121.434ZM113.624 196V181.6H114.954V189.73H115.104V196H113.624ZM129.519 196.3C128.446 196.3 127.529 196.057 126.769 195.57C126.009 195.083 125.426 194.41 125.019 193.55C124.613 192.69 124.409 191.703 124.409 190.59C124.409 189.457 124.616 188.463 125.029 187.61C125.443 186.757 126.029 186.093 126.789 185.62C127.556 185.14 128.466 184.9 129.519 184.9C130.599 184.9 131.519 185.143 132.279 185.63C133.046 186.11 133.629 186.78 134.029 187.64C134.436 188.493 134.639 189.477 134.639 190.59C134.639 191.723 134.436 192.72 134.029 193.58C133.623 194.433 133.036 195.1 132.269 195.58C131.503 196.06 130.586 196.3 129.519 196.3ZM129.519 194.89C130.719 194.89 131.613 194.493 132.199 193.7C132.786 192.9 133.079 191.863 133.079 190.59C133.079 189.283 132.783 188.243 132.189 187.47C131.603 186.697 130.713 186.31 129.519 186.31C128.713 186.31 128.046 186.493 127.519 186.86C126.999 187.22 126.609 187.723 126.349 188.37C126.096 189.01 125.969 189.75 125.969 190.59C125.969 191.89 126.269 192.933 126.869 193.72C127.469 194.5 128.353 194.89 129.519 194.89ZM140.475 196.27C139.829 196.27 139.262 196.17 138.775 195.97C138.295 195.77 137.885 195.5 137.545 195.16C137.212 194.82 136.942 194.433 136.735 194C136.529 193.56 136.379 193.097 136.285 192.61C136.192 192.117 136.145 191.627 136.145 191.14V185.2H137.625V190.71C137.625 191.303 137.682 191.853 137.795 192.36C137.909 192.867 138.089 193.31 138.335 193.69C138.589 194.063 138.912 194.353 139.305 194.56C139.705 194.767 140.189 194.87 140.755 194.87C141.275 194.87 141.732 194.78 142.125 194.6C142.525 194.42 142.859 194.163 143.125 193.83C143.399 193.49 143.605 193.08 143.745 192.6C143.885 192.113 143.955 191.567 143.955 190.96L144.995 191.19C144.995 192.297 144.802 193.227 144.415 193.98C144.029 194.733 143.495 195.303 142.815 195.69C142.135 196.077 141.355 196.27 140.475 196.27ZM144.105 196V193.34H143.955V185.2H145.425V196H144.105ZM147.72 196V185.2H149.04V187.8L148.78 187.46C148.9 187.14 149.057 186.847 149.25 186.58C149.444 186.307 149.654 186.083 149.88 185.91C150.16 185.663 150.487 185.477 150.86 185.35C151.234 185.217 151.61 185.14 151.99 185.12C152.37 185.093 152.717 185.12 153.03 185.2V186.58C152.637 186.48 152.207 186.457 151.74 186.51C151.274 186.563 150.844 186.75 150.45 187.07C150.09 187.35 149.82 187.687 149.64 188.08C149.46 188.467 149.34 188.88 149.28 189.32C149.22 189.753 149.19 190.183 149.19 190.61V196H147.72ZM158.067 196.29C156.8 196.29 155.757 196.017 154.937 195.47C154.123 194.923 153.623 194.163 153.437 193.19L154.937 192.94C155.097 193.553 155.46 194.043 156.027 194.41C156.6 194.77 157.307 194.95 158.147 194.95C158.967 194.95 159.613 194.78 160.087 194.44C160.56 194.093 160.797 193.623 160.797 193.03C160.797 192.697 160.72 192.427 160.567 192.22C160.42 192.007 160.117 191.81 159.657 191.63C159.197 191.45 158.51 191.237 157.597 190.99C156.617 190.723 155.85 190.457 155.297 190.19C154.743 189.923 154.35 189.617 154.117 189.27C153.883 188.917 153.767 188.487 153.767 187.98C153.767 187.367 153.94 186.83 154.287 186.37C154.633 185.903 155.113 185.543 155.727 185.29C156.34 185.03 157.053 184.9 157.867 184.9C158.68 184.9 159.407 185.033 160.047 185.3C160.693 185.56 161.213 185.927 161.607 186.4C162 186.873 162.233 187.423 162.307 188.05L160.807 188.32C160.707 187.687 160.39 187.187 159.857 186.82C159.33 186.447 158.66 186.253 157.847 186.24C157.08 186.22 156.457 186.367 155.977 186.68C155.497 186.987 155.257 187.397 155.257 187.91C155.257 188.197 155.343 188.443 155.517 188.65C155.69 188.85 156.003 189.04 156.457 189.22C156.917 189.4 157.57 189.597 158.417 189.81C159.41 190.063 160.19 190.33 160.757 190.61C161.323 190.89 161.727 191.22 161.967 191.6C162.207 191.98 162.327 192.45 162.327 193.01C162.327 194.03 161.947 194.833 161.187 195.42C160.433 196 159.393 196.29 158.067 196.29Z" fill="#1B1C1A"/>
<rect x="21" y="235" width="349" height="4" rx="2" fill="#E4E2DF"/>
<rect x="250.5" y="227" width="20" height="20" rx="10" fill="#120A00"/>
<path d="M23.1505 268V260.982L21.66 261.878V260.971L23.1505 260.08H23.97V268H23.1505ZM30.4583 268V260.08H31.2668V263.649H35.6448V260.08H36.4478V268H35.6448V264.425H31.2668V268H30.4583ZM42.2951 268.165C41.5067 268.165 40.8412 267.991 40.2986 267.642C39.7559 267.29 39.3452 266.805 39.0666 266.185C38.7879 265.565 38.6486 264.85 38.6486 264.04C38.6486 263.23 38.7879 262.515 39.0666 261.895C39.3452 261.275 39.7559 260.791 40.2986 260.443C40.8412 260.091 41.5067 259.915 42.2951 259.915C43.0871 259.915 43.7526 260.091 44.2916 260.443C44.8342 260.791 45.2449 261.275 45.5236 261.895C45.8059 262.515 45.9471 263.23 45.9471 264.04C45.9471 264.85 45.8059 265.565 45.5236 266.185C45.2449 266.805 44.8342 267.29 44.2916 267.642C43.7526 267.991 43.0871 268.165 42.2951 268.165ZM42.2951 267.389C42.9147 267.389 43.4317 267.248 43.8461 266.966C44.2604 266.684 44.5702 266.291 44.7756 265.789C44.9846 265.283 45.0891 264.7 45.0891 264.04C45.0891 263.38 44.9846 262.799 44.7756 262.296C44.5702 261.794 44.2604 261.402 43.8461 261.119C43.4317 260.837 42.9147 260.694 42.2951 260.69C41.6754 260.69 41.1602 260.832 40.7496 261.114C40.3389 261.396 40.0291 261.79 39.8201 262.296C39.6147 262.799 39.5102 263.38 39.5066 264.04C39.5029 264.7 39.6037 265.281 39.8091 265.783C40.0181 266.282 40.3297 266.674 40.7441 266.96C41.1584 267.243 41.6754 267.386 42.2951 267.389ZM51.2395 268.165C50.6345 268.165 50.0992 268.04 49.6335 267.791C49.1715 267.542 48.8085 267.19 48.5445 266.735C48.2805 266.28 48.1485 265.749 48.1485 265.14V260.085L48.9625 260.08V265.035C48.9625 265.446 49.0322 265.802 49.1715 266.102C49.3108 266.399 49.4923 266.645 49.716 266.839C49.9433 267.03 50.1908 267.171 50.4585 267.263C50.7262 267.355 50.9865 267.4 51.2395 267.4C51.4962 267.4 51.7583 267.355 52.026 267.263C52.2937 267.171 52.5393 267.03 52.763 266.839C52.9867 266.645 53.1682 266.399 53.3075 266.102C53.4468 265.802 53.5165 265.446 53.5165 265.035V260.08H54.3305V265.14C54.3305 265.749 54.1985 266.28 53.9345 266.735C53.6705 267.186 53.3057 267.538 52.84 267.791C52.378 268.04 51.8445 268.165 51.2395 268.165ZM56.9721 268V260.08H60.0301C60.1071 260.08 60.1933 260.084 60.2886 260.091C60.3876 260.095 60.4866 260.106 60.5856 260.124C61 260.186 61.3501 260.331 61.6361 260.558C61.9258 260.782 62.144 261.064 62.2906 261.405C62.441 261.746 62.5161 262.124 62.5161 262.538C62.5161 263.136 62.3585 263.655 62.0431 264.095C61.7278 264.535 61.2768 264.812 60.6901 264.925L60.4096 264.991H57.7806V268H56.9721ZM61.7681 268L60.2061 264.777L60.9816 264.48L62.6976 268H61.7681ZM57.7806 264.221H60.0081C60.0741 264.221 60.1511 264.218 60.2391 264.21C60.3271 264.203 60.4133 264.19 60.4976 264.172C60.769 264.113 60.9908 264.001 61.1631 263.836C61.3391 263.671 61.4693 263.475 61.5536 263.248C61.6416 263.021 61.6856 262.784 61.6856 262.538C61.6856 262.293 61.6416 262.056 61.5536 261.829C61.4693 261.598 61.3391 261.4 61.1631 261.235C60.9908 261.07 60.769 260.958 60.4976 260.899C60.4133 260.881 60.3271 260.87 60.2391 260.866C60.1511 260.859 60.0741 260.855 60.0081 260.855H57.7806V264.221Z" fill="#4C463C"/>
<path d="M287.57 268V260.982L286.08 261.878V260.971L287.57 260.08H288.39V268H287.57ZM294.255 268.165C293.76 268.165 293.309 268.046 292.902 267.807C292.498 267.565 292.176 267.239 291.934 266.828C291.695 266.414 291.576 265.948 291.576 265.431V262.687C291.576 262.155 291.695 261.682 291.934 261.268C292.172 260.85 292.496 260.522 292.907 260.283C293.321 260.041 293.791 259.92 294.315 259.92C294.766 259.92 295.184 260.019 295.569 260.217C295.958 260.415 296.275 260.692 296.521 261.048L295.899 261.559C295.73 261.295 295.507 261.085 295.228 260.927C294.949 260.769 294.645 260.69 294.315 260.69C293.945 260.69 293.615 260.78 293.325 260.96C293.035 261.14 292.808 261.376 292.643 261.669C292.478 261.959 292.396 262.274 292.396 262.615V264.342L292.192 264.111C292.423 263.748 292.726 263.455 293.1 263.231C293.477 263.008 293.888 262.896 294.332 262.896C294.823 262.896 295.265 263.013 295.657 263.248C296.049 263.479 296.361 263.792 296.592 264.188C296.823 264.584 296.939 265.028 296.939 265.519C296.939 266.007 296.816 266.451 296.57 266.85C296.328 267.25 296.004 267.569 295.597 267.807C295.193 268.046 294.746 268.165 294.255 268.165ZM294.255 267.378C294.599 267.378 294.913 267.296 295.195 267.131C295.481 266.966 295.707 266.742 295.872 266.46C296.04 266.178 296.125 265.864 296.125 265.519C296.125 265.175 296.04 264.861 295.872 264.579C295.707 264.293 295.483 264.067 295.201 263.902C294.918 263.734 294.605 263.649 294.26 263.649C293.915 263.649 293.602 263.734 293.32 263.902C293.037 264.067 292.812 264.293 292.643 264.579C292.478 264.861 292.396 265.175 292.396 265.519C292.396 265.86 292.478 266.172 292.643 266.454C292.808 266.737 293.032 266.962 293.314 267.131C293.596 267.296 293.91 267.378 294.255 267.378ZM302.799 268V260.08H303.608V263.649H307.986V260.08H308.789V268H307.986V264.425H303.608V268H302.799ZM314.636 268.165C313.848 268.165 313.182 267.991 312.64 267.642C312.097 267.29 311.686 266.805 311.408 266.185C311.129 265.565 310.99 264.85 310.99 264.04C310.99 263.23 311.129 262.515 311.408 261.895C311.686 261.275 312.097 260.791 312.64 260.443C313.182 260.091 313.848 259.915 314.636 259.915C315.428 259.915 316.094 260.091 316.633 260.443C317.175 260.791 317.586 261.275 317.865 261.895C318.147 262.515 318.288 263.23 318.288 264.04C318.288 264.85 318.147 265.565 317.865 266.185C317.586 266.805 317.175 267.29 316.633 267.642C316.094 267.991 315.428 268.165 314.636 268.165ZM314.636 267.389C315.256 267.389 315.773 267.248 316.187 266.966C316.602 266.684 316.911 266.291 317.117 265.789C317.326 265.283 317.43 264.7 317.43 264.04C317.43 263.38 317.326 262.799 317.117 262.296C316.911 261.794 316.602 261.402 316.187 261.119C315.773 260.837 315.256 260.694 314.636 260.69C314.017 260.69 313.501 260.832 313.091 261.114C312.68 261.396 312.37 261.79 312.161 262.296C311.956 262.799 311.851 263.38 311.848 264.04C311.844 264.7 311.945 265.281 312.15 265.783C312.359 266.282 312.671 266.674 313.085 266.96C313.5 267.243 314.017 267.386 314.636 267.389ZM323.581 268.165C322.976 268.165 322.44 268.04 321.975 267.791C321.513 267.542 321.15 267.19 320.886 266.735C320.622 266.28 320.49 265.749 320.49 265.14V260.085L321.304 260.08V265.035C321.304 265.446 321.373 265.802 321.513 266.102C321.652 266.399 321.834 266.645 322.057 266.839C322.285 267.03 322.532 267.171 322.8 267.263C323.067 267.355 323.328 267.4 323.581 267.4C323.837 267.4 324.1 267.355 324.367 267.263C324.635 267.171 324.881 267.03 325.104 266.839C325.328 266.645 325.509 266.399 325.649 266.102C325.788 265.802 325.858 265.446 325.858 265.035V260.08H326.672V265.14C326.672 265.749 326.54 266.28 326.276 266.735C326.012 267.186 325.647 267.538 325.181 267.791C324.719 268.04 324.186 268.165 323.581 268.165ZM329.313 268V260.08H332.371C332.448 260.08 332.535 260.084 332.63 260.091C332.729 260.095 332.828 260.106 332.927 260.124C333.341 260.186 333.691 260.331 333.977 260.558C334.267 260.782 334.485 261.064 334.632 261.405C334.782 261.746 334.857 262.124 334.857 262.538C334.857 263.136 334.7 263.655 334.384 264.095C334.069 264.535 333.618 264.812 333.031 264.925L332.751 264.991H330.122V268H329.313ZM334.109 268L332.547 264.777L333.323 264.48L335.039 268H334.109ZM330.122 264.221H332.349C332.415 264.221 332.492 264.218 332.58 264.21C332.668 264.203 332.755 264.19 332.839 264.172C333.11 264.113 333.332 264.001 333.504 263.836C333.68 263.671 333.811 263.475 333.895 263.248C333.983 263.021 334.027 262.784 334.027 262.538C334.027 262.293 333.983 262.056 333.895 261.829C333.811 261.598 333.68 261.4 333.504 261.235C333.332 261.07 333.11 260.958 332.839 260.899C332.755 260.881 332.668 260.87 332.58 260.866C332.492 260.859 332.415 260.855 332.349 260.855H330.122V264.221Z" fill="#4C463C"/>
<mask id="path-15-inside-2_185_815" fill="white">
<path d="M25 400H367V437H25V400Z"/>
</mask>
<path d="M367 437V436H25V437V438H367V437Z" fill="#CFC5B8" fill-opacity="0.15" mask="url(#path-15-inside-2_185_815)"/>
<path d="M26.4 422V407.6H31.96C32.1 407.6 32.2567 407.607 32.43 407.62C32.61 407.627 32.79 407.647 32.97 407.68C33.7233 407.793 34.36 408.057 34.88 408.47C35.4067 408.877 35.8033 409.39 36.07 410.01C36.3433 410.63 36.48 411.317 36.48 412.07C36.48 412.817 36.3433 413.5 36.07 414.12C35.7967 414.74 35.3967 415.257 34.87 415.67C34.35 416.077 33.7167 416.337 32.97 416.45C32.79 416.477 32.61 416.497 32.43 416.51C32.2567 416.523 32.1 416.53 31.96 416.53H27.87V422H26.4ZM27.87 415.13H31.92C32.04 415.13 32.18 415.123 32.34 415.11C32.5 415.097 32.6567 415.073 32.81 415.04C33.3033 414.933 33.7067 414.73 34.02 414.43C34.34 414.13 34.5767 413.773 34.73 413.36C34.89 412.947 34.97 412.517 34.97 412.07C34.97 411.623 34.89 411.193 34.73 410.78C34.5767 410.36 34.34 410 34.02 409.7C33.7067 409.4 33.3033 409.197 32.81 409.09C32.6567 409.057 32.5 409.037 32.34 409.03C32.18 409.017 32.04 409.01 31.92 409.01H27.87V415.13ZM37.9703 422V411.2H39.2903V413.8L39.0303 413.46C39.1503 413.14 39.307 412.847 39.5003 412.58C39.6936 412.307 39.9036 412.083 40.1303 411.91C40.4103 411.663 40.737 411.477 41.1103 411.35C41.4836 411.217 41.8603 411.14 42.2403 411.12C42.6203 411.093 42.967 411.12 43.2803 411.2V412.58C42.887 412.48 42.457 412.457 41.9903 412.51C41.5236 412.563 41.0936 412.75 40.7003 413.07C40.3403 413.35 40.0703 413.687 39.8903 414.08C39.7103 414.467 39.5903 414.88 39.5303 415.32C39.4703 415.753 39.4403 416.183 39.4403 416.61V422H37.9703ZM49.052 422.3C47.9987 422.3 47.0854 422.067 46.312 421.6C45.5454 421.133 44.9487 420.477 44.522 419.63C44.0954 418.783 43.882 417.79 43.882 416.65C43.882 415.47 44.092 414.45 44.512 413.59C44.932 412.73 45.522 412.067 46.282 411.6C47.0487 411.133 47.952 410.9 48.992 410.9C50.0587 410.9 50.9687 411.147 51.722 411.64C52.4754 412.127 53.0454 412.827 53.432 413.74C53.8187 414.653 53.9954 415.743 53.962 417.01H52.462V416.49C52.4354 415.09 52.132 414.033 51.552 413.32C50.9787 412.607 50.1387 412.25 49.032 412.25C47.872 412.25 46.982 412.627 46.362 413.38C45.7487 414.133 45.442 415.207 45.442 416.6C45.442 417.96 45.7487 419.017 46.362 419.77C46.982 420.517 47.8587 420.89 48.992 420.89C49.7654 420.89 50.4387 420.713 51.012 420.36C51.592 420 52.0487 419.483 52.382 418.81L53.752 419.34C53.3254 420.28 52.6954 421.01 51.862 421.53C51.0354 422.043 50.0987 422.3 49.052 422.3ZM44.922 417.01V415.78H53.172V417.01H44.922ZM56.7513 422V410.4C56.7513 410.12 56.7646 409.843 56.7913 409.57C56.8246 409.297 56.8879 409.037 56.9813 408.79C57.0746 408.537 57.2213 408.303 57.4213 408.09C57.6413 407.85 57.8813 407.677 58.1413 407.57C58.4013 407.457 58.6713 407.383 58.9513 407.35C59.2379 407.317 59.5179 407.3 59.7912 407.3H61.1713V408.54H59.8913C59.3313 408.54 58.9113 408.677 58.6313 408.95C58.3579 409.223 58.2213 409.653 58.2213 410.24V422H56.7513ZM54.8813 412.46V411.2H61.1713V412.46H54.8813ZM66.4505 422.3C65.3971 422.3 64.4838 422.067 63.7105 421.6C62.9438 421.133 62.3471 420.477 61.9205 419.63C61.4938 418.783 61.2805 417.79 61.2805 416.65C61.2805 415.47 61.4905 414.45 61.9105 413.59C62.3305 412.73 62.9205 412.067 63.6805 411.6C64.4471 411.133 65.3505 410.9 66.3905 410.9C67.4571 410.9 68.3671 411.147 69.1205 411.64C69.8738 412.127 70.4438 412.827 70.8305 413.74C71.2171 414.653 71.3938 415.743 71.3605 417.01H69.8605V416.49C69.8338 415.09 69.5305 414.033 68.9505 413.32C68.3771 412.607 67.5371 412.25 66.4305 412.25C65.2705 412.25 64.3805 412.627 63.7605 413.38C63.1471 414.133 62.8405 415.207 62.8405 416.6C62.8405 417.96 63.1471 419.017 63.7605 419.77C64.3805 420.517 65.2571 420.89 66.3905 420.89C67.1638 420.89 67.8371 420.713 68.4105 420.36C68.9905 420 69.4471 419.483 69.7805 418.81L71.1505 419.34C70.7238 420.28 70.0938 421.01 69.2605 421.53C68.4338 422.043 67.4971 422.3 66.4505 422.3ZM62.3205 417.01V415.78H70.5705V417.01H62.3205ZM73.0797 422V411.2H74.3997V413.8L74.1397 413.46C74.2597 413.14 74.4164 412.847 74.6097 412.58C74.803 412.307 75.013 412.083 75.2397 411.91C75.5197 411.663 75.8464 411.477 76.2197 411.35C76.593 411.217 76.9697 411.14 77.3497 411.12C77.7297 411.093 78.0764 411.12 78.3897 411.2V412.58C77.9964 412.48 77.5664 412.457 77.0997 412.51C76.633 412.563 76.203 412.75 75.8097 413.07C75.4497 413.35 75.1797 413.687 74.9997 414.08C74.8197 414.467 74.6997 414.88 74.6397 415.32C74.5797 415.753 74.5497 416.183 74.5497 416.61V422H73.0797ZM79.7867 422V411.2H81.1067V413.8L80.8467 413.46C80.9667 413.14 81.1234 412.847 81.3167 412.58C81.5101 412.307 81.7201 412.083 81.9467 411.91C82.2267 411.663 82.5534 411.477 82.9267 411.35C83.3001 411.217 83.6767 411.14 84.0567 411.12C84.4367 411.093 84.7834 411.12 85.0967 411.2V412.58C84.7034 412.48 84.2734 412.457 83.8067 412.51C83.3401 412.563 82.9101 412.75 82.5167 413.07C82.1567 413.35 81.8867 413.687 81.7067 414.08C81.5267 414.467 81.4067 414.88 81.3467 415.32C81.2867 415.753 81.2567 416.183 81.2567 416.61V422H79.7867ZM90.8684 422.3C89.8151 422.3 88.9018 422.067 88.1284 421.6C87.3618 421.133 86.7651 420.477 86.3384 419.63C85.9118 418.783 85.6984 417.79 85.6984 416.65C85.6984 415.47 85.9084 414.45 86.3284 413.59C86.7484 412.73 87.3384 412.067 88.0984 411.6C88.8651 411.133 89.7684 410.9 90.8084 410.9C91.8751 410.9 92.7851 411.147 93.5384 411.64C94.2918 412.127 94.8618 412.827 95.2484 413.74C95.6351 414.653 95.8118 415.743 95.7784 417.01H94.2784V416.49C94.2518 415.09 93.9484 414.033 93.3684 413.32C92.7951 412.607 91.9551 412.25 90.8484 412.25C89.6884 412.25 88.7984 412.627 88.1784 413.38C87.5651 414.133 87.2584 415.207 87.2584 416.6C87.2584 417.96 87.5651 419.017 88.1784 419.77C88.7984 420.517 89.6751 420.89 90.8084 420.89C91.5818 420.89 92.2551 420.713 92.8284 420.36C93.4084 420 93.8651 419.483 94.1984 418.81L95.5684 419.34C95.1418 420.28 94.5118 421.01 93.6784 421.53C92.8518 422.043 91.9151 422.3 90.8684 422.3ZM86.7384 417.01V415.78H94.9884V417.01H86.7384ZM101.688 422.3C100.681 422.3 99.821 422.05 99.1077 421.55C98.3943 421.043 97.8477 420.36 97.4677 419.5C97.0877 418.64 96.8977 417.67 96.8977 416.59C96.8977 415.517 97.0843 414.55 97.4577 413.69C97.8377 412.83 98.381 412.15 99.0877 411.65C99.7943 411.15 100.641 410.9 101.628 410.9C102.641 410.9 103.494 411.147 104.188 411.64C104.881 412.133 105.404 412.81 105.758 413.67C106.118 414.523 106.298 415.497 106.298 416.59C106.298 417.663 106.121 418.633 105.768 419.5C105.414 420.36 104.894 421.043 104.208 421.55C103.521 422.05 102.681 422.3 101.688 422.3ZM101.838 420.93C102.604 420.93 103.238 420.743 103.738 420.37C104.238 419.997 104.611 419.483 104.858 418.83C105.104 418.17 105.228 417.423 105.228 416.59C105.228 415.743 105.104 414.997 104.858 414.35C104.611 413.697 104.238 413.187 103.738 412.82C103.244 412.453 102.621 412.27 101.868 412.27C101.094 412.27 100.454 412.46 99.9477 412.84C99.441 413.22 99.0643 413.737 98.8177 414.39C98.5777 415.043 98.4577 415.777 98.4577 416.59C98.4577 417.41 98.581 418.15 98.8277 418.81C99.081 419.463 99.4577 419.98 99.9577 420.36C100.458 420.74 101.084 420.93 101.838 420.93ZM105.228 422V413.87H105.068V407.6H106.548V422H105.228ZM116.387 422.29C115.12 422.29 114.077 422.017 113.257 421.47C112.444 420.923 111.944 420.163 111.757 419.19L113.257 418.94C113.417 419.553 113.78 420.043 114.347 420.41C114.92 420.77 115.627 420.95 116.467 420.95C117.287 420.95 117.934 420.78 118.407 420.44C118.88 420.093 119.117 419.623 119.117 419.03C119.117 418.697 119.04 418.427 118.887 418.22C118.74 418.007 118.437 417.81 117.977 417.63C117.517 417.45 116.83 417.237 115.917 416.99C114.937 416.723 114.17 416.457 113.617 416.19C113.064 415.923 112.67 415.617 112.437 415.27C112.204 414.917 112.087 414.487 112.087 413.98C112.087 413.367 112.26 412.83 112.607 412.37C112.954 411.903 113.434 411.543 114.047 411.29C114.66 411.03 115.374 410.9 116.187 410.9C117 410.9 117.727 411.033 118.367 411.3C119.014 411.56 119.534 411.927 119.927 412.4C120.32 412.873 120.554 413.423 120.627 414.05L119.127 414.32C119.027 413.687 118.71 413.187 118.177 412.82C117.65 412.447 116.98 412.253 116.167 412.24C115.4 412.22 114.777 412.367 114.297 412.68C113.817 412.987 113.577 413.397 113.577 413.91C113.577 414.197 113.664 414.443 113.837 414.65C114.01 414.85 114.324 415.04 114.777 415.22C115.237 415.4 115.89 415.597 116.737 415.81C117.73 416.063 118.51 416.33 119.077 416.61C119.644 416.89 120.047 417.22 120.287 417.6C120.527 417.98 120.647 418.45 120.647 419.01C120.647 420.03 120.267 420.833 119.507 421.42C118.754 422 117.714 422.29 116.387 422.29ZM128.245 422C127.638 422.127 127.038 422.177 126.445 422.15C125.858 422.123 125.332 421.997 124.865 421.77C124.405 421.543 124.055 421.19 123.815 420.71C123.622 420.31 123.515 419.907 123.495 419.5C123.482 419.087 123.475 418.617 123.475 418.09V408.2H124.935V418.03C124.935 418.483 124.938 418.863 124.945 419.17C124.958 419.47 125.028 419.737 125.155 419.97C125.395 420.417 125.775 420.683 126.295 420.77C126.822 420.857 127.472 420.837 128.245 420.71V422ZM121.165 412.46V411.2H128.245V412.46H121.165ZM134.003 422.27C133.356 422.27 132.789 422.17 132.303 421.97C131.823 421.77 131.413 421.5 131.073 421.16C130.739 420.82 130.469 420.433 130.263 420C130.056 419.56 129.906 419.097 129.813 418.61C129.719 418.117 129.673 417.627 129.673 417.14V411.2H131.153V416.71C131.153 417.303 131.209 417.853 131.323 418.36C131.436 418.867 131.616 419.31 131.863 419.69C132.116 420.063 132.439 420.353 132.833 420.56C133.233 420.767 133.716 420.87 134.283 420.87C134.803 420.87 135.259 420.78 135.653 420.6C136.053 420.42 136.386 420.163 136.653 419.83C136.926 419.49 137.133 419.08 137.273 418.6C137.413 418.113 137.483 417.567 137.483 416.96L138.523 417.19C138.523 418.297 138.329 419.227 137.943 419.98C137.556 420.733 137.023 421.303 136.343 421.69C135.663 422.077 134.883 422.27 134.003 422.27ZM137.633 422V419.34H137.483V411.2H138.953V422H137.633ZM145.438 422.3C144.431 422.3 143.571 422.05 142.858 421.55C142.144 421.043 141.598 420.36 141.218 419.5C140.838 418.64 140.648 417.67 140.648 416.59C140.648 415.517 140.834 414.55 141.208 413.69C141.588 412.83 142.131 412.15 142.838 411.65C143.544 411.15 144.391 410.9 145.378 410.9C146.391 410.9 147.244 411.147 147.938 411.64C148.631 412.133 149.154 412.81 149.508 413.67C149.868 414.523 150.048 415.497 150.048 416.59C150.048 417.663 149.871 418.633 149.518 419.5C149.164 420.36 148.644 421.043 147.958 421.55C147.271 422.05 146.431 422.3 145.438 422.3ZM145.588 420.93C146.354 420.93 146.988 420.743 147.488 420.37C147.988 419.997 148.361 419.483 148.608 418.83C148.854 418.17 148.978 417.423 148.978 416.59C148.978 415.743 148.854 414.997 148.608 414.35C148.361 413.697 147.988 413.187 147.488 412.82C146.994 412.453 146.371 412.27 145.618 412.27C144.844 412.27 144.204 412.46 143.698 412.84C143.191 413.22 142.814 413.737 142.568 414.39C142.328 415.043 142.208 415.777 142.208 416.59C142.208 417.41 142.331 418.15 142.578 418.81C142.831 419.463 143.208 419.98 143.708 420.36C144.208 420.74 144.834 420.93 145.588 420.93ZM148.978 422V413.87H148.818V407.6H150.298V422H148.978ZM154.143 426.8L156.233 421.13L156.263 422.81L151.533 411.2H153.093L156.973 420.91H156.333L159.913 411.2H161.413L155.613 426.8H154.143ZM175.538 422C174.931 422.127 174.331 422.177 173.738 422.15C173.151 422.123 172.624 421.997 172.158 421.77C171.698 421.543 171.348 421.19 171.108 420.71C170.914 420.31 170.808 419.907 170.788 419.5C170.774 419.087 170.768 418.617 170.768 418.09V408.2H172.228V418.03C172.228 418.483 172.231 418.863 172.238 419.17C172.251 419.47 172.321 419.737 172.448 419.97C172.688 420.417 173.068 420.683 173.588 420.77C174.114 420.857 174.764 420.837 175.538 420.71V422ZM168.458 412.46V411.2H175.538V412.46H168.458ZM177.366 409.15V407.5H178.836V409.15H177.366ZM177.366 422V411.2H178.836V422H177.366ZM194.214 422L194.224 414.91C194.224 414.077 193.99 413.423 193.524 412.95C193.064 412.47 192.477 412.23 191.764 412.23C191.357 412.23 190.96 412.323 190.574 412.51C190.187 412.697 189.867 412.997 189.614 413.41C189.367 413.823 189.244 414.363 189.244 415.03L188.374 414.78C188.354 414.007 188.504 413.33 188.824 412.75C189.15 412.17 189.597 411.72 190.164 411.4C190.737 411.073 191.384 410.91 192.104 410.91C193.19 410.91 194.06 411.247 194.714 411.92C195.367 412.587 195.694 413.49 195.694 414.63L195.684 422H194.214ZM181.324 422V411.2H182.644V413.86H182.804V422H181.324ZM187.784 422L187.794 415.01C187.794 414.15 187.564 413.473 187.104 412.98C186.65 412.48 186.05 412.23 185.304 412.23C184.557 412.23 183.954 412.487 183.494 413C183.034 413.507 182.804 414.183 182.804 415.03L181.924 414.55C181.924 413.857 182.087 413.237 182.414 412.69C182.74 412.137 183.187 411.703 183.754 411.39C184.32 411.07 184.964 410.91 185.684 410.91C186.37 410.91 186.98 411.057 187.514 411.35C188.054 411.643 188.477 412.07 188.784 412.63C189.09 413.19 189.244 413.87 189.244 414.67L189.234 422H187.784ZM202.298 422.3C201.245 422.3 200.331 422.067 199.558 421.6C198.791 421.133 198.195 420.477 197.768 419.63C197.341 418.783 197.128 417.79 197.128 416.65C197.128 415.47 197.338 414.45 197.758 413.59C198.178 412.73 198.768 412.067 199.528 411.6C200.295 411.133 201.198 410.9 202.238 410.9C203.305 410.9 204.215 411.147 204.968 411.64C205.721 412.127 206.291 412.827 206.678 413.74C207.065 414.653 207.241 415.743 207.208 417.01H205.708V416.49C205.681 415.09 205.378 414.033 204.798 413.32C204.225 412.607 203.385 412.25 202.278 412.25C201.118 412.25 200.228 412.627 199.608 413.38C198.995 414.133 198.688 415.207 198.688 416.6C198.688 417.96 198.995 419.017 199.608 419.77C200.228 420.517 201.105 420.89 202.238 420.89C203.011 420.89 203.685 420.713 204.258 420.36C204.838 420 205.295 419.483 205.628 418.81L206.998 419.34C206.571 420.28 205.941 421.01 205.108 421.53C204.281 422.043 203.345 422.3 202.298 422.3ZM198.168 417.01V415.78H206.418V417.01H198.168Z" fill="#1B1C1A"/>
<rect x="25" y="437" width="152.81" height="36" rx="12" fill="#EAE8E5"/>
<path d="M75.7454 460V449.92H76.6904L80.6524 458.397L84.5934 449.92H85.5524V459.993H84.5724V452.216L80.9814 460H80.3164L76.7324 452.216V460H75.7454ZM90.6738 460.21C89.9225 460.21 89.2808 460.04 88.7488 459.699C88.2168 459.358 87.8085 458.887 87.5238 458.285C87.2392 457.683 87.0968 456.992 87.0968 456.213C87.0968 455.42 87.2415 454.724 87.5308 454.127C87.8202 453.53 88.2308 453.065 88.7628 452.734C89.2995 452.398 89.9365 452.23 90.6738 452.23C91.4298 452.23 92.0738 452.4 92.6058 452.741C93.1425 453.077 93.5508 453.546 93.8308 454.148C94.1155 454.745 94.2578 455.434 94.2578 456.213C94.2578 457.006 94.1155 457.704 93.8308 458.306C93.5462 458.903 93.1355 459.37 92.5988 459.706C92.0622 460.042 91.4205 460.21 90.6738 460.21ZM90.6738 459.223C91.5138 459.223 92.1392 458.945 92.5498 458.39C92.9605 457.83 93.1658 457.104 93.1658 456.213C93.1658 455.298 92.9582 454.57 92.5428 454.029C92.1322 453.488 91.5092 453.217 90.6738 453.217C90.1092 453.217 89.6425 453.345 89.2738 453.602C88.9098 453.854 88.6368 454.206 88.4548 454.659C88.2775 455.107 88.1888 455.625 88.1888 456.213C88.1888 457.123 88.3988 457.853 88.8188 458.404C89.2388 458.95 89.8572 459.223 90.6738 459.223ZM95.802 460V452.44H96.726V454.26L96.544 454.022C96.628 453.798 96.7377 453.593 96.873 453.406C97.0083 453.215 97.1553 453.058 97.314 452.937C97.51 452.764 97.7387 452.634 98 452.545C98.2613 452.452 98.525 452.398 98.791 452.384C99.057 452.365 99.2997 452.384 99.519 452.44V453.406C99.2437 453.336 98.9427 453.32 98.616 453.357C98.2893 453.394 97.9883 453.525 97.713 453.749C97.461 453.945 97.272 454.181 97.146 454.456C97.02 454.727 96.936 455.016 96.894 455.324C96.852 455.627 96.831 455.928 96.831 456.227V460H95.802ZM106.307 460V456.143C106.307 455.723 106.267 455.338 106.188 454.988C106.109 454.633 105.98 454.325 105.803 454.064C105.63 453.798 105.404 453.593 105.124 453.448C104.849 453.303 104.513 453.231 104.116 453.231C103.752 453.231 103.43 453.294 103.15 453.42C102.875 453.546 102.641 453.728 102.45 453.966C102.263 454.199 102.121 454.484 102.023 454.82C101.925 455.156 101.876 455.539 101.876 455.968L101.148 455.807C101.148 455.032 101.283 454.381 101.554 453.854C101.825 453.327 102.198 452.928 102.674 452.657C103.15 452.386 103.696 452.251 104.312 452.251C104.765 452.251 105.159 452.321 105.495 452.461C105.836 452.601 106.123 452.79 106.356 453.028C106.594 453.266 106.785 453.539 106.93 453.847C107.075 454.15 107.18 454.475 107.245 454.82C107.31 455.161 107.343 455.501 107.343 455.842V460H106.307ZM100.84 460V452.44H101.771V454.302H101.876V460H100.84ZM109.299 451.005V449.85H110.328V451.005H109.299ZM109.299 460V452.44H110.328V460H109.299ZM117.887 460V456.143C117.887 455.723 117.847 455.338 117.768 454.988C117.689 454.633 117.56 454.325 117.383 454.064C117.21 453.798 116.984 453.593 116.704 453.448C116.429 453.303 116.093 453.231 115.696 453.231C115.332 453.231 115.01 453.294 114.73 453.42C114.455 453.546 114.221 453.728 114.03 453.966C113.843 454.199 113.701 454.484 113.603 454.82C113.505 455.156 113.456 455.539 113.456 455.968L112.728 455.807C112.728 455.032 112.863 454.381 113.134 453.854C113.405 453.327 113.778 452.928 114.254 452.657C114.73 452.386 115.276 452.251 115.892 452.251C116.345 452.251 116.739 452.321 117.075 452.461C117.416 452.601 117.703 452.79 117.936 453.028C118.174 453.266 118.365 453.539 118.51 453.847C118.655 454.15 118.76 454.475 118.825 454.82C118.89 455.161 118.923 455.501 118.923 455.842V460H117.887ZM112.42 460V452.44H113.351V454.302H113.456V460H112.42ZM123.742 463.57C123.355 463.57 122.972 463.512 122.594 463.395C122.221 463.283 121.876 463.103 121.558 462.856C121.241 462.613 120.975 462.296 120.76 461.904L121.691 461.386C121.901 461.806 122.195 462.107 122.573 462.289C122.956 462.476 123.346 462.569 123.742 462.569C124.288 462.569 124.729 462.466 125.065 462.261C125.406 462.06 125.653 461.762 125.807 461.365C125.961 460.968 126.036 460.474 126.031 459.881V457.865H126.15V452.44H127.067V459.895C127.067 460.11 127.06 460.315 127.046 460.511C127.037 460.712 127.016 460.908 126.983 461.099C126.895 461.664 126.71 462.128 126.43 462.492C126.155 462.856 125.791 463.127 125.338 463.304C124.89 463.481 124.358 463.57 123.742 463.57ZM123.672 460.21C122.968 460.21 122.366 460.035 121.866 459.685C121.367 459.33 120.984 458.852 120.718 458.25C120.452 457.648 120.319 456.969 120.319 456.213C120.319 455.462 120.45 454.785 120.711 454.183C120.977 453.581 121.358 453.105 121.852 452.755C122.347 452.405 122.94 452.23 123.63 452.23C124.34 452.23 124.937 452.403 125.422 452.748C125.908 453.093 126.274 453.567 126.521 454.169C126.773 454.766 126.899 455.448 126.899 456.213C126.899 456.964 126.776 457.643 126.528 458.25C126.281 458.852 125.917 459.33 125.436 459.685C124.956 460.035 124.368 460.21 123.672 460.21ZM123.777 459.251C124.314 459.251 124.757 459.12 125.107 458.859C125.457 458.598 125.719 458.238 125.891 457.781C126.064 457.319 126.15 456.796 126.15 456.213C126.15 455.62 126.064 455.098 125.891 454.645C125.719 454.188 125.457 453.831 125.107 453.574C124.762 453.317 124.326 453.189 123.798 453.189C123.257 453.189 122.809 453.322 122.454 453.588C122.1 453.854 121.836 454.216 121.663 454.673C121.495 455.13 121.411 455.644 121.411 456.213C121.411 456.787 121.498 457.305 121.67 457.767C121.848 458.224 122.111 458.586 122.461 458.852C122.811 459.118 123.25 459.251 123.777 459.251Z" fill="#4C463C"/>
<rect x="185.81" y="437" width="145.94" height="36" rx="12" fill="#F7E0B6"/>
<path d="M226.459 460L229.931 449.92H231.296L234.768 460H233.697L230.4 450.494H230.806L227.53 460H226.459ZM228.006 457.557V456.591H233.214V457.557H228.006ZM236.426 460V451.88C236.426 451.684 236.435 451.49 236.454 451.299C236.477 451.108 236.521 450.926 236.587 450.753C236.652 450.576 236.755 450.412 236.895 450.263C237.049 450.095 237.217 449.974 237.399 449.899C237.581 449.82 237.77 449.768 237.966 449.745C238.166 449.722 238.362 449.71 238.554 449.71H239.52V450.578H238.624C238.232 450.578 237.938 450.674 237.742 450.865C237.55 451.056 237.455 451.357 237.455 451.768V460H236.426ZM235.117 453.322V452.44H239.52V453.322H235.117ZM244.755 460C244.331 460.089 243.911 460.124 243.495 460.105C243.085 460.086 242.716 459.998 242.389 459.839C242.067 459.68 241.822 459.433 241.654 459.097C241.519 458.817 241.444 458.535 241.43 458.25C241.421 457.961 241.416 457.632 241.416 457.263V450.34H242.438V457.221C242.438 457.538 242.441 457.804 242.445 458.019C242.455 458.229 242.504 458.416 242.592 458.579C242.76 458.892 243.026 459.078 243.39 459.139C243.759 459.2 244.214 459.186 244.755 459.097V460ZM239.799 453.322V452.44H244.755V453.322H239.799ZM249.17 460.21C248.433 460.21 247.794 460.047 247.252 459.72C246.716 459.393 246.298 458.934 245.999 458.341C245.701 457.748 245.551 457.053 245.551 456.255C245.551 455.429 245.698 454.715 245.992 454.113C246.286 453.511 246.699 453.047 247.231 452.72C247.768 452.393 248.4 452.23 249.128 452.23C249.875 452.23 250.512 452.403 251.039 452.748C251.567 453.089 251.966 453.579 252.236 454.218C252.507 454.857 252.631 455.62 252.607 456.507H251.557V456.143C251.539 455.163 251.326 454.423 250.92 453.924C250.519 453.425 249.931 453.175 249.156 453.175C248.344 453.175 247.721 453.439 247.287 453.966C246.858 454.493 246.643 455.245 246.643 456.22C246.643 457.172 246.858 457.912 247.287 458.439C247.721 458.962 248.335 459.223 249.128 459.223C249.67 459.223 250.141 459.099 250.542 458.852C250.948 458.6 251.268 458.238 251.501 457.767L252.46 458.138C252.162 458.796 251.721 459.307 251.137 459.671C250.559 460.03 249.903 460.21 249.17 460.21ZM246.279 456.507V455.646H252.054V456.507H246.279ZM254.161 460V452.44H255.085V454.26L254.903 454.022C254.987 453.798 255.097 453.593 255.232 453.406C255.367 453.215 255.514 453.058 255.673 452.937C255.869 452.764 256.098 452.634 256.359 452.545C256.62 452.452 256.884 452.398 257.15 452.384C257.416 452.365 257.659 452.384 257.878 452.44V453.406C257.603 453.336 257.302 453.32 256.975 453.357C256.648 453.394 256.347 453.525 256.072 453.749C255.82 453.945 255.631 454.181 255.505 454.456C255.379 454.727 255.295 455.016 255.253 455.324C255.211 455.627 255.19 455.928 255.19 456.227V460H254.161ZM264.666 460V456.143C264.666 455.723 264.626 455.338 264.547 454.988C264.468 454.633 264.339 454.325 264.162 454.064C263.989 453.798 263.763 453.593 263.483 453.448C263.208 453.303 262.872 453.231 262.475 453.231C262.111 453.231 261.789 453.294 261.509 453.42C261.234 453.546 261 453.728 260.809 453.966C260.622 454.199 260.48 454.484 260.382 454.82C260.284 455.156 260.235 455.539 260.235 455.968L259.507 455.807C259.507 455.032 259.642 454.381 259.913 453.854C260.184 453.327 260.557 452.928 261.033 452.657C261.509 452.386 262.055 452.251 262.671 452.251C263.124 452.251 263.518 452.321 263.854 452.461C264.195 452.601 264.482 452.79 264.715 453.028C264.953 453.266 265.144 453.539 265.289 453.847C265.434 454.15 265.539 454.475 265.604 454.82C265.669 455.161 265.702 455.501 265.702 455.842V460H264.666ZM259.199 460V452.44H260.13V454.302H260.235V460H259.199ZM270.634 460.21C269.883 460.21 269.241 460.04 268.709 459.699C268.177 459.358 267.769 458.887 267.484 458.285C267.2 457.683 267.057 456.992 267.057 456.213C267.057 455.42 267.202 454.724 267.491 454.127C267.781 453.53 268.191 453.065 268.723 452.734C269.26 452.398 269.897 452.23 270.634 452.23C271.39 452.23 272.034 452.4 272.566 452.741C273.103 453.077 273.511 453.546 273.791 454.148C274.076 454.745 274.218 455.434 274.218 456.213C274.218 457.006 274.076 457.704 273.791 458.306C273.507 458.903 273.096 459.37 272.559 459.706C272.023 460.042 271.381 460.21 270.634 460.21ZM270.634 459.223C271.474 459.223 272.1 458.945 272.51 458.39C272.921 457.83 273.126 457.104 273.126 456.213C273.126 455.298 272.919 454.57 272.503 454.029C272.093 453.488 271.47 453.217 270.634 453.217C270.07 453.217 269.603 453.345 269.234 453.602C268.87 453.854 268.597 454.206 268.415 454.659C268.238 455.107 268.149 455.625 268.149 456.213C268.149 457.123 268.359 457.853 268.779 458.404C269.199 458.95 269.818 459.223 270.634 459.223ZM278.92 460.21C278.168 460.21 277.527 460.04 276.995 459.699C276.463 459.358 276.054 458.887 275.77 458.285C275.485 457.683 275.343 456.992 275.343 456.213C275.343 455.42 275.487 454.724 275.777 454.127C276.066 453.53 276.477 453.065 277.009 452.734C277.545 452.398 278.182 452.23 278.92 452.23C279.676 452.23 280.32 452.4 280.852 452.741C281.388 453.077 281.797 453.546 282.077 454.148C282.361 454.745 282.504 455.434 282.504 456.213C282.504 457.006 282.361 457.704 282.077 458.306C281.792 458.903 281.381 459.37 280.845 459.706C280.308 460.042 279.666 460.21 278.92 460.21ZM278.92 459.223C279.76 459.223 280.385 458.945 280.796 458.39C281.206 457.83 281.412 457.104 281.412 456.213C281.412 455.298 281.204 454.57 280.789 454.029C280.378 453.488 279.755 453.217 278.92 453.217C278.355 453.217 277.888 453.345 277.52 453.602C277.156 453.854 276.883 454.206 276.701 454.659C276.523 455.107 276.435 455.625 276.435 456.213C276.435 457.123 276.645 457.853 277.065 458.404C277.485 458.95 278.103 459.223 278.92 459.223ZM289.508 460V456.143C289.508 455.723 289.468 455.338 289.389 454.988C289.309 454.633 289.181 454.325 289.004 454.064C288.831 453.798 288.605 453.593 288.325 453.448C288.049 453.303 287.713 453.231 287.317 453.231C286.953 453.231 286.631 453.294 286.351 453.42C286.075 453.546 285.842 453.728 285.651 453.966C285.464 454.199 285.322 454.484 285.224 454.82C285.126 455.156 285.077 455.539 285.077 455.968L284.349 455.807C284.349 455.032 284.484 454.381 284.755 453.854C285.025 453.327 285.399 452.928 285.875 452.657C286.351 452.386 286.897 452.251 287.513 452.251C287.965 452.251 288.36 452.321 288.696 452.461C289.036 452.601 289.323 452.79 289.557 453.028C289.795 453.266 289.986 453.539 290.131 453.847C290.275 454.15 290.38 454.475 290.446 454.82C290.511 455.161 290.544 455.501 290.544 455.842V460H289.508ZM284.041 460V452.44H284.972V454.302H285.077V460H284.041Z" fill="#120A00"/>
<rect x="25" y="481" width="160.44" height="36" rx="12" fill="#EAE8E5"/>
<path d="M80.7088 504V493.92H87.0088V494.907H81.7378V498.393H86.1688V499.38H81.7378V503.013H87.0088V504H80.7088ZM90.7372 504L87.9932 496.44H89.0362L91.2692 502.656L93.4882 496.44H94.5452L91.8012 504H90.7372ZM98.7281 504.21C97.9908 504.21 97.3514 504.047 96.8101 503.72C96.2734 503.393 95.8558 502.934 95.5571 502.341C95.2584 501.748 95.1091 501.053 95.1091 500.255C95.1091 499.429 95.2561 498.715 95.5501 498.113C95.8441 497.511 96.2571 497.047 96.7891 496.72C97.3258 496.393 97.9581 496.23 98.6861 496.23C99.4328 496.23 100.07 496.403 100.597 496.748C101.124 497.089 101.523 497.579 101.794 498.218C102.065 498.857 102.188 499.62 102.165 500.507H101.115V500.143C101.096 499.163 100.884 498.423 100.478 497.924C100.077 497.425 99.4888 497.175 98.7141 497.175C97.9021 497.175 97.2791 497.439 96.8451 497.966C96.4158 498.493 96.2011 499.245 96.2011 500.22C96.2011 501.172 96.4158 501.912 96.8451 502.439C97.2791 502.962 97.8928 503.223 98.6861 503.223C99.2274 503.223 99.6988 503.099 100.1 502.852C100.506 502.6 100.826 502.238 101.059 501.767L102.018 502.138C101.719 502.796 101.278 503.307 100.695 503.671C100.116 504.03 99.4608 504.21 98.7281 504.21ZM95.8371 500.507V499.646H101.612V500.507H95.8371ZM108.973 504V500.143C108.973 499.723 108.934 499.338 108.854 498.988C108.775 498.633 108.647 498.325 108.469 498.064C108.297 497.798 108.07 497.593 107.79 497.448C107.515 497.303 107.179 497.231 106.782 497.231C106.418 497.231 106.096 497.294 105.816 497.42C105.541 497.546 105.308 497.728 105.116 497.966C104.93 498.199 104.787 498.484 104.689 498.82C104.591 499.156 104.542 499.539 104.542 499.968L103.814 499.807C103.814 499.032 103.95 498.381 104.22 497.854C104.491 497.327 104.864 496.928 105.34 496.657C105.816 496.386 106.362 496.251 106.978 496.251C107.431 496.251 107.825 496.321 108.161 496.461C108.502 496.601 108.789 496.79 109.022 497.028C109.26 497.266 109.452 497.539 109.596 497.847C109.741 498.15 109.846 498.475 109.911 498.82C109.977 499.161 110.009 499.501 110.009 499.842V504H108.973ZM103.506 504V496.44H104.437V498.302H104.542V504H103.506ZM111.966 495.005V493.85H112.995V495.005H111.966ZM111.966 504V496.44H112.995V504H111.966ZM120.554 504V500.143C120.554 499.723 120.514 499.338 120.435 498.988C120.355 498.633 120.227 498.325 120.05 498.064C119.877 497.798 119.651 497.593 119.371 497.448C119.095 497.303 118.759 497.231 118.363 497.231C117.999 497.231 117.677 497.294 117.397 497.42C117.121 497.546 116.888 497.728 116.697 497.966C116.51 498.199 116.368 498.484 116.27 498.82C116.172 499.156 116.123 499.539 116.123 499.968L115.395 499.807C115.395 499.032 115.53 498.381 115.801 497.854C116.071 497.327 116.445 496.928 116.921 496.657C117.397 496.386 117.943 496.251 118.559 496.251C119.011 496.251 119.406 496.321 119.742 496.461C120.082 496.601 120.369 496.79 120.603 497.028C120.841 497.266 121.032 497.539 121.177 497.847C121.321 498.15 121.426 498.475 121.492 498.82C121.557 499.161 121.59 499.501 121.59 499.842V504H120.554ZM115.087 504V496.44H116.018V498.302H116.123V504H115.087ZM126.409 507.57C126.022 507.57 125.639 507.512 125.261 507.395C124.888 507.283 124.542 507.103 124.225 506.856C123.908 506.613 123.642 506.296 123.427 505.904L124.358 505.386C124.568 505.806 124.862 506.107 125.24 506.289C125.623 506.476 126.012 506.569 126.409 506.569C126.955 506.569 127.396 506.466 127.732 506.261C128.073 506.06 128.32 505.762 128.474 505.365C128.628 504.968 128.703 504.474 128.698 503.881V501.865H128.817V496.44H129.734V503.895C129.734 504.11 129.727 504.315 129.713 504.511C129.704 504.712 129.683 504.908 129.65 505.099C129.561 505.664 129.377 506.128 129.097 506.492C128.822 506.856 128.458 507.127 128.005 507.304C127.557 507.481 127.025 507.57 126.409 507.57ZM126.339 504.21C125.634 504.21 125.032 504.035 124.533 503.685C124.034 503.33 123.651 502.852 123.385 502.25C123.119 501.648 122.986 500.969 122.986 500.213C122.986 499.462 123.117 498.785 123.378 498.183C123.644 497.581 124.024 497.105 124.519 496.755C125.014 496.405 125.606 496.23 126.297 496.23C127.006 496.23 127.604 496.403 128.089 496.748C128.574 497.093 128.941 497.567 129.188 498.169C129.44 498.766 129.566 499.448 129.566 500.213C129.566 500.964 129.442 501.643 129.195 502.25C128.948 502.852 128.584 503.33 128.103 503.685C127.622 504.035 127.034 504.21 126.339 504.21ZM126.444 503.251C126.981 503.251 127.424 503.12 127.774 502.859C128.124 502.598 128.385 502.238 128.558 501.781C128.731 501.319 128.817 500.796 128.817 500.213C128.817 499.62 128.731 499.098 128.558 498.645C128.385 498.188 128.124 497.831 127.774 497.574C127.429 497.317 126.992 497.189 126.465 497.189C125.924 497.189 125.476 497.322 125.121 497.588C124.766 497.854 124.503 498.216 124.33 498.673C124.162 499.13 124.078 499.644 124.078 500.213C124.078 500.787 124.164 501.305 124.337 501.767C124.514 502.224 124.778 502.586 125.128 502.852C125.478 503.118 125.917 503.251 126.444 503.251Z" fill="#4C463C"/>
<rect x="193.44" y="481" width="137" height="36" rx="12" fill="#EAE8E5"/>
<path d="M228.908 504V493.92H229.937V503.013H234.725V504H228.908ZM238.081 504.21C237.512 504.21 237.034 504.107 236.646 503.902C236.264 503.697 235.977 503.424 235.785 503.083C235.594 502.742 235.498 502.371 235.498 501.97C235.498 501.559 235.58 501.209 235.743 500.92C235.911 500.626 236.138 500.386 236.422 500.199C236.712 500.012 237.045 499.87 237.423 499.772C237.806 499.679 238.228 499.597 238.69 499.527C239.157 499.452 239.612 499.389 240.055 499.338C240.503 499.282 240.895 499.228 241.231 499.177L240.867 499.401C240.881 498.654 240.737 498.101 240.433 497.742C240.13 497.383 239.603 497.203 238.851 497.203C238.333 497.203 237.895 497.32 237.535 497.553C237.181 497.786 236.931 498.155 236.786 498.659L235.785 498.365C235.958 497.688 236.306 497.163 236.828 496.79C237.351 496.417 238.03 496.23 238.865 496.23C239.556 496.23 240.142 496.361 240.622 496.622C241.108 496.879 241.451 497.252 241.651 497.742C241.745 497.961 241.805 498.206 241.833 498.477C241.861 498.748 241.875 499.023 241.875 499.303V504H240.958V502.103L241.224 502.215C240.968 502.864 240.569 503.358 240.027 503.699C239.486 504.04 238.837 504.21 238.081 504.21ZM238.2 503.321C238.681 503.321 239.101 503.235 239.46 503.062C239.82 502.889 240.109 502.654 240.328 502.355C240.548 502.052 240.69 501.711 240.755 501.333C240.811 501.09 240.842 500.824 240.846 500.535C240.851 500.241 240.853 500.022 240.853 499.877L241.245 500.08C240.895 500.127 240.515 500.173 240.104 500.22C239.698 500.267 239.297 500.32 238.9 500.381C238.508 500.442 238.154 500.514 237.836 500.598C237.622 500.659 237.414 500.745 237.213 500.857C237.013 500.964 236.847 501.109 236.716 501.291C236.59 501.473 236.527 501.699 236.527 501.97C236.527 502.189 236.581 502.402 236.688 502.607C236.8 502.812 236.978 502.983 237.22 503.118C237.468 503.253 237.794 503.321 238.2 503.321ZM247.814 504C247.389 504.089 246.969 504.124 246.554 504.105C246.143 504.086 245.774 503.998 245.448 503.839C245.126 503.68 244.881 503.433 244.713 503.097C244.577 502.817 244.503 502.535 244.489 502.25C244.479 501.961 244.475 501.632 244.475 501.263V494.34H245.497V501.221C245.497 501.538 245.499 501.804 245.504 502.019C245.513 502.229 245.562 502.416 245.651 502.579C245.819 502.892 246.085 503.078 246.449 503.139C246.817 503.2 247.272 503.186 247.814 503.097V504ZM242.858 497.322V496.44H247.814V497.322H242.858ZM252.229 504.21C251.491 504.21 250.852 504.047 250.311 503.72C249.774 503.393 249.356 502.934 249.058 502.341C248.759 501.748 248.61 501.053 248.61 500.255C248.61 499.429 248.757 498.715 249.051 498.113C249.345 497.511 249.758 497.047 250.29 496.72C250.826 496.393 251.459 496.23 252.187 496.23C252.933 496.23 253.57 496.403 254.098 496.748C254.625 497.089 255.024 497.579 255.295 498.218C255.565 498.857 255.689 499.62 255.666 500.507H254.616V500.143C254.597 499.163 254.385 498.423 253.979 497.924C253.577 497.425 252.989 497.175 252.215 497.175C251.403 497.175 250.78 497.439 250.346 497.966C249.916 498.493 249.702 499.245 249.702 500.22C249.702 501.172 249.916 501.912 250.346 502.439C250.78 502.962 251.393 503.223 252.187 503.223C252.728 503.223 253.199 503.099 253.601 502.852C254.007 502.6 254.326 502.238 254.56 501.767L255.519 502.138C255.22 502.796 254.779 503.307 254.196 503.671C253.617 504.03 252.961 504.21 252.229 504.21ZM249.338 500.507V499.646H255.113V500.507H249.338ZM265.482 504V500.143C265.482 499.723 265.442 499.338 265.363 498.988C265.284 498.633 265.155 498.325 264.978 498.064C264.805 497.798 264.579 497.593 264.299 497.448C264.024 497.303 263.688 497.231 263.291 497.231C262.927 497.231 262.605 497.294 262.325 497.42C262.05 497.546 261.816 497.728 261.625 497.966C261.438 498.199 261.296 498.484 261.198 498.82C261.1 499.156 261.051 499.539 261.051 499.968L260.323 499.807C260.323 499.032 260.458 498.381 260.729 497.854C261 497.327 261.373 496.928 261.849 496.657C262.325 496.386 262.871 496.251 263.487 496.251C263.94 496.251 264.334 496.321 264.67 496.461C265.011 496.601 265.298 496.79 265.531 497.028C265.769 497.266 265.96 497.539 266.105 497.847C266.25 498.15 266.355 498.475 266.42 498.82C266.485 499.161 266.518 499.501 266.518 499.842V504H265.482ZM260.015 504V496.44H260.946V498.302H261.051V504H260.015ZM268.474 495.005V493.85H269.503V495.005H268.474ZM268.474 504V496.44H269.503V504H268.474ZM271.742 495.005V493.85H272.771V495.005H271.742ZM271.742 504V496.44H272.771V504H271.742ZM277.873 507.57C277.485 507.57 277.103 507.512 276.725 507.395C276.351 507.283 276.006 507.103 275.689 506.856C275.371 506.613 275.105 506.296 274.891 505.904L275.822 505.386C276.032 505.806 276.326 506.107 276.704 506.289C277.086 506.476 277.476 506.569 277.873 506.569C278.419 506.569 278.86 506.466 279.196 506.261C279.536 506.06 279.784 505.762 279.938 505.365C280.092 504.968 280.166 504.474 280.162 503.881V501.865H280.281V496.44H281.198V503.895C281.198 504.11 281.191 504.315 281.177 504.511C281.167 504.712 281.146 504.908 281.114 505.099C281.025 505.664 280.841 506.128 280.561 506.492C280.285 506.856 279.921 507.127 279.469 507.304C279.021 507.481 278.489 507.57 277.873 507.57ZM277.803 504.21C277.098 504.21 276.496 504.035 275.997 503.685C275.497 503.33 275.115 502.852 274.849 502.25C274.583 501.648 274.45 500.969 274.45 500.213C274.45 499.462 274.58 498.785 274.842 498.183C275.108 497.581 275.488 497.105 275.983 496.755C276.477 496.405 277.07 496.23 277.761 496.23C278.47 496.23 279.067 496.403 279.553 496.748C280.038 497.093 280.404 497.567 280.652 498.169C280.904 498.766 281.03 499.448 281.03 500.213C281.03 500.964 280.906 501.643 280.659 502.25C280.411 502.852 280.047 503.33 279.567 503.685C279.086 504.035 278.498 504.21 277.803 504.21ZM277.908 503.251C278.444 503.251 278.888 503.12 279.238 502.859C279.588 502.598 279.849 502.238 280.022 501.781C280.194 501.319 280.281 500.796 280.281 500.213C280.281 499.62 280.194 499.098 280.022 498.645C279.849 498.188 279.588 497.831 279.238 497.574C278.892 497.317 278.456 497.189 277.929 497.189C277.387 497.189 276.939 497.322 276.585 497.588C276.23 497.854 275.966 498.216 275.794 498.673C275.626 499.13 275.542 499.644 275.542 500.213C275.542 500.787 275.628 501.305 275.801 501.767C275.978 502.224 276.242 502.586 276.592 502.852C276.942 503.118 277.38 503.251 277.908 503.251ZM288.615 504V500.143C288.615 499.723 288.575 499.338 288.496 498.988C288.416 498.633 288.288 498.325 288.111 498.064C287.938 497.798 287.712 497.593 287.432 497.448C287.156 497.303 286.82 497.231 286.424 497.231C286.06 497.231 285.738 497.294 285.458 497.42C285.182 497.546 284.949 497.728 284.758 497.966C284.571 498.199 284.429 498.484 284.331 498.82C284.233 499.156 284.184 499.539 284.184 499.968L283.456 499.807C283.456 499.032 283.591 498.381 283.862 497.854C284.132 497.327 284.506 496.928 284.982 496.657C285.458 496.386 286.004 496.251 286.62 496.251C287.072 496.251 287.467 496.321 287.803 496.461C288.143 496.601 288.43 496.79 288.664 497.028C288.902 497.266 289.093 497.539 289.238 497.847C289.382 498.15 289.487 498.475 289.553 498.82C289.618 499.161 289.651 499.501 289.651 499.842V504H288.615ZM283.148 504V493.92H284.079V499.611H284.184V504H283.148ZM295.583 504C295.159 504.089 294.739 504.124 294.323 504.105C293.913 504.086 293.544 503.998 293.217 503.839C292.895 503.68 292.65 503.433 292.482 503.097C292.347 502.817 292.272 502.535 292.258 502.25C292.249 501.961 292.244 501.632 292.244 501.263V494.34H293.266V501.221C293.266 501.538 293.269 501.804 293.273 502.019C293.283 502.229 293.332 502.416 293.42 502.579C293.588 502.892 293.854 503.078 294.218 503.139C294.587 503.2 295.042 503.186 295.583 503.097V504ZM290.627 497.322V496.44H295.583V497.322H290.627Z" fill="#4C463C"/>
<defs>
<clipPath id="clip0_185_815">
<rect width="24" height="24" fill="white" transform="translate(343 727)"/>
</clipPath>
</defs>
</svg>
