<svg width="390" height="772" viewBox="0 0 390 772" fill="none" xmlns="http://www.w3.org/2000/svg">
<rect width="390" height="772" fill="#F2ECDE"/>
<rect x="24" y="16" width="40" height="40" rx="12" fill="#EAE8E5"/>
<path d="M44 36C42.9 36 41.9583 35.6083 41.175 34.825C40.3917 34.0417 40 33.1 40 32C40 30.9 40.3917 29.9583 41.175 29.175C41.9583 28.3917 42.9 28 44 28C45.1 28 46.0417 28.3917 46.825 29.175C47.6083 29.9583 48 30.9 48 32C48 33.1 47.6083 34.0417 46.825 34.825C46.0417 35.6083 45.1 36 44 36ZM36 44V41.2C36 40.6333 36.1458 40.1125 36.4375 39.6375C36.7292 39.1625 37.1167 38.8 37.6 38.55C38.6333 38.0333 39.6833 37.6458 40.75 37.3875C41.8167 37.1292 42.9 37 44 37C45.1 37 46.1833 37.1292 47.25 37.3875C48.3167 37.6458 49.3667 38.0333 50.4 38.55C50.8833 38.8 51.2708 39.1625 51.5625 39.6375C51.8542 40.1125 52 40.6333 52 41.2V44H36ZM38 42H50V41.2C50 41.0167 49.9542 40.85 49.8625 40.7C49.7708 40.55 49.65 40.4333 49.5 40.35C48.6 39.9 47.6917 39.5625 46.775 39.3375C45.8583 39.1125 44.9333 39 44 39C43.0667 39 42.1417 39.1125 41.225 39.3375C40.3083 39.5625 39.4 39.9 38.5 40.35C38.35 40.4333 38.2292 40.55 38.1375 40.7C38.0458 40.85 38 41.0167 38 41.2V42ZM44 34C44.55 34 45.0208 33.8042 45.4125 33.4125C45.8042 33.0208 46 32.55 46 32C46 31.45 45.8042 30.9792 45.4125 30.5875C45.0208 30.1958 44.55 30 44 30C43.45 30 42.9792 30.1958 42.5875 30.5875C42.1958 30.9792 42 31.45 42 32C42 32.55 42.1958 33.0208 42.5875 33.4125C42.9792 33.8042 43.45 34 44 34Z" fill="#4C463C"/>
<path d="M86.73 44.3C85.6789 44.3 84.7317 44.1167 83.8883 43.75C83.045 43.3833 82.3517 42.8586 81.8083 42.1758C81.265 41.4931 80.9178 40.68 80.7667 39.7367L83.2733 39.36C83.4833 40.2134 83.92 40.8739 84.5833 41.3417C85.2466 41.8095 86.0122 42.0434 86.88 42.0434C87.3922 42.0434 87.8756 41.9628 88.33 41.8017C88.7844 41.6406 89.1531 41.4059 89.4358 41.0975C89.7186 40.7892 89.86 40.4145 89.86 39.9733C89.86 39.77 89.827 39.5842 89.7608 39.4158C89.6947 39.2475 89.5969 39.0964 89.4675 38.9625C89.3381 38.8286 89.1719 38.7072 88.9692 38.5983C88.7664 38.4894 88.5289 38.3933 88.2567 38.31L84.54 37.2133C84.22 37.1211 83.8744 36.9955 83.5033 36.8366C83.1322 36.6778 82.7822 36.4611 82.4533 36.1866C82.1244 35.9122 81.8544 35.5597 81.6433 35.1291C81.4322 34.6986 81.3267 34.1655 81.3267 33.53C81.3267 32.6022 81.5625 31.8242 82.0342 31.1958C82.5058 30.5675 83.1394 30.0958 83.935 29.7808C84.7305 29.4658 85.6167 29.3111 86.5933 29.3167C87.5778 29.3278 88.4572 29.4983 89.2316 29.8283C90.0061 30.1583 90.6525 30.6356 91.1708 31.26C91.6891 31.8844 92.0555 32.6422 92.27 33.5333L89.68 33.9767C89.5756 33.4711 89.3706 33.0408 89.065 32.6858C88.7595 32.3308 88.3886 32.0594 87.9525 31.8716C87.5164 31.6839 87.0522 31.5844 86.56 31.5733C86.0789 31.5622 85.6339 31.6325 85.225 31.7841C84.8161 31.9358 84.4863 32.1511 84.2358 32.43C83.9852 32.7089 83.86 33.0355 83.86 33.41C83.86 33.7667 83.9663 34.0556 84.1791 34.2767C84.3919 34.4978 84.6577 34.6742 84.9766 34.8058C85.2955 34.9375 85.6166 35.0467 85.94 35.1333L88.52 35.85C88.8733 35.9456 89.2694 36.0734 89.7083 36.2334C90.1472 36.3933 90.57 36.6164 90.9766 36.9025C91.3833 37.1886 91.7189 37.5653 91.9833 38.0325C92.2477 38.4997 92.38 39.0911 92.38 39.8067C92.38 40.5545 92.2258 41.2103 91.9175 41.7742C91.6091 42.3381 91.1905 42.8064 90.6616 43.1792C90.1328 43.5519 89.5297 43.8319 88.8525 44.0192C88.1753 44.2064 87.4678 44.3 86.73 44.3ZM96.5733 44.3C95.7889 44.3 95.1269 44.1519 94.5875 43.8558C94.0481 43.5597 93.6403 43.1647 93.3642 42.6708C93.0881 42.1769 92.95 41.6333 92.95 41.04C92.95 40.5178 93.0369 40.0497 93.2108 39.6358C93.3847 39.2219 93.652 38.8631 94.0125 38.5592C94.3731 38.2553 94.8378 38.0056 95.4067 37.81C95.8445 37.6667 96.3536 37.5397 96.9342 37.4292C97.5147 37.3186 98.1472 37.2147 98.8317 37.1175C99.5161 37.0203 100.233 36.9156 100.983 36.8033L100.117 37.2867C100.122 36.5411 99.9559 35.9914 99.6175 35.6375C99.2792 35.2836 98.7056 35.1066 97.8967 35.1066C97.4122 35.1066 96.9436 35.2208 96.4908 35.4491C96.038 35.6775 95.7211 36.0666 95.54 36.6167L93.3367 35.9267C93.6044 35.0156 94.1142 34.2833 94.8658 33.73C95.6175 33.1767 96.63 32.9 97.9033 32.9C98.8644 32.9 99.7089 33.0561 100.437 33.3683C101.164 33.6806 101.707 34.1945 102.063 34.91C102.257 35.2878 102.373 35.675 102.413 36.0717C102.453 36.4683 102.473 36.9022 102.473 37.3733V44H100.36V41.6567L100.71 42.0433C100.223 42.82 99.6547 43.3903 99.0042 43.7542C98.3536 44.1181 97.5433 44.3 96.5733 44.3ZM97.05 42.3767C97.5967 42.3767 98.0628 42.2797 98.4483 42.0859C98.8339 41.892 99.1422 41.6564 99.3734 41.3792C99.6045 41.1019 99.7589 40.8378 99.8367 40.5867C99.9622 40.28 100.035 39.9286 100.054 39.5325C100.074 39.1364 100.083 38.8144 100.083 38.5666L100.823 38.79C100.092 38.9066 99.4664 39.0072 98.9459 39.0916C98.4253 39.1761 97.9795 39.2564 97.6083 39.3325C97.2372 39.4086 96.9078 39.4944 96.62 39.59C96.3433 39.6922 96.108 39.8091 95.9141 39.9408C95.7203 40.0725 95.5716 40.2255 95.4683 40.4C95.365 40.5744 95.3133 40.7778 95.3133 41.01C95.3133 41.2733 95.3791 41.5081 95.5108 41.7142C95.6425 41.9203 95.8369 42.0822 96.0941 42.2C96.3514 42.3178 96.67 42.3767 97.05 42.3767ZM104.053 44L104.07 29.6H106.51V38.4L110.46 33.2H113.47L109.28 38.6L113.83 44H110.64L106.51 38.8V44H104.053ZM114.03 31.5633V29.35H116.437V31.5633H114.03ZM114.03 44V33.2H116.437V44H114.03ZM125.91 44V38.7967C125.91 38.4622 125.886 38.0883 125.838 37.675C125.789 37.2616 125.681 36.863 125.513 36.4791C125.346 36.0952 125.093 35.78 124.757 35.5333C124.42 35.2866 123.963 35.1633 123.387 35.1633C123.082 35.1633 122.78 35.213 122.481 35.3125C122.181 35.4119 121.911 35.5825 121.668 35.8241C121.426 36.0658 121.231 36.3994 121.084 36.825C120.937 37.2505 120.863 37.7922 120.863 38.45L119.433 37.8367C119.433 36.92 119.612 36.0875 119.968 35.3392C120.325 34.5908 120.849 33.9961 121.542 33.555C122.234 33.1139 123.088 32.8933 124.103 32.8933C124.9 32.8933 125.559 33.0256 126.079 33.29C126.6 33.5544 127.013 33.8942 127.32 34.3092C127.627 34.7242 127.853 35.1653 128 35.6325C128.147 36.0997 128.242 36.5419 128.285 36.9592C128.328 37.3764 128.35 37.7133 128.35 37.97V44H125.91ZM118.423 44V33.2H120.57V36.55H120.863V44H118.423ZM132.973 44.3C132.189 44.3 131.527 44.1519 130.987 43.8558C130.448 43.5597 130.04 43.1647 129.764 42.6708C129.488 42.1769 129.35 41.6333 129.35 41.04C129.35 40.5178 129.437 40.0497 129.611 39.6358C129.785 39.2219 130.052 38.8631 130.413 38.5592C130.773 38.2553 131.238 38.0056 131.807 37.81C132.244 37.6667 132.754 37.5397 133.334 37.4292C133.915 37.3186 134.547 37.2147 135.232 37.1175C135.916 37.0203 136.633 36.9156 137.383 36.8033L136.517 37.2867C136.522 36.5411 136.356 35.9914 136.018 35.6375C135.679 35.2836 135.106 35.1066 134.297 35.1066C133.812 35.1066 133.344 35.2208 132.891 35.4491C132.438 35.6775 132.121 36.0666 131.94 36.6167L129.737 35.9267C130.004 35.0156 130.514 34.2833 131.266 33.73C132.017 33.1767 133.03 32.9 134.303 32.9C135.264 32.9 136.109 33.0561 136.837 33.3683C137.564 33.6806 138.107 34.1945 138.463 34.91C138.657 35.2878 138.773 35.675 138.813 36.0717C138.853 36.4683 138.873 36.9022 138.873 37.3733V44H136.76V41.6567L137.11 42.0433C136.623 42.82 136.055 43.3903 135.404 43.7542C134.754 44.1181 133.943 44.3 132.973 44.3ZM133.45 42.3767C133.997 42.3767 134.463 42.2797 134.848 42.0859C135.234 41.892 135.542 41.6564 135.773 41.3792C136.004 41.1019 136.159 40.8378 136.237 40.5867C136.362 40.28 136.435 39.9286 136.454 39.5325C136.474 39.1364 136.483 38.8144 136.483 38.5666L137.223 38.79C136.492 38.9066 135.866 39.0072 135.346 39.0916C134.825 39.1761 134.379 39.2564 134.008 39.3325C133.637 39.4086 133.308 39.4944 133.02 39.59C132.743 39.6922 132.508 39.8091 132.314 39.9408C132.12 40.0725 131.972 40.2255 131.868 40.4C131.765 40.5744 131.713 40.7778 131.713 41.01C131.713 41.2733 131.779 41.5081 131.911 41.7142C132.042 41.9203 132.237 42.0822 132.494 42.2C132.751 42.3178 133.07 42.3767 133.45 42.3767Z" fill="#120A00"/>
<path d="M350 43V41H352V34C352 32.6167 352.417 31.3875 353.25 30.3125C354.083 29.2375 355.167 28.5333 356.5 28.2V27.5C356.5 27.0833 356.646 26.7292 356.938 26.4375C357.229 26.1458 357.583 26 358 26C358.417 26 358.771 26.1458 359.062 26.4375C359.354 26.7292 359.5 27.0833 359.5 27.5V28.2C360.833 28.5333 361.917 29.2375 362.75 30.3125C363.583 31.3875 364 32.6167 364 34V41H366V43H350ZM358 46C357.45 46 356.979 45.8042 356.588 45.4125C356.196 45.0208 356 44.55 356 44H360C360 44.55 359.804 45.0208 359.413 45.4125C359.021 45.8042 358.55 46 358 46ZM354 41H362V34C362 32.9 361.608 31.9583 360.825 31.175C360.042 30.3917 359.1 30 358 30C356.9 30 355.958 30.3917 355.175 31.175C354.392 31.9583 354 32.9 354 34V41Z" fill="#120A00"/>
<path d="M304.05 745V734.2H305.16L311.108 743.05V734.2H312.218V745H311.108L305.16 736.142V745H304.05ZM317.736 745.225C316.946 745.225 316.261 745.05 315.681 744.7C315.106 744.35 314.659 743.857 314.339 743.222C314.019 742.587 313.859 741.842 313.859 740.987C313.859 740.102 314.016 739.337 314.331 738.692C314.646 738.047 315.089 737.55 315.659 737.2C316.234 736.85 316.911 736.675 317.691 736.675C318.491 736.675 319.174 736.86 319.739 737.23C320.304 737.595 320.731 738.12 321.021 738.805C321.311 739.49 321.444 740.307 321.419 741.257H320.294V740.868C320.274 739.817 320.046 739.025 319.611 738.49C319.181 737.955 318.551 737.687 317.721 737.687C316.851 737.687 316.184 737.97 315.719 738.535C315.259 739.1 315.029 739.905 315.029 740.95C315.029 741.97 315.259 742.762 315.719 743.327C316.184 743.887 316.841 744.167 317.691 744.167C318.271 744.167 318.776 744.035 319.206 743.77C319.641 743.5 319.984 743.112 320.234 742.607L321.261 743.005C320.941 743.71 320.469 744.257 319.844 744.647C319.224 745.033 318.521 745.225 317.736 745.225ZM314.639 741.257V740.335H320.826V741.257H314.639ZM321.88 745L325.045 740.905L321.947 736.9H323.267L325.69 740.057L328.09 736.9H329.41L326.312 740.905L329.485 745H328.157L325.69 741.752L323.207 745H321.88ZM335.09 745C334.635 745.095 334.185 745.133 333.74 745.113C333.3 745.093 332.905 744.997 332.555 744.827C332.21 744.657 331.948 744.392 331.768 744.032C331.623 743.732 331.543 743.43 331.528 743.125C331.518 742.815 331.513 742.462 331.513 742.067V734.65H332.608V742.022C332.608 742.362 332.61 742.647 332.615 742.877C332.625 743.102 332.678 743.302 332.773 743.477C332.953 743.812 333.238 744.012 333.628 744.077C334.023 744.142 334.51 744.127 335.09 744.032V745ZM329.78 737.845V736.9H335.09V737.845H329.78Z" fill="#2C2005"/>
<g clip-path="url(#clip0_185_680)">
<path d="M359.01 738H348C347.45 738 347 738.45 347 739C347 739.55 347.45 740 348 740H359.01V741.79C359.01 742.24 359.55 742.46 359.86 742.14L362.64 739.35C362.83 739.15 362.83 738.84 362.64 738.64L359.86 735.85C359.55 735.53 359.01 735.76 359.01 736.2V738Z" fill="#2C2005"/>
</g>
<path d="M33.91 744V734.64H37.524C38.0483 734.64 38.5055 734.748 38.8955 734.965C39.2855 735.182 39.5888 735.474 39.8055 735.842C40.0222 736.206 40.1305 736.609 40.1305 737.051C40.1305 737.554 39.9962 738.003 39.7275 738.397C39.4588 738.787 39.0992 739.058 38.6485 739.209L38.6355 738.891C39.2422 739.064 39.7188 739.368 40.0655 739.801C40.4122 740.234 40.5855 740.759 40.5855 741.374C40.5855 741.916 40.4707 742.384 40.241 742.778C40.0113 743.168 39.6885 743.469 39.2725 743.681C38.8565 743.894 38.3733 744 37.823 744H33.91ZM34.872 743.083H37.589C37.9703 743.083 38.3127 743.016 38.616 742.882C38.9193 742.743 39.1577 742.548 39.331 742.297C39.5087 742.046 39.5975 741.742 39.5975 741.387C39.5975 741.04 39.5173 740.728 39.357 740.451C39.1967 740.174 38.9778 739.953 38.7005 739.788C38.4275 739.619 38.1155 739.534 37.7645 739.534H34.872V743.083ZM34.872 738.631H37.5175C37.8165 738.631 38.0895 738.564 38.3365 738.429C38.5835 738.291 38.7785 738.102 38.9215 737.864C39.0688 737.626 39.1425 737.35 39.1425 737.038C39.1425 736.596 38.9887 736.237 38.681 735.959C38.3777 735.682 37.9898 735.543 37.5175 735.543H34.872V738.631ZM43.8812 744.195C43.3525 744.195 42.9083 744.1 42.5487 743.909C42.1933 743.718 41.9268 743.465 41.7492 743.148C41.5715 742.832 41.4827 742.488 41.4827 742.115C41.4827 741.734 41.5585 741.409 41.7102 741.14C41.8662 740.867 42.0763 740.644 42.3407 740.47C42.6093 740.297 42.9192 740.165 43.2702 740.074C43.6255 739.987 44.0177 739.911 44.4467 739.846C44.88 739.777 45.3025 739.719 45.7142 739.671C46.1302 739.619 46.4942 739.569 46.8062 739.521L46.4682 739.729C46.4812 739.036 46.3468 738.523 46.0652 738.189C45.7835 737.855 45.2938 737.688 44.5962 737.688C44.1152 737.688 43.7078 737.797 43.3742 738.013C43.0448 738.23 42.813 738.572 42.6787 739.04L41.7492 738.767C41.9095 738.139 42.2323 737.652 42.7177 737.305C43.203 736.958 43.8335 736.785 44.6092 736.785C45.2505 736.785 45.7943 736.906 46.2407 737.149C46.6913 737.387 47.0098 737.734 47.1962 738.189C47.2828 738.393 47.3392 738.62 47.3652 738.871C47.3912 739.123 47.4042 739.378 47.4042 739.638V744H46.5527V742.238L46.7997 742.342C46.5613 742.945 46.1908 743.404 45.6882 743.72C45.1855 744.037 44.5832 744.195 43.8812 744.195ZM43.9917 743.369C44.438 743.369 44.828 743.289 45.1617 743.129C45.4953 742.969 45.764 742.75 45.9677 742.472C46.1713 742.191 46.3035 741.874 46.3642 741.523C46.4162 741.298 46.4443 741.051 46.4487 740.782C46.453 740.509 46.4552 740.306 46.4552 740.171L46.8192 740.36C46.4942 740.403 46.141 740.447 45.7597 740.49C45.3827 740.533 45.01 740.583 44.6417 740.639C44.2777 740.696 43.9483 740.763 43.6537 740.841C43.4543 740.897 43.2615 740.977 43.0752 741.081C42.8888 741.181 42.735 741.315 42.6137 741.484C42.4967 741.653 42.4382 741.864 42.4382 742.115C42.4382 742.319 42.488 742.516 42.5877 742.706C42.6917 742.897 42.8563 743.055 43.0817 743.181C43.3113 743.307 43.6147 743.369 43.9917 743.369ZM51.9983 744.195C51.292 744.195 50.694 744.037 50.2043 743.72C49.7146 743.404 49.342 742.969 49.0863 742.414C48.835 741.855 48.705 741.214 48.6963 740.49C48.705 739.753 48.8393 739.108 49.0993 738.553C49.3593 737.994 49.7341 737.561 50.2238 737.253C50.7135 736.941 51.3071 736.785 52.0048 736.785C52.7155 736.785 53.333 736.958 53.8573 737.305C54.386 737.652 54.7478 738.126 54.9428 738.728L54.0068 739.027C53.8421 738.607 53.58 738.282 53.2203 738.052C52.865 737.818 52.4576 737.701 51.9983 737.701C51.4826 737.701 51.0558 737.821 50.7178 738.059C50.3798 738.293 50.1285 738.62 49.9638 739.04C49.7991 739.461 49.7146 739.944 49.7103 740.49C49.719 741.331 49.914 742.007 50.2953 742.518C50.6766 743.025 51.2443 743.278 51.9983 743.278C52.475 743.278 52.8801 743.17 53.2138 742.953C53.5518 742.732 53.8075 742.412 53.9808 741.991L54.9428 742.277C54.6828 742.901 54.3015 743.378 53.7988 743.707C53.2961 744.033 52.696 744.195 51.9983 744.195ZM56.268 744L56.2745 734.64H57.2365V740.36L60.3695 736.98H61.6435L58.3545 740.49L62.0725 744H60.6815L57.2365 740.62V744H56.268Z" fill="#2C2005"/>
<rect x="24" y="402" width="342" height="124" rx="4" fill="#F5F3F0"/>
<path d="M48 446.5V443.5H63V446.5H48ZM64 446.5V443.5H65.5V446.5H64ZM66.5 446.5V443.5H68V446.5H66.5ZM64 442.5V441.2C64 440.55 63.8083 440.054 63.425 439.712C63.0417 439.371 62.5833 439.2 62.05 439.2H60.5C59.5667 439.2 58.775 438.875 58.125 438.225C57.475 437.575 57.15 436.783 57.15 435.85C57.15 434.917 57.475 434.125 58.125 433.475C58.775 432.825 59.5667 432.5 60.5 432.5V434C60 434 59.5667 434.175 59.2 434.525C58.8333 434.875 58.65 435.317 58.65 435.85C58.65 436.383 58.8333 436.825 59.2 437.175C59.5667 437.525 60 437.7 60.5 437.7H62.05C62.9833 437.7 63.7917 438 64.475 438.6C65.1583 439.2 65.5 439.95 65.5 440.85V442.5H64ZM66.5 442.5V440.25C66.5 439.15 66.1167 438.2 65.35 437.4C64.5833 436.6 63.6333 436.2 62.5 436.2V434.7C63 434.7 63.4333 434.517 63.8 434.15C64.1667 433.783 64.35 433.35 64.35 432.85C64.35 432.35 64.1667 431.917 63.8 431.55C63.4333 431.183 63 431 62.5 431V429.5C63.4333 429.5 64.225 429.825 64.875 430.475C65.525 431.125 65.85 431.917 65.85 432.85C65.85 433.333 65.7583 433.771 65.575 434.162C65.3917 434.554 65.15 434.917 64.85 435.25C65.7833 435.683 66.5417 436.35 67.125 437.25C67.7083 438.15 68 439.15 68 440.25V442.5H66.5Z" fill="#1B1C1A"/>
<path d="M85.12 444.24C84.3147 444.24 83.5893 444.107 82.944 443.84C82.304 443.568 81.7733 443.184 81.352 442.688C80.936 442.192 80.664 441.603 80.536 440.92L81.736 440.72C81.928 441.467 82.3333 442.053 82.952 442.48C83.5707 442.901 84.3093 443.112 85.168 443.112C85.7333 443.112 86.24 443.024 86.688 442.848C87.136 442.667 87.488 442.411 87.744 442.08C88 441.749 88.128 441.357 88.128 440.904C88.128 440.605 88.0747 440.352 87.968 440.144C87.8613 439.931 87.72 439.755 87.544 439.616C87.368 439.477 87.176 439.363 86.968 439.272C86.76 439.176 86.5573 439.099 86.36 439.04L83.44 438.168C83.088 438.067 82.7627 437.939 82.464 437.784C82.1653 437.624 81.904 437.435 81.68 437.216C81.4613 436.992 81.2907 436.731 81.168 436.432C81.0453 436.133 80.984 435.792 80.984 435.408C80.984 434.757 81.1547 434.195 81.496 433.72C81.8373 433.245 82.304 432.88 82.896 432.624C83.488 432.368 84.1627 432.243 84.92 432.248C85.688 432.248 86.3733 432.384 86.976 432.656C87.584 432.928 88.0853 433.317 88.48 433.824C88.8747 434.325 89.136 434.92 89.264 435.608L88.032 435.832C87.952 435.331 87.768 434.896 87.48 434.528C87.192 434.16 86.824 433.877 86.376 433.68C85.9333 433.477 85.4453 433.373 84.912 433.368C84.3947 433.368 83.9333 433.456 83.528 433.632C83.128 433.803 82.8107 434.037 82.576 434.336C82.3413 434.635 82.224 434.976 82.224 435.36C82.224 435.749 82.3307 436.061 82.544 436.296C82.7627 436.531 83.0293 436.715 83.344 436.848C83.664 436.981 83.9733 437.091 84.272 437.176L86.528 437.84C86.7627 437.904 87.0373 437.997 87.352 438.12C87.672 438.237 87.9813 438.408 88.28 438.632C88.584 438.851 88.8347 439.139 89.032 439.496C89.2293 439.853 89.328 440.307 89.328 440.856C89.328 441.389 89.2213 441.867 89.008 442.288C88.8 442.709 88.504 443.064 88.12 443.352C87.7413 443.64 87.296 443.859 86.784 444.008C86.2773 444.163 85.7227 444.24 85.12 444.24ZM101.283 444L101.291 438.328C101.291 437.661 101.105 437.139 100.731 436.76C100.363 436.376 99.894 436.184 99.3234 436.184C98.998 436.184 98.6807 436.259 98.3714 436.408C98.062 436.557 97.806 436.797 97.6034 437.128C97.406 437.459 97.3074 437.891 97.3074 438.424L96.6114 438.224C96.5954 437.605 96.7154 437.064 96.9714 436.6C97.2327 436.136 97.59 435.776 98.0434 435.52C98.502 435.259 99.0194 435.128 99.5954 435.128C100.465 435.128 101.161 435.397 101.683 435.936C102.206 436.469 102.467 437.192 102.467 438.104L102.459 444H101.283ZM90.9714 444V435.36H92.0274V437.488H92.1554V444H90.9714ZM96.1394 444L96.1474 438.408C96.1474 437.72 95.9634 437.179 95.5954 436.784C95.2327 436.384 94.7527 436.184 94.1554 436.184C93.558 436.184 93.0754 436.389 92.7074 436.8C92.3394 437.205 92.1554 437.747 92.1554 438.424L91.4514 438.04C91.4514 437.485 91.582 436.989 91.8434 436.552C92.1047 436.109 92.462 435.763 92.9154 435.512C93.3687 435.256 93.8834 435.128 94.4594 435.128C95.0087 435.128 95.4967 435.245 95.9234 435.48C96.3554 435.715 96.694 436.056 96.9394 436.504C97.1847 436.952 97.3074 437.496 97.3074 438.136L97.2994 444H96.1394ZM108.103 444.24C107.244 444.24 106.511 444.045 105.903 443.656C105.295 443.267 104.828 442.728 104.503 442.04C104.178 441.352 104.015 440.563 104.015 439.672C104.015 438.765 104.18 437.971 104.511 437.288C104.842 436.605 105.311 436.075 105.919 435.696C106.532 435.312 107.26 435.12 108.103 435.12C108.967 435.12 109.703 435.315 110.311 435.704C110.924 436.088 111.391 436.624 111.711 437.312C112.036 437.995 112.199 438.781 112.199 439.672C112.199 440.579 112.036 441.376 111.711 442.064C111.386 442.747 110.916 443.28 110.303 443.664C109.69 444.048 108.956 444.24 108.103 444.24ZM108.103 443.112C109.063 443.112 109.778 442.795 110.247 442.16C110.716 441.52 110.951 440.691 110.951 439.672C110.951 438.627 110.714 437.795 110.239 437.176C109.77 436.557 109.058 436.248 108.103 436.248C107.458 436.248 106.924 436.395 106.503 436.688C106.087 436.976 105.775 437.379 105.567 437.896C105.364 438.408 105.263 439 105.263 439.672C105.263 440.712 105.503 441.547 105.983 442.176C106.463 442.8 107.17 443.112 108.103 443.112ZM113.956 444L113.964 432.48H115.148V439.52L119.004 435.36H120.572L116.524 439.68L121.1 444H119.388L115.148 439.84V444H113.956ZM122.061 433.72V432.4H123.237V433.72H122.061ZM122.061 444V435.36H123.237V444H122.061ZM131.876 444V439.592C131.876 439.112 131.83 438.672 131.74 438.272C131.649 437.867 131.502 437.515 131.3 437.216C131.102 436.912 130.844 436.677 130.524 436.512C130.209 436.347 129.825 436.264 129.372 436.264C128.956 436.264 128.588 436.336 128.268 436.48C127.953 436.624 127.686 436.832 127.468 437.104C127.254 437.371 127.092 437.696 126.98 438.08C126.868 438.464 126.812 438.901 126.812 439.392L125.98 439.208C125.98 438.323 126.134 437.579 126.444 436.976C126.753 436.373 127.18 435.917 127.724 435.608C128.268 435.299 128.892 435.144 129.596 435.144C130.113 435.144 130.564 435.224 130.948 435.384C131.337 435.544 131.665 435.76 131.932 436.032C132.204 436.304 132.422 436.616 132.588 436.968C132.753 437.315 132.873 437.685 132.948 438.08C133.022 438.469 133.06 438.859 133.06 439.248V444H131.876ZM125.628 444V435.36H126.692V437.488H126.812V444H125.628ZM138.568 448.08C138.125 448.08 137.688 448.013 137.256 447.88C136.829 447.752 136.434 447.547 136.072 447.264C135.709 446.987 135.405 446.624 135.16 446.176L136.224 445.584C136.464 446.064 136.8 446.408 137.232 446.616C137.669 446.829 138.114 446.936 138.568 446.936C139.192 446.936 139.696 446.819 140.08 446.584C140.469 446.355 140.752 446.013 140.928 445.56C141.104 445.107 141.189 444.541 141.184 443.864V441.56H141.32V435.36H142.368V443.88C142.368 444.125 142.36 444.36 142.344 444.584C142.333 444.813 142.309 445.037 142.272 445.256C142.17 445.901 141.96 446.432 141.64 446.848C141.325 447.264 140.909 447.573 140.392 447.776C139.88 447.979 139.272 448.08 138.568 448.08ZM138.488 444.24C137.682 444.24 136.994 444.04 136.424 443.64C135.853 443.235 135.416 442.688 135.112 442C134.808 441.312 134.656 440.536 134.656 439.672C134.656 438.813 134.805 438.04 135.104 437.352C135.408 436.664 135.842 436.12 136.408 435.72C136.973 435.32 137.65 435.12 138.44 435.12C139.25 435.12 139.933 435.317 140.488 435.712C141.042 436.107 141.461 436.648 141.744 437.336C142.032 438.019 142.176 438.797 142.176 439.672C142.176 440.531 142.034 441.307 141.752 442C141.469 442.688 141.053 443.235 140.504 443.64C139.954 444.04 139.282 444.24 138.488 444.24ZM138.608 443.144C139.221 443.144 139.728 442.995 140.128 442.696C140.528 442.397 140.826 441.987 141.024 441.464C141.221 440.936 141.32 440.339 141.32 439.672C141.32 438.995 141.221 438.397 141.024 437.88C140.826 437.357 140.528 436.949 140.128 436.656C139.733 436.363 139.234 436.216 138.632 436.216C138.013 436.216 137.501 436.368 137.096 436.672C136.69 436.976 136.389 437.389 136.192 437.912C136 438.435 135.904 439.021 135.904 439.672C135.904 440.328 136.002 440.92 136.2 441.448C136.402 441.971 136.704 442.384 137.104 442.688C137.504 442.992 138.005 443.144 138.608 443.144Z" fill="#1B1C1A"/>
<rect x="48" y="466" width="143" height="36" rx="18" fill="#2C2005"/>
<path d="M80.6952 489V478.92H81.7312L87.2822 487.18V478.92H88.3182V489H87.2822L81.7312 480.733V489H80.6952ZM93.4362 489.21C92.6848 489.21 92.0432 489.04 91.5112 488.699C90.9792 488.358 90.5708 487.887 90.2862 487.285C90.0015 486.683 89.8592 485.992 89.8592 485.213C89.8592 484.42 90.0038 483.724 90.2932 483.127C90.5825 482.53 90.9932 482.065 91.5252 481.734C92.0618 481.398 92.6988 481.23 93.4362 481.23C94.1922 481.23 94.8362 481.4 95.3682 481.741C95.9048 482.077 96.3132 482.546 96.5932 483.148C96.8778 483.745 97.0202 484.434 97.0202 485.213C97.0202 486.006 96.8778 486.704 96.5932 487.306C96.3085 487.903 95.8978 488.37 95.3612 488.706C94.8245 489.042 94.1828 489.21 93.4362 489.21ZM93.4362 488.223C94.2762 488.223 94.9015 487.945 95.3122 487.39C95.7228 486.83 95.9282 486.104 95.9282 485.213C95.9282 484.298 95.7205 483.57 95.3052 483.029C94.8945 482.488 94.2715 482.217 93.4362 482.217C92.8715 482.217 92.4048 482.345 92.0362 482.602C91.6722 482.854 91.3992 483.206 91.2172 483.659C91.0398 484.107 90.9512 484.625 90.9512 485.213C90.9512 486.123 91.1612 486.853 91.5812 487.404C92.0012 487.95 92.6195 488.223 93.4362 488.223ZM104.024 489V485.143C104.024 484.723 103.985 484.338 103.905 483.988C103.826 483.633 103.698 483.325 103.52 483.064C103.348 482.798 103.121 482.593 102.841 482.448C102.566 482.303 102.23 482.231 101.833 482.231C101.469 482.231 101.147 482.294 100.867 482.42C100.592 482.546 100.359 482.728 100.167 482.966C99.9807 483.199 99.8383 483.484 99.7403 483.82C99.6423 484.156 99.5933 484.539 99.5933 484.968L98.8653 484.807C98.8653 484.032 99.0007 483.381 99.2713 482.854C99.542 482.327 99.9153 481.928 100.391 481.657C100.867 481.386 101.413 481.251 102.029 481.251C102.482 481.251 102.876 481.321 103.212 481.461C103.553 481.601 103.84 481.79 104.073 482.028C104.311 482.266 104.503 482.539 104.647 482.847C104.792 483.15 104.897 483.475 104.962 483.82C105.028 484.161 105.06 484.501 105.06 484.842V489H104.024ZM98.5573 489V481.44H99.4883V483.302H99.5933V489H98.5573ZM106.737 485.031V484.149H110.937V485.031H106.737ZM115.577 489.203C114.69 489.203 113.96 489.012 113.386 488.629C112.816 488.246 112.466 487.714 112.336 487.033L113.386 486.858C113.498 487.287 113.752 487.63 114.149 487.887C114.55 488.139 115.045 488.265 115.633 488.265C116.207 488.265 116.659 488.146 116.991 487.908C117.322 487.665 117.488 487.336 117.488 486.921C117.488 486.688 117.434 486.499 117.327 486.354C117.224 486.205 117.012 486.067 116.69 485.941C116.368 485.815 115.887 485.666 115.248 485.493C114.562 485.306 114.025 485.12 113.638 484.933C113.25 484.746 112.975 484.532 112.812 484.289C112.648 484.042 112.567 483.741 112.567 483.386C112.567 482.957 112.688 482.581 112.931 482.259C113.173 481.932 113.509 481.68 113.939 481.503C114.368 481.321 114.867 481.23 115.437 481.23C116.006 481.23 116.515 481.323 116.963 481.51C117.415 481.692 117.779 481.949 118.055 482.28C118.33 482.611 118.493 482.996 118.545 483.435L117.495 483.624C117.425 483.181 117.203 482.831 116.83 482.574C116.461 482.313 115.992 482.177 115.423 482.168C114.886 482.154 114.45 482.257 114.114 482.476C113.778 482.691 113.61 482.978 113.61 483.337C113.61 483.538 113.67 483.71 113.792 483.855C113.913 483.995 114.132 484.128 114.45 484.254C114.772 484.38 115.229 484.518 115.822 484.667C116.517 484.844 117.063 485.031 117.46 485.227C117.856 485.423 118.139 485.654 118.307 485.92C118.475 486.186 118.559 486.515 118.559 486.907C118.559 487.621 118.293 488.183 117.761 488.594C117.233 489 116.505 489.203 115.577 489.203ZM129.127 489L129.134 484.037C129.134 483.454 128.971 482.996 128.644 482.665C128.322 482.329 127.912 482.161 127.412 482.161C127.128 482.161 126.85 482.226 126.579 482.357C126.309 482.488 126.085 482.698 125.907 482.987C125.735 483.276 125.648 483.654 125.648 484.121L125.039 483.946C125.025 483.405 125.13 482.931 125.354 482.525C125.583 482.119 125.896 481.804 126.292 481.58C126.694 481.351 127.146 481.237 127.65 481.237C128.411 481.237 129.02 481.473 129.477 481.944C129.935 482.411 130.163 483.043 130.163 483.841L130.156 489H129.127ZM120.104 489V481.44H121.028V483.302H121.14V489H120.104ZM124.626 489L124.633 484.107C124.633 483.505 124.472 483.031 124.15 482.686C123.833 482.336 123.413 482.161 122.89 482.161C122.368 482.161 121.945 482.341 121.623 482.7C121.301 483.055 121.14 483.528 121.14 484.121L120.524 483.785C120.524 483.3 120.639 482.866 120.867 482.483C121.096 482.096 121.409 481.792 121.805 481.573C122.202 481.349 122.652 481.237 123.156 481.237C123.637 481.237 124.064 481.34 124.437 481.545C124.815 481.75 125.112 482.049 125.326 482.441C125.541 482.833 125.648 483.309 125.648 483.869L125.641 489H124.626ZM135.094 489.21C134.343 489.21 133.701 489.04 133.169 488.699C132.637 488.358 132.229 487.887 131.944 487.285C131.66 486.683 131.517 485.992 131.517 485.213C131.517 484.42 131.662 483.724 131.951 483.127C132.241 482.53 132.651 482.065 133.183 481.734C133.72 481.398 134.357 481.23 135.094 481.23C135.85 481.23 136.494 481.4 137.026 481.741C137.563 482.077 137.971 482.546 138.251 483.148C138.536 483.745 138.678 484.434 138.678 485.213C138.678 486.006 138.536 486.704 138.251 487.306C137.967 487.903 137.556 488.37 137.019 488.706C136.483 489.042 135.841 489.21 135.094 489.21ZM135.094 488.223C135.934 488.223 136.56 487.945 136.97 487.39C137.381 486.83 137.586 486.104 137.586 485.213C137.586 484.298 137.379 483.57 136.963 483.029C136.553 482.488 135.93 482.217 135.094 482.217C134.53 482.217 134.063 482.345 133.694 482.602C133.33 482.854 133.057 483.206 132.875 483.659C132.698 484.107 132.609 484.625 132.609 485.213C132.609 486.123 132.819 486.853 133.239 487.404C133.659 487.95 134.278 488.223 135.094 488.223ZM140.216 489L140.223 478.92H141.259V485.08L144.633 481.44H146.005L142.463 485.22L146.467 489H144.969L141.259 485.36V489H140.216ZM150.23 489.21C149.493 489.21 148.853 489.047 148.312 488.72C147.775 488.393 147.358 487.934 147.059 487.341C146.76 486.748 146.611 486.053 146.611 485.255C146.611 484.429 146.758 483.715 147.052 483.113C147.346 482.511 147.759 482.047 148.291 481.72C148.828 481.393 149.46 481.23 150.188 481.23C150.935 481.23 151.572 481.403 152.099 481.748C152.626 482.089 153.025 482.579 153.296 483.218C153.567 483.857 153.69 484.62 153.667 485.507H152.617V485.143C152.598 484.163 152.386 483.423 151.98 482.924C151.579 482.425 150.991 482.175 150.216 482.175C149.404 482.175 148.781 482.439 148.347 482.966C147.918 483.493 147.703 484.245 147.703 485.22C147.703 486.172 147.918 486.912 148.347 487.439C148.781 487.962 149.395 488.223 150.188 488.223C150.729 488.223 151.201 488.099 151.602 487.852C152.008 487.6 152.328 487.238 152.561 486.767L153.52 487.138C153.221 487.796 152.78 488.307 152.197 488.671C151.618 489.03 150.963 489.21 150.23 489.21ZM147.339 485.507V484.646H153.114V485.507H147.339ZM155.221 489V481.44H156.145V483.26L155.963 483.022C156.047 482.798 156.156 482.593 156.292 482.406C156.427 482.215 156.574 482.058 156.733 481.937C156.929 481.764 157.157 481.634 157.419 481.545C157.68 481.452 157.944 481.398 158.21 481.384C158.476 481.365 158.718 481.384 158.938 481.44V482.406C158.662 482.336 158.361 482.32 158.035 482.357C157.708 482.394 157.407 482.525 157.132 482.749C156.88 482.945 156.691 483.181 156.565 483.456C156.439 483.727 156.355 484.016 156.313 484.324C156.271 484.627 156.25 484.928 156.25 485.227V489H155.221Z" fill="white"/>
<rect x="199" y="466" width="143" height="36" rx="18" fill="#E4E2DF"/>
<path d="M250.589 489.21C249.885 489.21 249.25 489.093 248.685 488.86C248.125 488.622 247.661 488.286 247.292 487.852C246.928 487.418 246.69 486.902 246.578 486.305L247.628 486.13C247.796 486.783 248.151 487.297 248.692 487.67C249.234 488.039 249.88 488.223 250.631 488.223C251.126 488.223 251.569 488.146 251.961 487.992C252.353 487.833 252.661 487.609 252.885 487.32C253.109 487.031 253.221 486.688 253.221 486.291C253.221 486.03 253.175 485.808 253.081 485.626C252.988 485.439 252.864 485.285 252.71 485.164C252.556 485.043 252.388 484.942 252.206 484.863C252.024 484.779 251.847 484.711 251.674 484.66L249.119 483.897C248.811 483.808 248.527 483.696 248.265 483.561C248.004 483.421 247.775 483.255 247.579 483.064C247.388 482.868 247.239 482.639 247.131 482.378C247.024 482.117 246.97 481.818 246.97 481.482C246.97 480.913 247.12 480.42 247.418 480.005C247.717 479.59 248.125 479.27 248.643 479.046C249.161 478.822 249.752 478.712 250.414 478.717C251.086 478.717 251.686 478.836 252.213 479.074C252.745 479.312 253.184 479.653 253.529 480.096C253.875 480.535 254.103 481.055 254.215 481.657L253.137 481.853C253.067 481.414 252.906 481.034 252.654 480.712C252.402 480.39 252.08 480.143 251.688 479.97C251.301 479.793 250.874 479.702 250.407 479.697C249.955 479.697 249.551 479.774 249.196 479.928C248.846 480.077 248.569 480.283 248.363 480.544C248.158 480.805 248.055 481.104 248.055 481.44C248.055 481.781 248.149 482.054 248.335 482.259C248.527 482.464 248.76 482.625 249.035 482.742C249.315 482.859 249.586 482.954 249.847 483.029L251.821 483.61C252.027 483.666 252.267 483.748 252.542 483.855C252.822 483.958 253.093 484.107 253.354 484.303C253.62 484.494 253.84 484.746 254.012 485.059C254.185 485.372 254.271 485.768 254.271 486.249C254.271 486.716 254.178 487.133 253.991 487.502C253.809 487.871 253.55 488.181 253.214 488.433C252.883 488.685 252.493 488.876 252.045 489.007C251.602 489.142 251.117 489.21 250.589 489.21ZM264.732 489L264.739 484.037C264.739 483.454 264.576 482.996 264.249 482.665C263.927 482.329 263.517 482.161 263.017 482.161C262.733 482.161 262.455 482.226 262.184 482.357C261.914 482.488 261.69 482.698 261.512 482.987C261.34 483.276 261.253 483.654 261.253 484.121L260.644 483.946C260.63 483.405 260.735 482.931 260.959 482.525C261.188 482.119 261.501 481.804 261.897 481.58C262.299 481.351 262.751 481.237 263.255 481.237C264.016 481.237 264.625 481.473 265.082 481.944C265.54 482.411 265.768 483.043 265.768 483.841L265.761 489H264.732ZM255.709 489V481.44H256.633V483.302H256.745V489H255.709ZM260.231 489L260.238 484.107C260.238 483.505 260.077 483.031 259.755 482.686C259.438 482.336 259.018 482.161 258.495 482.161C257.973 482.161 257.55 482.341 257.228 482.7C256.906 483.055 256.745 483.528 256.745 484.121L256.129 483.785C256.129 483.3 256.244 482.866 256.472 482.483C256.701 482.096 257.014 481.792 257.41 481.573C257.807 481.349 258.257 481.237 258.761 481.237C259.242 481.237 259.669 481.34 260.042 481.545C260.42 481.75 260.717 482.049 260.931 482.441C261.146 482.833 261.253 483.309 261.253 483.869L261.246 489H260.231ZM270.7 489.21C269.948 489.21 269.307 489.04 268.775 488.699C268.243 488.358 267.834 487.887 267.55 487.285C267.265 486.683 267.123 485.992 267.123 485.213C267.123 484.42 267.267 483.724 267.557 483.127C267.846 482.53 268.257 482.065 268.789 481.734C269.325 481.398 269.962 481.23 270.7 481.23C271.456 481.23 272.1 481.4 272.632 481.741C273.168 482.077 273.577 482.546 273.857 483.148C274.141 483.745 274.284 484.434 274.284 485.213C274.284 486.006 274.141 486.704 273.857 487.306C273.572 487.903 273.161 488.37 272.625 488.706C272.088 489.042 271.446 489.21 270.7 489.21ZM270.7 488.223C271.54 488.223 272.165 487.945 272.576 487.39C272.986 486.83 273.192 486.104 273.192 485.213C273.192 484.298 272.984 483.57 272.569 483.029C272.158 482.488 271.535 482.217 270.7 482.217C270.135 482.217 269.668 482.345 269.3 482.602C268.936 482.854 268.663 483.206 268.481 483.659C268.303 484.107 268.215 484.625 268.215 485.213C268.215 486.123 268.425 486.853 268.845 487.404C269.265 487.95 269.883 488.223 270.7 488.223ZM275.821 489L275.828 478.92H276.864V485.08L280.238 481.44H281.61L278.068 485.22L282.072 489H280.574L276.864 485.36V489H275.821ZM285.835 489.21C285.098 489.21 284.459 489.047 283.917 488.72C283.381 488.393 282.963 487.934 282.664 487.341C282.366 486.748 282.216 486.053 282.216 485.255C282.216 484.429 282.363 483.715 282.657 483.113C282.951 482.511 283.364 482.047 283.896 481.72C284.433 481.393 285.065 481.23 285.793 481.23C286.54 481.23 287.177 481.403 287.704 481.748C288.232 482.089 288.631 482.579 288.901 483.218C289.172 483.857 289.296 484.62 289.272 485.507H288.222V485.143C288.204 484.163 287.991 483.423 287.585 482.924C287.184 482.425 286.596 482.175 285.821 482.175C285.009 482.175 284.386 482.439 283.952 482.966C283.523 483.493 283.308 484.245 283.308 485.22C283.308 486.172 283.523 486.912 283.952 487.439C284.386 487.962 285 488.223 285.793 488.223C286.335 488.223 286.806 488.099 287.207 487.852C287.613 487.6 287.933 487.238 288.166 486.767L289.125 487.138C288.827 487.796 288.386 488.307 287.802 488.671C287.224 489.03 286.568 489.21 285.835 489.21ZM282.944 485.507V484.646H288.719V485.507H282.944ZM290.826 489V481.44H291.75V483.26L291.568 483.022C291.652 482.798 291.761 482.593 291.897 482.406C292.032 482.215 292.179 482.058 292.338 481.937C292.534 481.764 292.762 481.634 293.024 481.545C293.285 481.452 293.549 481.398 293.815 481.384C294.081 481.365 294.323 481.384 294.543 481.44V482.406C294.267 482.336 293.966 482.32 293.64 482.357C293.313 482.394 293.012 482.525 292.737 482.749C292.485 482.945 292.296 483.181 292.17 483.456C292.044 483.727 291.96 484.016 291.918 484.324C291.876 484.627 291.855 484.928 291.855 485.227V489H290.826Z" fill="#1B1C1A"/>
<rect x="20" y="162" width="342" height="124" rx="4" fill="#F5F3F0"/>
<path d="M46.5 197.5C45.8 197.5 45.2083 197.258 44.725 196.775C44.2417 196.292 44 195.7 44 195C44 194.3 44.2417 193.708 44.725 193.225C45.2083 192.742 45.8 192.5 46.5 192.5C47.2 192.5 47.7917 192.742 48.275 193.225C48.7583 193.708 49 194.3 49 195C49 195.7 48.7583 196.292 48.275 196.775C47.7917 197.258 47.2 197.5 46.5 197.5ZM51 193.5C50.3 193.5 49.7083 193.258 49.225 192.775C48.7417 192.292 48.5 191.7 48.5 191C48.5 190.3 48.7417 189.708 49.225 189.225C49.7083 188.742 50.3 188.5 51 188.5C51.7 188.5 52.2917 188.742 52.775 189.225C53.2583 189.708 53.5 190.3 53.5 191C53.5 191.7 53.2583 192.292 52.775 192.775C52.2917 193.258 51.7 193.5 51 193.5ZM57 193.5C56.3 193.5 55.7083 193.258 55.225 192.775C54.7417 192.292 54.5 191.7 54.5 191C54.5 190.3 54.7417 189.708 55.225 189.225C55.7083 188.742 56.3 188.5 57 188.5C57.7 188.5 58.2917 188.742 58.775 189.225C59.2583 189.708 59.5 190.3 59.5 191C59.5 191.7 59.2583 192.292 58.775 192.775C58.2917 193.258 57.7 193.5 57 193.5ZM61.5 197.5C60.8 197.5 60.2083 197.258 59.725 196.775C59.2417 196.292 59 195.7 59 195C59 194.3 59.2417 193.708 59.725 193.225C60.2083 192.742 60.8 192.5 61.5 192.5C62.2 192.5 62.7917 192.742 63.275 193.225C63.7583 193.708 64 194.3 64 195C64 195.7 63.7583 196.292 63.275 196.775C62.7917 197.258 62.2 197.5 61.5 197.5ZM48.65 207.5C47.9 207.5 47.2708 207.213 46.7625 206.638C46.2542 206.062 46 205.383 46 204.6C46 203.733 46.2958 202.975 46.8875 202.325C47.4792 201.675 48.0667 201.033 48.65 200.4C49.1333 199.883 49.55 199.321 49.9 198.712C50.25 198.104 50.6667 197.533 51.15 197C51.5167 196.567 51.9417 196.208 52.425 195.925C52.9083 195.642 53.4333 195.5 54 195.5C54.5667 195.5 55.0917 195.633 55.575 195.9C56.0583 196.167 56.4833 196.517 56.85 196.95C57.3167 197.483 57.7292 198.058 58.0875 198.675C58.4458 199.292 58.8667 199.867 59.35 200.4C59.9333 201.033 60.5208 201.675 61.1125 202.325C61.7042 202.975 62 203.733 62 204.6C62 205.383 61.7458 206.062 61.2375 206.638C60.7292 207.213 60.1 207.5 59.35 207.5C58.45 207.5 57.5583 207.425 56.675 207.275C55.7917 207.125 54.9 207.05 54 207.05C53.1 207.05 52.2083 207.125 51.325 207.275C50.4417 207.425 49.55 207.5 48.65 207.5Z" fill="#1B1C1A"/>
<path d="M77.12 204V192.48H81.568C81.68 192.48 81.8053 192.485 81.944 192.496C82.088 192.501 82.232 192.517 82.376 192.544C82.9787 192.635 83.488 192.845 83.904 193.176C84.3253 193.501 84.6427 193.912 84.856 194.408C85.0747 194.904 85.184 195.453 85.184 196.056C85.184 196.653 85.0747 197.2 84.856 197.696C84.6373 198.192 84.3173 198.605 83.896 198.936C83.48 199.261 82.9733 199.469 82.376 199.56C82.232 199.581 82.088 199.597 81.944 199.608C81.8053 199.619 81.68 199.624 81.568 199.624H78.296V204H77.12ZM78.296 198.504H81.536C81.632 198.504 81.744 198.499 81.872 198.488C82 198.477 82.1253 198.459 82.248 198.432C82.6427 198.347 82.9653 198.184 83.216 197.944C83.472 197.704 83.6613 197.419 83.784 197.088C83.912 196.757 83.976 196.413 83.976 196.056C83.976 195.699 83.912 195.355 83.784 195.024C83.6613 194.688 83.472 194.4 83.216 194.16C82.9653 193.92 82.6427 193.757 82.248 193.672C82.1253 193.645 82 193.629 81.872 193.624C81.744 193.613 81.632 193.608 81.536 193.608H78.296V198.504ZM90.3854 204.24C89.5427 204.24 88.812 204.053 88.1934 203.68C87.58 203.307 87.1027 202.781 86.7614 202.104C86.42 201.427 86.2494 200.632 86.2494 199.72C86.2494 198.776 86.4174 197.96 86.7534 197.272C87.0894 196.584 87.5614 196.053 88.1694 195.68C88.7827 195.307 89.5054 195.12 90.3374 195.12C91.1907 195.12 91.9187 195.317 92.5214 195.712C93.124 196.101 93.58 196.661 93.8894 197.392C94.1987 198.123 94.34 198.995 94.3134 200.008H93.1134V199.592C93.092 198.472 92.8494 197.627 92.3854 197.056C91.9267 196.485 91.2547 196.2 90.3694 196.2C89.4414 196.2 88.7294 196.501 88.2334 197.104C87.7427 197.707 87.4974 198.565 87.4974 199.68C87.4974 200.768 87.7427 201.613 88.2334 202.216C88.7294 202.813 89.4307 203.112 90.3374 203.112C90.956 203.112 91.4947 202.971 91.9534 202.688C92.4174 202.4 92.7827 201.987 93.0494 201.448L94.1454 201.872C93.804 202.624 93.3 203.208 92.6334 203.624C91.972 204.035 91.2227 204.24 90.3854 204.24ZM87.0814 200.008V199.024H93.6814V200.008H87.0814ZM100.793 204C100.307 204.101 99.8274 204.141 99.3528 204.12C98.8834 204.099 98.4621 203.997 98.0888 203.816C97.7208 203.635 97.4408 203.352 97.2488 202.968C97.0941 202.648 97.0088 202.325 96.9928 202C96.9821 201.669 96.9768 201.293 96.9768 200.872V192.96H98.1448V200.824C98.1448 201.187 98.1474 201.491 98.1528 201.736C98.1634 201.976 98.2194 202.189 98.3208 202.376C98.5128 202.733 98.8168 202.947 99.2328 203.016C99.6541 203.085 100.174 203.069 100.793 202.968V204ZM95.1288 196.368V195.36H100.793V196.368H95.1288ZM105.719 204.232C104.706 204.232 103.871 204.013 103.215 203.576C102.564 203.139 102.164 202.531 102.015 201.752L103.215 201.552C103.343 202.043 103.634 202.435 104.087 202.728C104.546 203.016 105.111 203.16 105.783 203.16C106.439 203.16 106.956 203.024 107.335 202.752C107.714 202.475 107.903 202.099 107.903 201.624C107.903 201.357 107.842 201.141 107.719 200.976C107.602 200.805 107.359 200.648 106.991 200.504C106.623 200.36 106.074 200.189 105.343 199.992C104.559 199.779 103.946 199.565 103.503 199.352C103.06 199.139 102.746 198.893 102.559 198.616C102.372 198.333 102.279 197.989 102.279 197.584C102.279 197.093 102.418 196.664 102.695 196.296C102.972 195.923 103.356 195.635 103.847 195.432C104.338 195.224 104.908 195.12 105.559 195.12C106.21 195.12 106.791 195.227 107.303 195.44C107.82 195.648 108.236 195.941 108.551 196.32C108.866 196.699 109.052 197.139 109.111 197.64L107.911 197.856C107.831 197.349 107.578 196.949 107.151 196.656C106.73 196.357 106.194 196.203 105.543 196.192C104.93 196.176 104.431 196.293 104.047 196.544C103.663 196.789 103.471 197.117 103.471 197.528C103.471 197.757 103.54 197.955 103.679 198.12C103.818 198.28 104.068 198.432 104.431 198.576C104.799 198.72 105.322 198.877 105.999 199.048C106.794 199.251 107.418 199.464 107.871 199.688C108.324 199.912 108.647 200.176 108.839 200.48C109.031 200.784 109.127 201.16 109.127 201.608C109.127 202.424 108.823 203.067 108.215 203.536C107.612 204 106.78 204.232 105.719 204.232Z" fill="#1B1C1A"/>
<rect x="44" y="226" width="143" height="36" rx="18" fill="#E4E2DF"/>
<path d="M99.3154 249V238.92H100.351L105.902 247.18V238.92H106.938V249H105.902L100.351 240.733V249H99.3154ZM112.056 249.21C111.305 249.21 110.663 249.04 110.131 248.699C109.599 248.358 109.191 247.887 108.906 247.285C108.622 246.683 108.479 245.992 108.479 245.213C108.479 244.42 108.624 243.724 108.913 243.127C109.203 242.53 109.613 242.065 110.145 241.734C110.682 241.398 111.319 241.23 112.056 241.23C112.812 241.23 113.456 241.4 113.988 241.741C114.525 242.077 114.933 242.546 115.213 243.148C115.498 243.745 115.64 244.434 115.64 245.213C115.64 246.006 115.498 246.704 115.213 247.306C114.929 247.903 114.518 248.37 113.981 248.706C113.445 249.042 112.803 249.21 112.056 249.21ZM112.056 248.223C112.896 248.223 113.522 247.945 113.932 247.39C114.343 246.83 114.548 246.104 114.548 245.213C114.548 244.298 114.341 243.57 113.925 243.029C113.515 242.488 112.892 242.217 112.056 242.217C111.492 242.217 111.025 242.345 110.656 242.602C110.292 242.854 110.019 243.206 109.837 243.659C109.66 244.107 109.571 244.625 109.571 245.213C109.571 246.123 109.781 246.853 110.201 247.404C110.621 247.95 111.24 248.223 112.056 248.223ZM122.644 249V245.143C122.644 244.723 122.605 244.338 122.525 243.988C122.446 243.633 122.318 243.325 122.14 243.064C121.968 242.798 121.741 242.593 121.461 242.448C121.186 242.303 120.85 242.231 120.453 242.231C120.089 242.231 119.767 242.294 119.487 242.42C119.212 242.546 118.979 242.728 118.787 242.966C118.601 243.199 118.458 243.484 118.36 243.82C118.262 244.156 118.213 244.539 118.213 244.968L117.485 244.807C117.485 244.032 117.621 243.381 117.891 242.854C118.162 242.327 118.535 241.928 119.011 241.657C119.487 241.386 120.033 241.251 120.649 241.251C121.102 241.251 121.496 241.321 121.832 241.461C122.173 241.601 122.46 241.79 122.693 242.028C122.931 242.266 123.123 242.539 123.267 242.847C123.412 243.15 123.517 243.475 123.582 243.82C123.648 244.161 123.68 244.501 123.68 244.842V249H122.644ZM117.177 249V241.44H118.108V243.302H118.213V249H117.177ZM128.655 249.21C127.918 249.21 127.278 249.047 126.737 248.72C126.2 248.393 125.783 247.934 125.484 247.341C125.185 246.748 125.036 246.053 125.036 245.255C125.036 244.429 125.183 243.715 125.477 243.113C125.771 242.511 126.184 242.047 126.716 241.72C127.253 241.393 127.885 241.23 128.613 241.23C129.36 241.23 129.997 241.403 130.524 241.748C131.051 242.089 131.45 242.579 131.721 243.218C131.992 243.857 132.115 244.62 132.092 245.507H131.042V245.143C131.023 244.163 130.811 243.423 130.405 242.924C130.004 242.425 129.416 242.175 128.641 242.175C127.829 242.175 127.206 242.439 126.772 242.966C126.343 243.493 126.128 244.245 126.128 245.22C126.128 246.172 126.343 246.912 126.772 247.439C127.206 247.962 127.82 248.223 128.613 248.223C129.154 248.223 129.626 248.099 130.027 247.852C130.433 247.6 130.753 247.238 130.986 246.767L131.945 247.138C131.646 247.796 131.205 248.307 130.622 248.671C130.043 249.03 129.388 249.21 128.655 249.21ZM125.764 245.507V244.646H131.539V245.507H125.764Z" fill="#1B1C1A"/>
<rect x="195" y="226" width="143" height="36" rx="18" fill="#E4E2DF"/>
<path d="M251.422 249V238.92H252.451V243.463H258.023V238.92H259.045V249H258.023V244.45H252.451V249H251.422ZM263.169 249.21C262.6 249.21 262.122 249.107 261.734 248.902C261.352 248.697 261.065 248.424 260.873 248.083C260.682 247.742 260.586 247.371 260.586 246.97C260.586 246.559 260.668 246.209 260.831 245.92C260.999 245.626 261.226 245.386 261.51 245.199C261.8 245.012 262.133 244.87 262.511 244.772C262.894 244.679 263.316 244.597 263.778 244.527C264.245 244.452 264.7 244.389 265.143 244.338C265.591 244.282 265.983 244.228 266.319 244.177L265.955 244.401C265.969 243.654 265.825 243.101 265.521 242.742C265.218 242.383 264.691 242.203 263.939 242.203C263.421 242.203 262.983 242.32 262.623 242.553C262.269 242.786 262.019 243.155 261.874 243.659L260.873 243.365C261.046 242.688 261.394 242.163 261.916 241.79C262.439 241.417 263.118 241.23 263.953 241.23C264.644 241.23 265.23 241.361 265.71 241.622C266.196 241.879 266.539 242.252 266.739 242.742C266.833 242.961 266.893 243.206 266.921 243.477C266.949 243.748 266.963 244.023 266.963 244.303V249H266.046V247.103L266.312 247.215C266.056 247.864 265.657 248.358 265.115 248.699C264.574 249.04 263.925 249.21 263.169 249.21ZM263.288 248.321C263.769 248.321 264.189 248.235 264.548 248.062C264.908 247.889 265.197 247.654 265.416 247.355C265.636 247.052 265.778 246.711 265.843 246.333C265.899 246.09 265.93 245.824 265.934 245.535C265.939 245.241 265.941 245.022 265.941 244.877L266.333 245.08C265.983 245.127 265.603 245.173 265.192 245.22C264.786 245.267 264.385 245.32 263.988 245.381C263.596 245.442 263.242 245.514 262.924 245.598C262.71 245.659 262.502 245.745 262.301 245.857C262.101 245.964 261.935 246.109 261.804 246.291C261.678 246.473 261.615 246.699 261.615 246.97C261.615 247.189 261.669 247.402 261.776 247.607C261.888 247.812 262.066 247.983 262.308 248.118C262.556 248.253 262.882 248.321 263.288 248.321ZM270.556 249L267.812 241.44H268.855L271.088 247.656L273.307 241.44H274.364L271.62 249H270.556ZM278.547 249.21C277.81 249.21 277.171 249.047 276.629 248.72C276.093 248.393 275.675 247.934 275.376 247.341C275.078 246.748 274.928 246.053 274.928 245.255C274.928 244.429 275.075 243.715 275.369 243.113C275.663 242.511 276.076 242.047 276.608 241.72C277.145 241.393 277.777 241.23 278.505 241.23C279.252 241.23 279.889 241.403 280.416 241.748C280.944 242.089 281.343 242.579 281.613 243.218C281.884 243.857 282.008 244.62 281.984 245.507H280.934V245.143C280.916 244.163 280.703 243.423 280.297 242.924C279.896 242.425 279.308 242.175 278.533 242.175C277.721 242.175 277.098 242.439 276.664 242.966C276.235 243.493 276.02 244.245 276.02 245.22C276.02 246.172 276.235 246.912 276.664 247.439C277.098 247.962 277.712 248.223 278.505 248.223C279.047 248.223 279.518 248.099 279.919 247.852C280.325 247.6 280.645 247.238 280.878 246.767L281.837 247.138C281.539 247.796 281.098 248.307 280.514 248.671C279.936 249.03 279.28 249.21 278.547 249.21ZM275.656 245.507V244.646H281.431V245.507H275.656Z" fill="#1B1C1A"/>
<path d="M34.4 380V365.6H35.87V372.09H43.83V365.6H45.29V380H43.83V373.5H35.87V380H34.4ZM50.6814 380.3C49.8681 380.3 49.1847 380.153 48.6314 379.86C48.0847 379.567 47.6747 379.177 47.4014 378.69C47.1281 378.203 46.9914 377.673 46.9914 377.1C46.9914 376.513 47.1081 376.013 47.3414 375.6C47.5814 375.18 47.9047 374.837 48.3114 374.57C48.7247 374.303 49.2014 374.1 49.7414 373.96C50.2881 373.827 50.8914 373.71 51.5514 373.61C52.2181 373.503 52.8681 373.413 53.5014 373.34C54.1414 373.26 54.7014 373.183 55.1814 373.11L54.6614 373.43C54.6814 372.363 54.4747 371.573 54.0414 371.06C53.6081 370.547 52.8547 370.29 51.7814 370.29C51.0414 370.29 50.4147 370.457 49.9014 370.79C49.3947 371.123 49.0381 371.65 48.8314 372.37L47.4014 371.95C47.6481 370.983 48.1447 370.233 48.8914 369.7C49.6381 369.167 50.6081 368.9 51.8014 368.9C52.7881 368.9 53.6247 369.087 54.3114 369.46C55.0047 369.827 55.4947 370.36 55.7814 371.06C55.9147 371.373 56.0014 371.723 56.0414 372.11C56.0814 372.497 56.1014 372.89 56.1014 373.29V380H54.7914V377.29L55.1714 377.45C54.8047 378.377 54.2347 379.083 53.4614 379.57C52.6881 380.057 51.7614 380.3 50.6814 380.3ZM50.8514 379.03C51.5381 379.03 52.1381 378.907 52.6514 378.66C53.1647 378.413 53.5781 378.077 53.8914 377.65C54.2047 377.217 54.4081 376.73 54.5014 376.19C54.5814 375.843 54.6247 375.463 54.6314 375.05C54.6381 374.63 54.6414 374.317 54.6414 374.11L55.2014 374.4C54.7014 374.467 54.1581 374.533 53.5714 374.6C52.9914 374.667 52.4181 374.743 51.8514 374.83C51.2914 374.917 50.7847 375.02 50.3314 375.14C50.0247 375.227 49.7281 375.35 49.4414 375.51C49.1547 375.663 48.9181 375.87 48.7314 376.13C48.5514 376.39 48.4614 376.713 48.4614 377.1C48.4614 377.413 48.5381 377.717 48.6914 378.01C48.8514 378.303 49.1047 378.547 49.4514 378.74C49.8047 378.933 50.2714 379.03 50.8514 379.03ZM63.0547 380.3C62.0614 380.3 61.2214 380.05 60.5347 379.55C59.848 379.043 59.328 378.36 58.9747 377.5C58.6214 376.633 58.4447 375.663 58.4447 374.59C58.4447 373.497 58.6214 372.523 58.9747 371.67C59.3347 370.81 59.8614 370.133 60.5547 369.64C61.248 369.147 62.1014 368.9 63.1147 368.9C64.1014 368.9 64.948 369.15 65.6547 369.65C66.3614 370.15 66.9014 370.83 67.2747 371.69C67.6547 372.55 67.8447 373.517 67.8447 374.59C67.8447 375.67 67.6547 376.64 67.2747 377.5C66.8947 378.36 66.348 379.043 65.6347 379.55C64.9214 380.05 64.0614 380.3 63.0547 380.3ZM58.1947 380V365.6H59.6747V371.87H59.5147V380H58.1947ZM62.9047 378.93C63.658 378.93 64.2847 378.74 64.7847 378.36C65.2847 377.98 65.658 377.463 65.9047 376.81C66.158 376.15 66.2847 375.41 66.2847 374.59C66.2847 373.777 66.1614 373.043 65.9147 372.39C65.668 371.737 65.2914 371.22 64.7847 370.84C64.2847 370.46 63.648 370.27 62.8747 370.27C62.1214 370.27 61.4947 370.453 60.9947 370.82C60.5014 371.187 60.1314 371.697 59.8847 372.35C59.638 372.997 59.5147 373.743 59.5147 374.59C59.5147 375.423 59.638 376.17 59.8847 376.83C60.1314 377.483 60.5047 377.997 61.0047 378.37C61.5047 378.743 62.138 378.93 62.9047 378.93ZM69.7406 367.15V365.5H71.2106V367.15H69.7406ZM69.7406 380V369.2H71.2106V380H69.7406ZM79.5886 380C78.9819 380.127 78.3819 380.177 77.7886 380.15C77.2019 380.123 76.6753 379.997 76.2086 379.77C75.7486 379.543 75.3986 379.19 75.1586 378.71C74.9653 378.31 74.8586 377.907 74.8386 377.5C74.8253 377.087 74.8186 376.617 74.8186 376.09V366.2H76.2786V376.03C76.2786 376.483 76.2819 376.863 76.2886 377.17C76.3019 377.47 76.3719 377.737 76.4986 377.97C76.7386 378.417 77.1186 378.683 77.6386 378.77C78.1653 378.857 78.8153 378.837 79.5886 378.71V380ZM72.5086 370.46V369.2H79.5886V370.46H72.5086ZM85.2464 380.29C83.9797 380.29 82.9364 380.017 82.1164 379.47C81.3031 378.923 80.8031 378.163 80.6164 377.19L82.1164 376.94C82.2764 377.553 82.6397 378.043 83.2064 378.41C83.7797 378.77 84.4864 378.95 85.3264 378.95C86.1464 378.95 86.7931 378.78 87.2664 378.44C87.7397 378.093 87.9764 377.623 87.9764 377.03C87.9764 376.697 87.8997 376.427 87.7464 376.22C87.5997 376.007 87.2964 375.81 86.8364 375.63C86.3764 375.45 85.6897 375.237 84.7764 374.99C83.7964 374.723 83.0297 374.457 82.4764 374.19C81.9231 373.923 81.5297 373.617 81.2964 373.27C81.0631 372.917 80.9464 372.487 80.9464 371.98C80.9464 371.367 81.1197 370.83 81.4664 370.37C81.8131 369.903 82.2931 369.543 82.9064 369.29C83.5197 369.03 84.2331 368.9 85.0464 368.9C85.8597 368.9 86.5864 369.033 87.2264 369.3C87.8731 369.56 88.3931 369.927 88.7864 370.4C89.1797 370.873 89.4131 371.423 89.4864 372.05L87.9864 372.32C87.8864 371.687 87.5697 371.187 87.0364 370.82C86.5097 370.447 85.8397 370.253 85.0264 370.24C84.2597 370.22 83.6364 370.367 83.1564 370.68C82.6764 370.987 82.4364 371.397 82.4364 371.91C82.4364 372.197 82.5231 372.443 82.6964 372.65C82.8697 372.85 83.1831 373.04 83.6364 373.22C84.0964 373.4 84.7497 373.597 85.5964 373.81C86.5897 374.063 87.3697 374.33 87.9364 374.61C88.5031 374.89 88.9064 375.22 89.1464 375.6C89.3864 375.98 89.5064 376.45 89.5064 377.01C89.5064 378.03 89.1264 378.833 88.3664 379.42C87.6131 380 86.5731 380.29 85.2464 380.29Z" fill="#1B1C1A"/>
<path d="M33.4 150V135.6H38.96C39.1 135.6 39.2567 135.607 39.43 135.62C39.61 135.627 39.79 135.647 39.97 135.68C40.7233 135.793 41.36 136.057 41.88 136.47C42.4067 136.877 42.8033 137.39 43.07 138.01C43.3433 138.63 43.48 139.317 43.48 140.07C43.48 140.817 43.3433 141.5 43.07 142.12C42.7967 142.74 42.3967 143.257 41.87 143.67C41.35 144.077 40.7167 144.337 39.97 144.45C39.79 144.477 39.61 144.497 39.43 144.51C39.2567 144.523 39.1 144.53 38.96 144.53H34.87V150H33.4ZM34.87 143.13H38.92C39.04 143.13 39.18 143.123 39.34 143.11C39.5 143.097 39.6567 143.073 39.81 143.04C40.3033 142.933 40.7067 142.73 41.02 142.43C41.34 142.13 41.5767 141.773 41.73 141.36C41.89 140.947 41.97 140.517 41.97 140.07C41.97 139.623 41.89 139.193 41.73 138.78C41.5767 138.36 41.34 138 41.02 137.7C40.7067 137.4 40.3033 137.197 39.81 137.09C39.6567 137.057 39.5 137.037 39.34 137.03C39.18 137.017 39.04 137.01 38.92 137.01H34.87V143.13ZM44.9703 150V139.2H46.2903V141.8L46.0303 141.46C46.1503 141.14 46.307 140.847 46.5003 140.58C46.6936 140.307 46.9036 140.083 47.1303 139.91C47.4103 139.663 47.737 139.477 48.1103 139.35C48.4836 139.217 48.8603 139.14 49.2403 139.12C49.6203 139.093 49.967 139.12 50.2803 139.2V140.58C49.887 140.48 49.457 140.457 48.9903 140.51C48.5236 140.563 48.0936 140.75 47.7003 141.07C47.3403 141.35 47.0703 141.687 46.8903 142.08C46.7103 142.467 46.5903 142.88 46.5303 143.32C46.4703 143.753 46.4403 144.183 46.4403 144.61V150H44.9703ZM56.052 150.3C54.9987 150.3 54.0854 150.067 53.312 149.6C52.5454 149.133 51.9487 148.477 51.522 147.63C51.0954 146.783 50.882 145.79 50.882 144.65C50.882 143.47 51.092 142.45 51.512 141.59C51.932 140.73 52.522 140.067 53.282 139.6C54.0487 139.133 54.952 138.9 55.992 138.9C57.0587 138.9 57.9687 139.147 58.722 139.64C59.4754 140.127 60.0454 140.827 60.432 141.74C60.8187 142.653 60.9954 143.743 60.962 145.01H59.462V144.49C59.4354 143.09 59.132 142.033 58.552 141.32C57.9787 140.607 57.1387 140.25 56.032 140.25C54.872 140.25 53.982 140.627 53.362 141.38C52.7487 142.133 52.442 143.207 52.442 144.6C52.442 145.96 52.7487 147.017 53.362 147.77C53.982 148.517 54.8587 148.89 55.992 148.89C56.7654 148.89 57.4387 148.713 58.012 148.36C58.592 148 59.0487 147.483 59.382 146.81L60.752 147.34C60.3254 148.28 59.6954 149.01 58.862 149.53C58.0354 150.043 57.0987 150.3 56.052 150.3ZM51.922 145.01V143.78H60.172V145.01H51.922ZM63.7513 150V138.4C63.7513 138.12 63.7646 137.843 63.7913 137.57C63.8246 137.297 63.8879 137.037 63.9813 136.79C64.0746 136.537 64.2213 136.303 64.4213 136.09C64.6413 135.85 64.8813 135.677 65.1413 135.57C65.4013 135.457 65.6713 135.383 65.9513 135.35C66.2379 135.317 66.5179 135.3 66.7912 135.3H68.1713V136.54H66.8913C66.3313 136.54 65.9113 136.677 65.6313 136.95C65.3579 137.223 65.2213 137.653 65.2213 138.24V150H63.7513ZM61.8813 140.46V139.2H68.1713V140.46H61.8813ZM73.4505 150.3C72.3971 150.3 71.4838 150.067 70.7105 149.6C69.9438 149.133 69.3471 148.477 68.9205 147.63C68.4938 146.783 68.2805 145.79 68.2805 144.65C68.2805 143.47 68.4905 142.45 68.9105 141.59C69.3305 140.73 69.9205 140.067 70.6805 139.6C71.4471 139.133 72.3505 138.9 73.3905 138.9C74.4571 138.9 75.3671 139.147 76.1205 139.64C76.8738 140.127 77.4438 140.827 77.8305 141.74C78.2171 142.653 78.3938 143.743 78.3605 145.01H76.8605V144.49C76.8338 143.09 76.5305 142.033 75.9505 141.32C75.3771 140.607 74.5371 140.25 73.4305 140.25C72.2705 140.25 71.3805 140.627 70.7605 141.38C70.1471 142.133 69.8405 143.207 69.8405 144.6C69.8405 145.96 70.1471 147.017 70.7605 147.77C71.3805 148.517 72.2571 148.89 73.3905 148.89C74.1638 148.89 74.8371 148.713 75.4105 148.36C75.9905 148 76.4471 147.483 76.7805 146.81L78.1505 147.34C77.7238 148.28 77.0938 149.01 76.2605 149.53C75.4338 150.043 74.4971 150.3 73.4505 150.3ZM69.3205 145.01V143.78H77.5705V145.01H69.3205ZM80.0797 150V139.2H81.3997V141.8L81.1397 141.46C81.2597 141.14 81.4164 140.847 81.6097 140.58C81.803 140.307 82.013 140.083 82.2397 139.91C82.5197 139.663 82.8464 139.477 83.2197 139.35C83.593 139.217 83.9697 139.14 84.3497 139.12C84.7297 139.093 85.0764 139.12 85.3897 139.2V140.58C84.9964 140.48 84.5664 140.457 84.0997 140.51C83.633 140.563 83.203 140.75 82.8097 141.07C82.4497 141.35 82.1797 141.687 81.9997 142.08C81.8197 142.467 81.6997 142.88 81.6397 143.32C81.5797 143.753 81.5497 144.183 81.5497 144.61V150H80.0797ZM86.7867 150V139.2H88.1067V141.8L87.8467 141.46C87.9667 141.14 88.1234 140.847 88.3167 140.58C88.5101 140.307 88.7201 140.083 88.9467 139.91C89.2267 139.663 89.5534 139.477 89.9267 139.35C90.3001 139.217 90.6767 139.14 91.0567 139.12C91.4367 139.093 91.7834 139.12 92.0967 139.2V140.58C91.7034 140.48 91.2734 140.457 90.8067 140.51C90.3401 140.563 89.9101 140.75 89.5167 141.07C89.1567 141.35 88.8867 141.687 88.7067 142.08C88.5267 142.467 88.4067 142.88 88.3467 143.32C88.2867 143.753 88.2567 144.183 88.2567 144.61V150H86.7867ZM97.8684 150.3C96.8151 150.3 95.9018 150.067 95.1284 149.6C94.3618 149.133 93.7651 148.477 93.3384 147.63C92.9118 146.783 92.6984 145.79 92.6984 144.65C92.6984 143.47 92.9084 142.45 93.3284 141.59C93.7484 140.73 94.3384 140.067 95.0984 139.6C95.8651 139.133 96.7684 138.9 97.8084 138.9C98.8751 138.9 99.7851 139.147 100.538 139.64C101.292 140.127 101.862 140.827 102.248 141.74C102.635 142.653 102.812 143.743 102.778 145.01H101.278V144.49C101.252 143.09 100.948 142.033 100.368 141.32C99.7951 140.607 98.9551 140.25 97.8484 140.25C96.6884 140.25 95.7984 140.627 95.1784 141.38C94.5651 142.133 94.2584 143.207 94.2584 144.6C94.2584 145.96 94.5651 147.017 95.1784 147.77C95.7984 148.517 96.6751 148.89 97.8084 148.89C98.5818 148.89 99.2551 148.713 99.8284 148.36C100.408 148 100.865 147.483 101.198 146.81L102.568 147.34C102.142 148.28 101.512 149.01 100.678 149.53C99.8518 150.043 98.9151 150.3 97.8684 150.3ZM93.7384 145.01V143.78H101.988V145.01H93.7384ZM108.688 150.3C107.681 150.3 106.821 150.05 106.108 149.55C105.394 149.043 104.848 148.36 104.468 147.5C104.088 146.64 103.898 145.67 103.898 144.59C103.898 143.517 104.084 142.55 104.458 141.69C104.838 140.83 105.381 140.15 106.088 139.65C106.794 139.15 107.641 138.9 108.628 138.9C109.641 138.9 110.494 139.147 111.188 139.64C111.881 140.133 112.404 140.81 112.758 141.67C113.118 142.523 113.298 143.497 113.298 144.59C113.298 145.663 113.121 146.633 112.768 147.5C112.414 148.36 111.894 149.043 111.208 149.55C110.521 150.05 109.681 150.3 108.688 150.3ZM108.838 148.93C109.604 148.93 110.238 148.743 110.738 148.37C111.238 147.997 111.611 147.483 111.858 146.83C112.104 146.17 112.228 145.423 112.228 144.59C112.228 143.743 112.104 142.997 111.858 142.35C111.611 141.697 111.238 141.187 110.738 140.82C110.244 140.453 109.621 140.27 108.868 140.27C108.094 140.27 107.454 140.46 106.948 140.84C106.441 141.22 106.064 141.737 105.818 142.39C105.578 143.043 105.458 143.777 105.458 144.59C105.458 145.41 105.581 146.15 105.828 146.81C106.081 147.463 106.458 147.98 106.958 148.36C107.458 148.74 108.084 148.93 108.838 148.93ZM112.228 150V141.87H112.068V135.6H113.548V150H112.228ZM125.951 150.3C125.138 150.3 124.454 150.153 123.901 149.86C123.354 149.567 122.944 149.177 122.671 148.69C122.398 148.203 122.261 147.673 122.261 147.1C122.261 146.513 122.378 146.013 122.611 145.6C122.851 145.18 123.174 144.837 123.581 144.57C123.994 144.303 124.471 144.1 125.011 143.96C125.558 143.827 126.161 143.71 126.821 143.61C127.488 143.503 128.138 143.413 128.771 143.34C129.411 143.26 129.971 143.183 130.451 143.11L129.931 143.43C129.951 142.363 129.744 141.573 129.311 141.06C128.878 140.547 128.124 140.29 127.051 140.29C126.311 140.29 125.684 140.457 125.171 140.79C124.664 141.123 124.308 141.65 124.101 142.37L122.671 141.95C122.918 140.983 123.414 140.233 124.161 139.7C124.908 139.167 125.878 138.9 127.071 138.9C128.058 138.9 128.894 139.087 129.581 139.46C130.274 139.827 130.764 140.36 131.051 141.06C131.184 141.373 131.271 141.723 131.311 142.11C131.351 142.497 131.371 142.89 131.371 143.29V150H130.061V147.29L130.441 147.45C130.074 148.377 129.504 149.083 128.731 149.57C127.958 150.057 127.031 150.3 125.951 150.3ZM126.121 149.03C126.808 149.03 127.408 148.907 127.921 148.66C128.434 148.413 128.848 148.077 129.161 147.65C129.474 147.217 129.678 146.73 129.771 146.19C129.851 145.843 129.894 145.463 129.901 145.05C129.908 144.63 129.911 144.317 129.911 144.11L130.471 144.4C129.971 144.467 129.428 144.533 128.841 144.6C128.261 144.667 127.688 144.743 127.121 144.83C126.561 144.917 126.054 145.02 125.601 145.14C125.294 145.227 124.998 145.35 124.711 145.51C124.424 145.663 124.188 145.87 124.001 146.13C123.821 146.39 123.731 146.713 123.731 147.1C123.731 147.413 123.808 147.717 123.961 148.01C124.121 148.303 124.374 148.547 124.721 148.74C125.074 148.933 125.541 149.03 126.121 149.03ZM141.274 150V144.49C141.274 143.89 141.218 143.34 141.104 142.84C140.991 142.333 140.808 141.893 140.554 141.52C140.308 141.14 139.984 140.847 139.584 140.64C139.191 140.433 138.711 140.33 138.144 140.33C137.624 140.33 137.164 140.42 136.764 140.6C136.371 140.78 136.038 141.04 135.764 141.38C135.498 141.713 135.294 142.12 135.154 142.6C135.014 143.08 134.944 143.627 134.944 144.24L133.904 144.01C133.904 142.903 134.098 141.973 134.484 141.22C134.871 140.467 135.404 139.897 136.084 139.51C136.764 139.123 137.544 138.93 138.424 138.93C139.071 138.93 139.634 139.03 140.114 139.23C140.601 139.43 141.011 139.7 141.344 140.04C141.684 140.38 141.958 140.77 142.164 141.21C142.371 141.643 142.521 142.107 142.614 142.6C142.708 143.087 142.754 143.573 142.754 144.06V150H141.274ZM133.464 150V139.2H134.794V141.86H134.944V150H133.464ZM145.049 137.15V135.5H146.519V137.15H145.049ZM145.049 150V139.2H146.519V150H145.049ZM161.897 150L161.907 142.91C161.907 142.077 161.674 141.423 161.207 140.95C160.747 140.47 160.161 140.23 159.447 140.23C159.041 140.23 158.644 140.323 158.257 140.51C157.871 140.697 157.551 140.997 157.297 141.41C157.051 141.823 156.927 142.363 156.927 143.03L156.057 142.78C156.037 142.007 156.187 141.33 156.507 140.75C156.834 140.17 157.281 139.72 157.847 139.4C158.421 139.073 159.067 138.91 159.787 138.91C160.874 138.91 161.744 139.247 162.397 139.92C163.051 140.587 163.377 141.49 163.377 142.63L163.367 150H161.897ZM149.007 150V139.2H150.327V141.86H150.487V150H149.007ZM155.467 150L155.477 143.01C155.477 142.15 155.247 141.473 154.787 140.98C154.334 140.48 153.734 140.23 152.987 140.23C152.241 140.23 151.637 140.487 151.177 141C150.717 141.507 150.487 142.183 150.487 143.03L149.607 142.55C149.607 141.857 149.771 141.237 150.097 140.69C150.424 140.137 150.871 139.703 151.437 139.39C152.004 139.07 152.647 138.91 153.367 138.91C154.054 138.91 154.664 139.057 155.197 139.35C155.737 139.643 156.161 140.07 156.467 140.63C156.774 141.19 156.927 141.87 156.927 142.67L156.917 150H155.467ZM168.56 150.3C167.747 150.3 167.064 150.153 166.51 149.86C165.964 149.567 165.554 149.177 165.28 148.69C165.007 148.203 164.87 147.673 164.87 147.1C164.87 146.513 164.987 146.013 165.22 145.6C165.46 145.18 165.784 144.837 166.19 144.57C166.604 144.303 167.08 144.1 167.62 143.96C168.167 143.827 168.77 143.71 169.43 143.61C170.097 143.503 170.747 143.413 171.38 143.34C172.02 143.26 172.58 143.183 173.06 143.11L172.54 143.43C172.56 142.363 172.354 141.573 171.92 141.06C171.487 140.547 170.734 140.29 169.66 140.29C168.92 140.29 168.294 140.457 167.78 140.79C167.274 141.123 166.917 141.65 166.71 142.37L165.28 141.95C165.527 140.983 166.024 140.233 166.77 139.7C167.517 139.167 168.487 138.9 169.68 138.9C170.667 138.9 171.504 139.087 172.19 139.46C172.884 139.827 173.374 140.36 173.66 141.06C173.794 141.373 173.88 141.723 173.92 142.11C173.96 142.497 173.98 142.89 173.98 143.29V150H172.67V147.29L173.05 147.45C172.684 148.377 172.114 149.083 171.34 149.57C170.567 150.057 169.64 150.3 168.56 150.3ZM168.73 149.03C169.417 149.03 170.017 148.907 170.53 148.66C171.044 148.413 171.457 148.077 171.77 147.65C172.084 147.217 172.287 146.73 172.38 146.19C172.46 145.843 172.504 145.463 172.51 145.05C172.517 144.63 172.52 144.317 172.52 144.11L173.08 144.4C172.58 144.467 172.037 144.533 171.45 144.6C170.87 144.667 170.297 144.743 169.73 144.83C169.17 144.917 168.664 145.02 168.21 145.14C167.904 145.227 167.607 145.35 167.32 145.51C167.034 145.663 166.797 145.87 166.61 146.13C166.43 146.39 166.34 146.713 166.34 147.1C166.34 147.413 166.417 147.717 166.57 148.01C166.73 148.303 166.984 148.547 167.33 148.74C167.684 148.933 168.15 149.03 168.73 149.03ZM176.284 150V135.3H177.754V150H176.284ZM184.282 150.29C183.015 150.29 181.972 150.017 181.152 149.47C180.338 148.923 179.838 148.163 179.652 147.19L181.152 146.94C181.312 147.553 181.675 148.043 182.242 148.41C182.815 148.77 183.522 148.95 184.362 148.95C185.182 148.95 185.828 148.78 186.302 148.44C186.775 148.093 187.012 147.623 187.012 147.03C187.012 146.697 186.935 146.427 186.782 146.22C186.635 146.007 186.332 145.81 185.872 145.63C185.412 145.45 184.725 145.237 183.812 144.99C182.832 144.723 182.065 144.457 181.512 144.19C180.958 143.923 180.565 143.617 180.332 143.27C180.098 142.917 179.982 142.487 179.982 141.98C179.982 141.367 180.155 140.83 180.502 140.37C180.848 139.903 181.328 139.543 181.942 139.29C182.555 139.03 183.268 138.9 184.082 138.9C184.895 138.9 185.622 139.033 186.262 139.3C186.908 139.56 187.428 139.927 187.822 140.4C188.215 140.873 188.448 141.423 188.522 142.05L187.022 142.32C186.922 141.687 186.605 141.187 186.072 140.82C185.545 140.447 184.875 140.253 184.062 140.24C183.295 140.22 182.672 140.367 182.192 140.68C181.712 140.987 181.472 141.397 181.472 141.91C181.472 142.197 181.558 142.443 181.732 142.65C181.905 142.85 182.218 143.04 182.672 143.22C183.132 143.4 183.785 143.597 184.632 143.81C185.625 144.063 186.405 144.33 186.972 144.61C187.538 144.89 187.942 145.22 188.182 145.6C188.422 145.98 188.542 146.45 188.542 147.01C188.542 148.03 188.162 148.833 187.402 149.42C186.648 150 185.608 150.29 184.282 150.29Z" fill="black"/>
<defs>
<clipPath id="clip0_185_680">
<rect width="24" height="24" fill="white" transform="translate(343 727)"/>
</clipPath>
</defs>
</svg>
