<svg width="390" height="772" viewBox="0 0 390 772" fill="none" xmlns="http://www.w3.org/2000/svg">
<rect width="390" height="772" fill="#F2ECDE"/>
<rect x="24" y="16" width="40" height="40" rx="12" fill="#EAE8E5"/>
<path d="M44 36C42.9 36 41.9583 35.6083 41.175 34.825C40.3917 34.0417 40 33.1 40 32C40 30.9 40.3917 29.9583 41.175 29.175C41.9583 28.3917 42.9 28 44 28C45.1 28 46.0417 28.3917 46.825 29.175C47.6083 29.9583 48 30.9 48 32C48 33.1 47.6083 34.0417 46.825 34.825C46.0417 35.6083 45.1 36 44 36ZM36 44V41.2C36 40.6333 36.1458 40.1125 36.4375 39.6375C36.7292 39.1625 37.1167 38.8 37.6 38.55C38.6333 38.0333 39.6833 37.6458 40.75 37.3875C41.8167 37.1292 42.9 37 44 37C45.1 37 46.1833 37.1292 47.25 37.3875C48.3167 37.6458 49.3667 38.0333 50.4 38.55C50.8833 38.8 51.2708 39.1625 51.5625 39.6375C51.8542 40.1125 52 40.6333 52 41.2V44H36ZM38 42H50V41.2C50 41.0167 49.9542 40.85 49.8625 40.7C49.7708 40.55 49.65 40.4333 49.5 40.35C48.6 39.9 47.6917 39.5625 46.775 39.3375C45.8583 39.1125 44.9333 39 44 39C43.0667 39 42.1417 39.1125 41.225 39.3375C40.3083 39.5625 39.4 39.9 38.5 40.35C38.35 40.4333 38.2292 40.55 38.1375 40.7C38.0458 40.85 38 41.0167 38 41.2V42ZM44 34C44.55 34 45.0208 33.8042 45.4125 33.4125C45.8042 33.0208 46 32.55 46 32C46 31.45 45.8042 30.9792 45.4125 30.5875C45.0208 30.1958 44.55 30 44 30C43.45 30 42.9792 30.1958 42.5875 30.5875C42.1958 30.9792 42 31.45 42 32C42 32.55 42.1958 33.0208 42.5875 33.4125C42.9792 33.8042 43.45 34 44 34Z" fill="#4C463C"/>
<path d="M86.73 44.3C85.6789 44.3 84.7317 44.1167 83.8883 43.75C83.045 43.3833 82.3517 42.8586 81.8083 42.1758C81.265 41.4931 80.9178 40.68 80.7667 39.7367L83.2733 39.36C83.4833 40.2134 83.92 40.8739 84.5833 41.3417C85.2466 41.8095 86.0122 42.0434 86.88 42.0434C87.3922 42.0434 87.8756 41.9628 88.33 41.8017C88.7844 41.6406 89.1531 41.4059 89.4358 41.0975C89.7186 40.7892 89.86 40.4145 89.86 39.9733C89.86 39.77 89.827 39.5842 89.7608 39.4158C89.6947 39.2475 89.5969 39.0964 89.4675 38.9625C89.3381 38.8286 89.1719 38.7072 88.9692 38.5983C88.7664 38.4894 88.5289 38.3933 88.2567 38.31L84.54 37.2133C84.22 37.1211 83.8744 36.9955 83.5033 36.8366C83.1322 36.6778 82.7822 36.4611 82.4533 36.1866C82.1244 35.9122 81.8544 35.5597 81.6433 35.1291C81.4322 34.6986 81.3267 34.1655 81.3267 33.53C81.3267 32.6022 81.5625 31.8242 82.0342 31.1958C82.5058 30.5675 83.1394 30.0958 83.935 29.7808C84.7305 29.4658 85.6167 29.3111 86.5933 29.3167C87.5778 29.3278 88.4572 29.4983 89.2316 29.8283C90.0061 30.1583 90.6525 30.6356 91.1708 31.26C91.6891 31.8844 92.0555 32.6422 92.27 33.5333L89.68 33.9767C89.5756 33.4711 89.3706 33.0408 89.065 32.6858C88.7595 32.3308 88.3886 32.0594 87.9525 31.8716C87.5164 31.6839 87.0522 31.5844 86.56 31.5733C86.0789 31.5622 85.6339 31.6325 85.225 31.7841C84.8161 31.9358 84.4863 32.1511 84.2358 32.43C83.9852 32.7089 83.86 33.0355 83.86 33.41C83.86 33.7667 83.9663 34.0556 84.1791 34.2767C84.3919 34.4978 84.6577 34.6742 84.9766 34.8058C85.2955 34.9375 85.6166 35.0467 85.94 35.1333L88.52 35.85C88.8733 35.9456 89.2694 36.0734 89.7083 36.2334C90.1472 36.3933 90.57 36.6164 90.9766 36.9025C91.3833 37.1886 91.7189 37.5653 91.9833 38.0325C92.2477 38.4997 92.38 39.0911 92.38 39.8067C92.38 40.5545 92.2258 41.2103 91.9175 41.7742C91.6091 42.3381 91.1905 42.8064 90.6616 43.1792C90.1328 43.5519 89.5297 43.8319 88.8525 44.0192C88.1753 44.2064 87.4678 44.3 86.73 44.3ZM96.5733 44.3C95.7889 44.3 95.1269 44.1519 94.5875 43.8558C94.0481 43.5597 93.6403 43.1647 93.3642 42.6708C93.0881 42.1769 92.95 41.6333 92.95 41.04C92.95 40.5178 93.0369 40.0497 93.2108 39.6358C93.3847 39.2219 93.652 38.8631 94.0125 38.5592C94.3731 38.2553 94.8378 38.0056 95.4067 37.81C95.8445 37.6667 96.3536 37.5397 96.9342 37.4292C97.5147 37.3186 98.1472 37.2147 98.8317 37.1175C99.5161 37.0203 100.233 36.9156 100.983 36.8033L100.117 37.2867C100.122 36.5411 99.9559 35.9914 99.6175 35.6375C99.2792 35.2836 98.7056 35.1066 97.8967 35.1066C97.4122 35.1066 96.9436 35.2208 96.4908 35.4491C96.038 35.6775 95.7211 36.0666 95.54 36.6167L93.3367 35.9267C93.6044 35.0156 94.1142 34.2833 94.8658 33.73C95.6175 33.1767 96.63 32.9 97.9033 32.9C98.8644 32.9 99.7089 33.0561 100.437 33.3683C101.164 33.6806 101.707 34.1945 102.063 34.91C102.257 35.2878 102.373 35.675 102.413 36.0717C102.453 36.4683 102.473 36.9022 102.473 37.3733V44H100.36V41.6567L100.71 42.0433C100.223 42.82 99.6547 43.3903 99.0042 43.7542C98.3536 44.1181 97.5433 44.3 96.5733 44.3ZM97.05 42.3767C97.5967 42.3767 98.0628 42.2797 98.4483 42.0859C98.8339 41.892 99.1422 41.6564 99.3734 41.3792C99.6045 41.1019 99.7589 40.8378 99.8367 40.5867C99.9622 40.28 100.035 39.9286 100.054 39.5325C100.074 39.1364 100.083 38.8144 100.083 38.5666L100.823 38.79C100.092 38.9066 99.4664 39.0072 98.9459 39.0916C98.4253 39.1761 97.9795 39.2564 97.6083 39.3325C97.2372 39.4086 96.9078 39.4944 96.62 39.59C96.3433 39.6922 96.108 39.8091 95.9141 39.9408C95.7203 40.0725 95.5716 40.2255 95.4683 40.4C95.365 40.5744 95.3133 40.7778 95.3133 41.01C95.3133 41.2733 95.3791 41.5081 95.5108 41.7142C95.6425 41.9203 95.8369 42.0822 96.0941 42.2C96.3514 42.3178 96.67 42.3767 97.05 42.3767ZM104.053 44L104.07 29.6H106.51V38.4L110.46 33.2H113.47L109.28 38.6L113.83 44H110.64L106.51 38.8V44H104.053ZM114.03 31.5633V29.35H116.437V31.5633H114.03ZM114.03 44V33.2H116.437V44H114.03ZM125.91 44V38.7967C125.91 38.4622 125.886 38.0883 125.838 37.675C125.789 37.2616 125.681 36.863 125.513 36.4791C125.346 36.0952 125.093 35.78 124.757 35.5333C124.42 35.2866 123.963 35.1633 123.387 35.1633C123.082 35.1633 122.78 35.213 122.481 35.3125C122.181 35.4119 121.911 35.5825 121.668 35.8241C121.426 36.0658 121.231 36.3994 121.084 36.825C120.937 37.2505 120.863 37.7922 120.863 38.45L119.433 37.8367C119.433 36.92 119.612 36.0875 119.968 35.3392C120.325 34.5908 120.849 33.9961 121.542 33.555C122.234 33.1139 123.088 32.8933 124.103 32.8933C124.9 32.8933 125.559 33.0256 126.079 33.29C126.6 33.5544 127.013 33.8942 127.32 34.3092C127.627 34.7242 127.853 35.1653 128 35.6325C128.147 36.0997 128.242 36.5419 128.285 36.9592C128.328 37.3764 128.35 37.7133 128.35 37.97V44H125.91ZM118.423 44V33.2H120.57V36.55H120.863V44H118.423ZM132.973 44.3C132.189 44.3 131.527 44.1519 130.987 43.8558C130.448 43.5597 130.04 43.1647 129.764 42.6708C129.488 42.1769 129.35 41.6333 129.35 41.04C129.35 40.5178 129.437 40.0497 129.611 39.6358C129.785 39.2219 130.052 38.8631 130.413 38.5592C130.773 38.2553 131.238 38.0056 131.807 37.81C132.244 37.6667 132.754 37.5397 133.334 37.4292C133.915 37.3186 134.547 37.2147 135.232 37.1175C135.916 37.0203 136.633 36.9156 137.383 36.8033L136.517 37.2867C136.522 36.5411 136.356 35.9914 136.018 35.6375C135.679 35.2836 135.106 35.1066 134.297 35.1066C133.812 35.1066 133.344 35.2208 132.891 35.4491C132.438 35.6775 132.121 36.0666 131.94 36.6167L129.737 35.9267C130.004 35.0156 130.514 34.2833 131.266 33.73C132.017 33.1767 133.03 32.9 134.303 32.9C135.264 32.9 136.109 33.0561 136.837 33.3683C137.564 33.6806 138.107 34.1945 138.463 34.91C138.657 35.2878 138.773 35.675 138.813 36.0717C138.853 36.4683 138.873 36.9022 138.873 37.3733V44H136.76V41.6567L137.11 42.0433C136.623 42.82 136.055 43.3903 135.404 43.7542C134.754 44.1181 133.943 44.3 132.973 44.3ZM133.45 42.3767C133.997 42.3767 134.463 42.2797 134.848 42.0859C135.234 41.892 135.542 41.6564 135.773 41.3792C136.004 41.1019 136.159 40.8378 136.237 40.5867C136.362 40.28 136.435 39.9286 136.454 39.5325C136.474 39.1364 136.483 38.8144 136.483 38.5666L137.223 38.79C136.492 38.9066 135.866 39.0072 135.346 39.0916C134.825 39.1761 134.379 39.2564 134.008 39.3325C133.637 39.4086 133.308 39.4944 133.02 39.59C132.743 39.6922 132.508 39.8091 132.314 39.9408C132.12 40.0725 131.972 40.2255 131.868 40.4C131.765 40.5744 131.713 40.7778 131.713 41.01C131.713 41.2733 131.779 41.5081 131.911 41.7142C132.042 41.9203 132.237 42.0822 132.494 42.2C132.751 42.3178 133.07 42.3767 133.45 42.3767Z" fill="#120A00"/>
<path d="M350 43V41H352V34C352 32.6167 352.417 31.3875 353.25 30.3125C354.083 29.2375 355.167 28.5333 356.5 28.2V27.5C356.5 27.0833 356.646 26.7292 356.938 26.4375C357.229 26.1458 357.583 26 358 26C358.417 26 358.771 26.1458 359.062 26.4375C359.354 26.7292 359.5 27.0833 359.5 27.5V28.2C360.833 28.5333 361.917 29.2375 362.75 30.3125C363.583 31.3875 364 32.6167 364 34V41H366V43H350ZM358 46C357.45 46 356.979 45.8042 356.588 45.4125C356.196 45.0208 356 44.55 356 44H360C360 44.55 359.804 45.0208 359.413 45.4125C359.021 45.8042 358.55 46 358 46ZM354 41H362V34C362 32.9 361.608 31.9583 360.825 31.175C360.042 30.3917 359.1 30 358 30C356.9 30 355.958 30.3917 355.175 31.175C354.392 31.9583 354 32.9 354 34V41Z" fill="#120A00"/>
<path d="M304.05 745V734.2H305.16L311.108 743.05V734.2H312.218V745H311.108L305.16 736.142V745H304.05ZM317.736 745.225C316.946 745.225 316.261 745.05 315.681 744.7C315.106 744.35 314.659 743.857 314.339 743.222C314.019 742.587 313.859 741.842 313.859 740.987C313.859 740.102 314.016 739.337 314.331 738.692C314.646 738.047 315.089 737.55 315.659 737.2C316.234 736.85 316.911 736.675 317.691 736.675C318.491 736.675 319.174 736.86 319.739 737.23C320.304 737.595 320.731 738.12 321.021 738.805C321.311 739.49 321.444 740.307 321.419 741.257H320.294V740.868C320.274 739.817 320.046 739.025 319.611 738.49C319.181 737.955 318.551 737.687 317.721 737.687C316.851 737.687 316.184 737.97 315.719 738.535C315.259 739.1 315.029 739.905 315.029 740.95C315.029 741.97 315.259 742.762 315.719 743.327C316.184 743.887 316.841 744.167 317.691 744.167C318.271 744.167 318.776 744.035 319.206 743.77C319.641 743.5 319.984 743.112 320.234 742.607L321.261 743.005C320.941 743.71 320.469 744.257 319.844 744.647C319.224 745.033 318.521 745.225 317.736 745.225ZM314.639 741.257V740.335H320.826V741.257H314.639ZM321.88 745L325.045 740.905L321.947 736.9H323.267L325.69 740.057L328.09 736.9H329.41L326.312 740.905L329.485 745H328.157L325.69 741.752L323.207 745H321.88ZM335.09 745C334.635 745.095 334.185 745.133 333.74 745.113C333.3 745.093 332.905 744.997 332.555 744.827C332.21 744.657 331.948 744.392 331.768 744.032C331.623 743.732 331.543 743.43 331.528 743.125C331.518 742.815 331.513 742.462 331.513 742.067V734.65H332.608V742.022C332.608 742.362 332.61 742.647 332.615 742.877C332.625 743.102 332.678 743.302 332.773 743.477C332.953 743.812 333.238 744.012 333.628 744.077C334.023 744.142 334.51 744.127 335.09 744.032V745ZM329.78 737.845V736.9H335.09V737.845H329.78Z" fill="#2C2005"/>
<g clip-path="url(#clip0_185_536)">
<path d="M359.01 738H348C347.45 738 347 738.45 347 739C347 739.55 347.45 740 348 740H359.01V741.79C359.01 742.24 359.55 742.46 359.86 742.14L362.64 739.35C362.83 739.15 362.83 738.84 362.64 738.64L359.86 735.85C359.55 735.53 359.01 735.76 359.01 736.2V738Z" fill="#2C2005"/>
</g>
<path d="M33.91 744V734.64H37.524C38.0483 734.64 38.5055 734.748 38.8955 734.965C39.2855 735.182 39.5888 735.474 39.8055 735.842C40.0222 736.206 40.1305 736.609 40.1305 737.051C40.1305 737.554 39.9962 738.003 39.7275 738.397C39.4588 738.787 39.0992 739.058 38.6485 739.209L38.6355 738.891C39.2422 739.064 39.7188 739.368 40.0655 739.801C40.4122 740.234 40.5855 740.759 40.5855 741.374C40.5855 741.916 40.4707 742.384 40.241 742.778C40.0113 743.168 39.6885 743.469 39.2725 743.681C38.8565 743.894 38.3733 744 37.823 744H33.91ZM34.872 743.083H37.589C37.9703 743.083 38.3127 743.016 38.616 742.882C38.9193 742.743 39.1577 742.548 39.331 742.297C39.5087 742.046 39.5975 741.742 39.5975 741.387C39.5975 741.04 39.5173 740.728 39.357 740.451C39.1967 740.174 38.9778 739.953 38.7005 739.788C38.4275 739.619 38.1155 739.534 37.7645 739.534H34.872V743.083ZM34.872 738.631H37.5175C37.8165 738.631 38.0895 738.564 38.3365 738.429C38.5835 738.291 38.7785 738.102 38.9215 737.864C39.0688 737.626 39.1425 737.35 39.1425 737.038C39.1425 736.596 38.9887 736.237 38.681 735.959C38.3777 735.682 37.9898 735.543 37.5175 735.543H34.872V738.631ZM43.8812 744.195C43.3525 744.195 42.9083 744.1 42.5487 743.909C42.1933 743.718 41.9268 743.465 41.7492 743.148C41.5715 742.832 41.4827 742.488 41.4827 742.115C41.4827 741.734 41.5585 741.409 41.7102 741.14C41.8662 740.867 42.0763 740.644 42.3407 740.47C42.6093 740.297 42.9192 740.165 43.2702 740.074C43.6255 739.987 44.0177 739.911 44.4467 739.846C44.88 739.777 45.3025 739.719 45.7142 739.671C46.1302 739.619 46.4942 739.569 46.8062 739.521L46.4682 739.729C46.4812 739.036 46.3468 738.523 46.0652 738.189C45.7835 737.855 45.2938 737.688 44.5962 737.688C44.1152 737.688 43.7078 737.797 43.3742 738.013C43.0448 738.23 42.813 738.572 42.6787 739.04L41.7492 738.767C41.9095 738.139 42.2323 737.652 42.7177 737.305C43.203 736.958 43.8335 736.785 44.6092 736.785C45.2505 736.785 45.7943 736.906 46.2407 737.149C46.6913 737.387 47.0098 737.734 47.1962 738.189C47.2828 738.393 47.3392 738.62 47.3652 738.871C47.3912 739.123 47.4042 739.378 47.4042 739.638V744H46.5527V742.238L46.7997 742.342C46.5613 742.945 46.1908 743.404 45.6882 743.72C45.1855 744.037 44.5832 744.195 43.8812 744.195ZM43.9917 743.369C44.438 743.369 44.828 743.289 45.1617 743.129C45.4953 742.969 45.764 742.75 45.9677 742.472C46.1713 742.191 46.3035 741.874 46.3642 741.523C46.4162 741.298 46.4443 741.051 46.4487 740.782C46.453 740.509 46.4552 740.306 46.4552 740.171L46.8192 740.36C46.4942 740.403 46.141 740.447 45.7597 740.49C45.3827 740.533 45.01 740.583 44.6417 740.639C44.2777 740.696 43.9483 740.763 43.6537 740.841C43.4543 740.897 43.2615 740.977 43.0752 741.081C42.8888 741.181 42.735 741.315 42.6137 741.484C42.4967 741.653 42.4382 741.864 42.4382 742.115C42.4382 742.319 42.488 742.516 42.5877 742.706C42.6917 742.897 42.8563 743.055 43.0817 743.181C43.3113 743.307 43.6147 743.369 43.9917 743.369ZM51.9983 744.195C51.292 744.195 50.694 744.037 50.2043 743.72C49.7146 743.404 49.342 742.969 49.0863 742.414C48.835 741.855 48.705 741.214 48.6963 740.49C48.705 739.753 48.8393 739.108 49.0993 738.553C49.3593 737.994 49.7341 737.561 50.2238 737.253C50.7135 736.941 51.3071 736.785 52.0048 736.785C52.7155 736.785 53.333 736.958 53.8573 737.305C54.386 737.652 54.7478 738.126 54.9428 738.728L54.0068 739.027C53.8421 738.607 53.58 738.282 53.2203 738.052C52.865 737.818 52.4576 737.701 51.9983 737.701C51.4826 737.701 51.0558 737.821 50.7178 738.059C50.3798 738.293 50.1285 738.62 49.9638 739.04C49.7991 739.461 49.7146 739.944 49.7103 740.49C49.719 741.331 49.914 742.007 50.2953 742.518C50.6766 743.025 51.2443 743.278 51.9983 743.278C52.475 743.278 52.8801 743.17 53.2138 742.953C53.5518 742.732 53.8075 742.412 53.9808 741.991L54.9428 742.277C54.6828 742.901 54.3015 743.378 53.7988 743.707C53.2961 744.033 52.696 744.195 51.9983 744.195ZM56.268 744L56.2745 734.64H57.2365V740.36L60.3695 736.98H61.6435L58.3545 740.49L62.0725 744H60.6815L57.2365 740.62V744H56.268Z" fill="#2C2005"/>
<mask id="path-8-inside-1_185_536" fill="white">
<path d="M20 172H370V209H20V172Z"/>
</mask>
<path d="M370 209V208H20V209V210H370V209Z" fill="#CFC5B8" fill-opacity="0.15" mask="url(#path-8-inside-1_185_536)"/>
<path d="M27.23 194.3C25.7967 194.3 24.5867 193.983 23.6 193.35C22.6133 192.71 21.8667 191.827 21.36 190.7C20.8533 189.573 20.6 188.273 20.6 186.8C20.6 185.327 20.8533 184.027 21.36 182.9C21.8667 181.773 22.6133 180.893 23.6 180.26C24.5867 179.62 25.7967 179.3 27.23 179.3C28.9033 179.3 30.27 179.73 31.33 180.59C32.39 181.443 33.1167 182.59 33.51 184.03L32.01 184.42C31.7033 183.28 31.1533 182.377 30.36 181.71C29.5667 181.043 28.5233 180.71 27.23 180.71C26.1033 180.71 25.1667 180.967 24.42 181.48C23.6733 181.993 23.11 182.71 22.73 183.63C22.3567 184.543 22.1633 185.6 22.15 186.8C22.1433 188 22.3267 189.057 22.7 189.97C23.08 190.883 23.6467 191.6 24.4 192.12C25.16 192.633 26.1033 192.89 27.23 192.89C28.5233 192.89 29.5667 192.557 30.36 191.89C31.1533 191.217 31.7033 190.313 32.01 189.18L33.51 189.57C33.1167 191.01 32.39 192.16 31.33 193.02C30.27 193.873 28.9033 194.3 27.23 194.3ZM35.4164 181.15V179.5H36.8864V181.15H35.4164ZM35.4164 194V183.2H36.8864V194H35.4164ZM39.3844 194V183.2H40.7044V185.8L40.4444 185.46C40.5644 185.14 40.721 184.847 40.9144 184.58C41.1077 184.307 41.3177 184.083 41.5444 183.91C41.8244 183.663 42.151 183.477 42.5244 183.35C42.8977 183.217 43.2744 183.14 43.6544 183.12C44.0344 183.093 44.381 183.12 44.6944 183.2V184.58C44.301 184.48 43.871 184.457 43.4044 184.51C42.9377 184.563 42.5077 184.75 42.1144 185.07C41.7544 185.35 41.4844 185.687 41.3044 186.08C41.1244 186.467 41.0044 186.88 40.9444 187.32C40.8844 187.753 40.8544 188.183 40.8544 188.61V194H39.3844ZM50.3761 194.3C49.2894 194.3 48.3694 194.057 47.6161 193.57C46.8628 193.083 46.2894 192.413 45.8961 191.56C45.5094 190.7 45.3094 189.713 45.2961 188.6C45.3094 187.467 45.5161 186.473 45.9161 185.62C46.3161 184.76 46.8928 184.093 47.6461 183.62C48.3994 183.14 49.3128 182.9 50.3861 182.9C51.4794 182.9 52.4294 183.167 53.2361 183.7C54.0494 184.233 54.6061 184.963 54.9061 185.89L53.4661 186.35C53.2128 185.703 52.8094 185.203 52.2561 184.85C51.7094 184.49 51.0828 184.31 50.3761 184.31C49.5828 184.31 48.9261 184.493 48.4061 184.86C47.8861 185.22 47.4994 185.723 47.2461 186.37C46.9928 187.017 46.8628 187.76 46.8561 188.6C46.8694 189.893 47.1694 190.933 47.7561 191.72C48.3428 192.5 49.2161 192.89 50.3761 192.89C51.1094 192.89 51.7328 192.723 52.2461 192.39C52.7661 192.05 53.1594 191.557 53.4261 190.91L54.9061 191.35C54.5061 192.31 53.9194 193.043 53.1461 193.55C52.3728 194.05 51.4494 194.3 50.3761 194.3ZM59.5017 194.3C58.6884 194.3 58.0051 194.153 57.4517 193.86C56.9051 193.567 56.4951 193.177 56.2217 192.69C55.9484 192.203 55.8117 191.673 55.8117 191.1C55.8117 190.513 55.9284 190.013 56.1617 189.6C56.4017 189.18 56.7251 188.837 57.1317 188.57C57.5451 188.303 58.0217 188.1 58.5617 187.96C59.1084 187.827 59.7117 187.71 60.3717 187.61C61.0384 187.503 61.6884 187.413 62.3217 187.34C62.9617 187.26 63.5217 187.183 64.0017 187.11L63.4817 187.43C63.5017 186.363 63.2951 185.573 62.8617 185.06C62.4284 184.547 61.6751 184.29 60.6017 184.29C59.8617 184.29 59.2351 184.457 58.7217 184.79C58.2151 185.123 57.8584 185.65 57.6517 186.37L56.2217 185.95C56.4684 184.983 56.9651 184.233 57.7117 183.7C58.4584 183.167 59.4284 182.9 60.6217 182.9C61.6084 182.9 62.4451 183.087 63.1317 183.46C63.8251 183.827 64.3151 184.36 64.6017 185.06C64.7351 185.373 64.8217 185.723 64.8617 186.11C64.9017 186.497 64.9217 186.89 64.9217 187.29V194H63.6117V191.29L63.9917 191.45C63.6251 192.377 63.0551 193.083 62.2817 193.57C61.5084 194.057 60.5817 194.3 59.5017 194.3ZM59.6717 193.03C60.3584 193.03 60.9584 192.907 61.4717 192.66C61.9851 192.413 62.3984 192.077 62.7117 191.65C63.0251 191.217 63.2284 190.73 63.3217 190.19C63.4017 189.843 63.4451 189.463 63.4517 189.05C63.4584 188.63 63.4617 188.317 63.4617 188.11L64.0217 188.4C63.5217 188.467 62.9784 188.533 62.3917 188.6C61.8117 188.667 61.2384 188.743 60.6717 188.83C60.1117 188.917 59.6051 189.02 59.1517 189.14C58.8451 189.227 58.5484 189.35 58.2617 189.51C57.9751 189.663 57.7384 189.87 57.5517 190.13C57.3717 190.39 57.2817 190.713 57.2817 191.1C57.2817 191.413 57.3584 191.717 57.5117 192.01C57.6717 192.303 57.9251 192.547 58.2717 192.74C58.6251 192.933 59.0917 193.03 59.6717 193.03ZM71.215 194.3C70.2083 194.3 69.3483 194.05 68.635 193.55C67.9217 193.043 67.375 192.36 66.995 191.5C66.615 190.64 66.425 189.67 66.425 188.59C66.425 187.517 66.6117 186.55 66.985 185.69C67.365 184.83 67.9083 184.15 68.615 183.65C69.3217 183.15 70.1683 182.9 71.155 182.9C72.1683 182.9 73.0217 183.147 73.715 183.64C74.4083 184.133 74.9317 184.81 75.285 185.67C75.645 186.523 75.825 187.497 75.825 188.59C75.825 189.663 75.6483 190.633 75.295 191.5C74.9417 192.36 74.4217 193.043 73.735 193.55C73.0483 194.05 72.2083 194.3 71.215 194.3ZM71.365 192.93C72.1317 192.93 72.765 192.743 73.265 192.37C73.765 191.997 74.1383 191.483 74.385 190.83C74.6317 190.17 74.755 189.423 74.755 188.59C74.755 187.743 74.6317 186.997 74.385 186.35C74.1383 185.697 73.765 185.187 73.265 184.82C72.7717 184.453 72.1483 184.27 71.395 184.27C70.6217 184.27 69.9817 184.46 69.475 184.84C68.9683 185.22 68.5917 185.737 68.345 186.39C68.105 187.043 67.985 187.777 67.985 188.59C67.985 189.41 68.1083 190.15 68.355 190.81C68.6083 191.463 68.985 191.98 69.485 192.36C69.985 192.74 70.6117 192.93 71.365 192.93ZM74.755 194V185.87H74.595V179.6H76.075V194H74.755ZM78.5805 181.15V179.5H80.0505V181.15H78.5805ZM78.5805 194V183.2H80.0505V194H78.5805ZM85.6384 194.3C84.8251 194.3 84.1418 194.153 83.5884 193.86C83.0418 193.567 82.6318 193.177 82.3584 192.69C82.0851 192.203 81.9484 191.673 81.9484 191.1C81.9484 190.513 82.0651 190.013 82.2984 189.6C82.5384 189.18 82.8618 188.837 83.2684 188.57C83.6818 188.303 84.1584 188.1 84.6984 187.96C85.2451 187.827 85.8484 187.71 86.5084 187.61C87.1751 187.503 87.8251 187.413 88.4584 187.34C89.0984 187.26 89.6584 187.183 90.1384 187.11L89.6184 187.43C89.6384 186.363 89.4318 185.573 88.9984 185.06C88.5651 184.547 87.8118 184.29 86.7384 184.29C85.9984 184.29 85.3718 184.457 84.8584 184.79C84.3518 185.123 83.9951 185.65 83.7884 186.37L82.3584 185.95C82.6051 184.983 83.1018 184.233 83.8484 183.7C84.5951 183.167 85.5651 182.9 86.7584 182.9C87.7451 182.9 88.5818 183.087 89.2684 183.46C89.9618 183.827 90.4518 184.36 90.7384 185.06C90.8718 185.373 90.9584 185.723 90.9984 186.11C91.0384 186.497 91.0584 186.89 91.0584 187.29V194H89.7484V191.29L90.1284 191.45C89.7618 192.377 89.1918 193.083 88.4184 193.57C87.6451 194.057 86.7184 194.3 85.6384 194.3ZM85.8084 193.03C86.4951 193.03 87.0951 192.907 87.6084 192.66C88.1218 192.413 88.5351 192.077 88.8484 191.65C89.1618 191.217 89.3651 190.73 89.4584 190.19C89.5384 189.843 89.5818 189.463 89.5884 189.05C89.5951 188.63 89.5984 188.317 89.5984 188.11L90.1584 188.4C89.6584 188.467 89.1151 188.533 88.5284 188.6C87.9484 188.667 87.3751 188.743 86.8084 188.83C86.2484 188.917 85.7418 189.02 85.2884 189.14C84.9818 189.227 84.6851 189.35 84.3984 189.51C84.1118 189.663 83.8751 189.87 83.6884 190.13C83.5084 190.39 83.4184 190.713 83.4184 191.1C83.4184 191.413 83.4951 191.717 83.6484 192.01C83.8084 192.303 84.0618 192.547 84.4084 192.74C84.7618 192.933 85.2284 193.03 85.8084 193.03ZM100.962 194V188.49C100.962 187.89 100.905 187.34 100.792 186.84C100.678 186.333 100.495 185.893 100.242 185.52C99.9951 185.14 99.6717 184.847 99.2717 184.64C98.8784 184.433 98.3984 184.33 97.8317 184.33C97.3117 184.33 96.8517 184.42 96.4517 184.6C96.0584 184.78 95.7251 185.04 95.4517 185.38C95.1851 185.713 94.9817 186.12 94.8417 186.6C94.7017 187.08 94.6317 187.627 94.6317 188.24L93.5917 188.01C93.5917 186.903 93.7851 185.973 94.1717 185.22C94.5584 184.467 95.0917 183.897 95.7717 183.51C96.4517 183.123 97.2317 182.93 98.1117 182.93C98.7584 182.93 99.3217 183.03 99.8017 183.23C100.288 183.43 100.698 183.7 101.032 184.04C101.372 184.38 101.645 184.77 101.852 185.21C102.058 185.643 102.208 186.107 102.302 186.6C102.395 187.087 102.442 187.573 102.442 188.06V194H100.962ZM93.1517 194V183.2H94.4817V185.86H94.6317V194H93.1517ZM108.041 194V179.6H113.601C113.741 179.6 113.897 179.607 114.071 179.62C114.251 179.627 114.431 179.647 114.611 179.68C115.364 179.793 116.001 180.057 116.521 180.47C117.047 180.877 117.444 181.39 117.711 182.01C117.984 182.63 118.121 183.317 118.121 184.07C118.121 185.157 117.834 186.1 117.261 186.9C116.687 187.7 115.867 188.203 114.801 188.41L114.291 188.53H109.511V194H108.041ZM116.761 194L113.921 188.14L115.331 187.6L118.451 194H116.761ZM109.511 187.13H113.561C113.681 187.13 113.821 187.123 113.981 187.11C114.141 187.097 114.297 187.073 114.451 187.04C114.944 186.933 115.347 186.73 115.661 186.43C115.981 186.13 116.217 185.773 116.371 185.36C116.531 184.947 116.611 184.517 116.611 184.07C116.611 183.623 116.531 183.193 116.371 182.78C116.217 182.36 115.981 182 115.661 181.7C115.347 181.4 114.944 181.197 114.451 181.09C114.297 181.057 114.141 181.037 113.981 181.03C113.821 181.017 113.681 181.01 113.561 181.01H109.511V187.13ZM127.958 194V188.49C127.958 187.89 127.901 187.34 127.788 186.84C127.674 186.333 127.491 185.893 127.238 185.52C126.991 185.14 126.668 184.847 126.268 184.64C125.874 184.433 125.394 184.33 124.828 184.33C124.308 184.33 123.848 184.42 123.448 184.6C123.054 184.78 122.721 185.04 122.448 185.38C122.181 185.713 121.978 186.12 121.838 186.6C121.698 187.08 121.628 187.627 121.628 188.24L120.588 188.01C120.588 186.903 120.781 185.973 121.168 185.22C121.554 184.467 122.088 183.897 122.768 183.51C123.448 183.123 124.228 182.93 125.108 182.93C125.754 182.93 126.318 183.03 126.798 183.23C127.284 183.43 127.694 183.7 128.028 184.04C128.368 184.38 128.641 184.77 128.848 185.21C129.054 185.643 129.204 186.107 129.298 186.6C129.391 187.087 129.438 187.573 129.438 188.06V194H127.958ZM120.148 194V179.6H121.478V187.73H121.628V194H120.148ZM133.073 198.8L135.163 193.13L135.193 194.81L130.463 183.2H132.023L135.903 192.91H135.263L138.843 183.2H140.343L134.543 198.8H133.073ZM148.26 194C147.654 194.127 147.054 194.177 146.46 194.15C145.874 194.123 145.347 193.997 144.88 193.77C144.42 193.543 144.07 193.19 143.83 192.71C143.637 192.31 143.53 191.907 143.51 191.5C143.497 191.087 143.49 190.617 143.49 190.09V180.2H144.95V190.03C144.95 190.483 144.954 190.863 144.96 191.17C144.974 191.47 145.044 191.737 145.17 191.97C145.41 192.417 145.79 192.683 146.31 192.77C146.837 192.857 147.487 192.837 148.26 192.71V194ZM141.18 184.46V183.2H148.26V184.46H141.18ZM157.688 194V188.49C157.688 187.89 157.632 187.34 157.518 186.84C157.405 186.333 157.222 185.893 156.968 185.52C156.722 185.14 156.398 184.847 155.998 184.64C155.605 184.433 155.125 184.33 154.558 184.33C154.038 184.33 153.578 184.42 153.178 184.6C152.785 184.78 152.452 185.04 152.178 185.38C151.912 185.713 151.708 186.12 151.568 186.6C151.428 187.08 151.358 187.627 151.358 188.24L150.318 188.01C150.318 186.903 150.512 185.973 150.898 185.22C151.285 184.467 151.818 183.897 152.498 183.51C153.178 183.123 153.958 182.93 154.838 182.93C155.485 182.93 156.048 183.03 156.528 183.23C157.015 183.43 157.425 183.7 157.758 184.04C158.098 184.38 158.372 184.77 158.578 185.21C158.785 185.643 158.935 186.107 159.028 186.6C159.122 187.087 159.168 187.573 159.168 188.06V194H157.688ZM149.878 194V179.6H151.208V187.73H151.358V194H149.878ZM174.143 194L174.153 186.91C174.153 186.077 173.92 185.423 173.453 184.95C172.993 184.47 172.407 184.23 171.693 184.23C171.287 184.23 170.89 184.323 170.503 184.51C170.117 184.697 169.797 184.997 169.543 185.41C169.297 185.823 169.173 186.363 169.173 187.03L168.303 186.78C168.283 186.007 168.433 185.33 168.753 184.75C169.08 184.17 169.527 183.72 170.093 183.4C170.667 183.073 171.313 182.91 172.033 182.91C173.12 182.91 173.99 183.247 174.643 183.92C175.297 184.587 175.623 185.49 175.623 186.63L175.613 194H174.143ZM161.253 194V183.2H162.573V185.86H162.733V194H161.253ZM167.713 194L167.723 187.01C167.723 186.15 167.493 185.473 167.033 184.98C166.58 184.48 165.98 184.23 165.233 184.23C164.487 184.23 163.883 184.487 163.423 185C162.963 185.507 162.733 186.183 162.733 187.03L161.853 186.55C161.853 185.857 162.017 185.237 162.343 184.69C162.67 184.137 163.117 183.703 163.683 183.39C164.25 183.07 164.893 182.91 165.613 182.91C166.3 182.91 166.91 183.057 167.443 183.35C167.983 183.643 168.407 184.07 168.713 184.63C169.02 185.19 169.173 185.87 169.173 186.67L169.163 194H167.713Z" fill="#1B1C1A"/>
<rect x="20" y="225" width="350" height="143.5" rx="4" fill="#F5F3F0"/>
<path d="M59.75 268.5C60.7917 268.5 61.6771 268.135 62.4062 267.406C63.1354 266.677 63.5 265.792 63.5 264.75C63.5 263.708 63.1354 262.823 62.4062 262.094C61.6771 261.365 60.7917 261 59.75 261C58.7083 261 57.8229 261.365 57.0938 262.094C56.3646 262.823 56 263.708 56 264.75C56 265.792 56.3646 266.677 57.0938 267.406C57.8229 268.135 58.7083 268.5 59.75 268.5ZM59.75 271C58.0208 271 56.5469 270.391 55.3281 269.172C54.1094 267.953 53.5 266.479 53.5 264.75C53.5 263.021 54.1094 261.547 55.3281 260.328C56.5469 259.109 58.0208 258.5 59.75 258.5C61.4792 258.5 62.9531 259.109 64.1719 260.328C65.3906 261.547 66 263.021 66 264.75C66 266.479 65.3906 267.953 64.1719 269.172C62.9531 270.391 61.4792 271 59.75 271ZM51 266H46V263.5H51V266ZM73.5 266H68.5V263.5H73.5V266ZM58.5 256V251H61V256H58.5ZM58.5 278.5V273.5H61V278.5H58.5ZM52.75 259.438L49.5938 256.406L51.375 254.562L54.375 257.688L52.75 259.438ZM68.125 274.938L65.0938 271.781L66.75 270.062L69.9062 273.094L68.125 274.938ZM65.0625 257.75L68.0938 254.594L69.9375 256.375L66.8125 259.375L65.0625 257.75ZM49.5625 273.125L52.7188 270.094L54.4375 271.75L51.4062 274.906L49.5625 273.125Z" fill="#1B1C1A"/>
<path d="M47.12 312.5V300.98H54.32V302.108H48.296V306.092H53.36V307.22H48.296V311.372H54.32V312.5H47.12ZM58.717 312.74C58.0663 312.74 57.5197 312.623 57.077 312.388C56.6397 312.153 56.3117 311.841 56.093 311.452C55.8743 311.063 55.765 310.639 55.765 310.18C55.765 309.711 55.8583 309.311 56.045 308.98C56.237 308.644 56.4957 308.369 56.821 308.156C57.1517 307.943 57.533 307.78 57.965 307.668C58.4023 307.561 58.885 307.468 59.413 307.388C59.9463 307.303 60.4663 307.231 60.973 307.172C61.485 307.108 61.933 307.047 62.317 306.988L61.901 307.244C61.917 306.391 61.7517 305.759 61.405 305.348C61.0583 304.937 60.4557 304.732 59.597 304.732C59.005 304.732 58.5037 304.865 58.093 305.132C57.6877 305.399 57.4023 305.82 57.237 306.396L56.093 306.06C56.2903 305.287 56.6877 304.687 57.285 304.26C57.8823 303.833 58.6583 303.62 59.613 303.62C60.4023 303.62 61.0717 303.769 61.621 304.068C62.1757 304.361 62.5677 304.788 62.797 305.348C62.9037 305.599 62.973 305.879 63.005 306.188C63.037 306.497 63.053 306.812 63.053 307.132V312.5H62.005V310.332L62.309 310.46C62.0157 311.201 61.5597 311.767 60.941 312.156C60.3223 312.545 59.581 312.74 58.717 312.74ZM58.853 311.724C59.4023 311.724 59.8823 311.625 60.293 311.428C60.7037 311.231 61.0343 310.961 61.285 310.62C61.5357 310.273 61.6983 309.884 61.773 309.452C61.837 309.175 61.8717 308.871 61.877 308.54C61.8823 308.204 61.885 307.953 61.885 307.788L62.333 308.02C61.933 308.073 61.4983 308.127 61.029 308.18C60.565 308.233 60.1063 308.295 59.653 308.364C59.205 308.433 58.7997 308.516 58.437 308.612C58.1917 308.681 57.9543 308.78 57.725 308.908C57.4957 309.031 57.3063 309.196 57.157 309.404C57.013 309.612 56.941 309.871 56.941 310.18C56.941 310.431 57.0023 310.673 57.125 310.908C57.253 311.143 57.4557 311.337 57.733 311.492C58.0157 311.647 58.389 311.724 58.853 311.724ZM65.1356 312.5V303.86H66.1916V305.94L65.9836 305.668C66.0796 305.412 66.205 305.177 66.3596 304.964C66.5143 304.745 66.6823 304.567 66.8636 304.428C67.0876 304.231 67.349 304.081 67.6476 303.98C67.9463 303.873 68.2476 303.812 68.5516 303.796C68.8556 303.775 69.133 303.796 69.3836 303.86V304.964C69.069 304.884 68.725 304.865 68.3516 304.908C67.9783 304.951 67.6343 305.1 67.3196 305.356C67.0316 305.58 66.8156 305.849 66.6716 306.164C66.5276 306.473 66.4316 306.804 66.3836 307.156C66.3356 307.503 66.3116 307.847 66.3116 308.188V312.5H65.1356ZM71.0613 312.5V300.74H72.2373V312.5H71.0613ZM75.8676 316.34L77.5396 311.804L77.5636 313.148L73.7796 303.86H75.0276L78.1316 311.628H77.6196L80.4836 303.86H81.6836L77.0436 316.34H75.8676ZM86.2763 312.5V300.98H90.7243C91.3696 300.98 91.9323 301.113 92.4123 301.38C92.8923 301.647 93.2656 302.007 93.5323 302.46C93.7989 302.908 93.9323 303.404 93.9323 303.948C93.9323 304.567 93.7669 305.119 93.4363 305.604C93.1056 306.084 92.6629 306.417 92.1083 306.604L92.0923 306.212C92.8389 306.425 93.4256 306.799 93.8523 307.332C94.2789 307.865 94.4923 308.511 94.4923 309.268C94.4923 309.935 94.3509 310.511 94.0683 310.996C93.7856 311.476 93.3883 311.847 92.8763 312.108C92.3643 312.369 91.7696 312.5 91.0923 312.5H86.2763ZM87.4603 311.372H90.8043C91.2736 311.372 91.6949 311.289 92.0683 311.124C92.4416 310.953 92.7349 310.713 92.9483 310.404C93.1669 310.095 93.2763 309.721 93.2763 309.284C93.2763 308.857 93.1776 308.473 92.9803 308.132C92.7829 307.791 92.5136 307.519 92.1723 307.316C91.8363 307.108 91.4523 307.004 91.0203 307.004H87.4603V311.372ZM87.4603 305.892H90.7163C91.0843 305.892 91.4203 305.809 91.7243 305.644C92.0283 305.473 92.2683 305.241 92.4443 304.948C92.6256 304.655 92.7163 304.316 92.7163 303.932C92.7163 303.388 92.5269 302.945 92.1483 302.604C91.7749 302.263 91.2976 302.092 90.7163 302.092H87.4603V305.892ZM96.2488 302.22V300.9H97.4248V302.22H96.2488ZM96.2488 312.5V303.86H97.4248V312.5H96.2488ZM99.8231 312.5V303.86H100.879V305.94L100.671 305.668C100.767 305.412 100.892 305.177 101.047 304.964C101.202 304.745 101.37 304.567 101.551 304.428C101.775 304.231 102.036 304.081 102.335 303.98C102.634 303.873 102.935 303.812 103.239 303.796C103.543 303.775 103.82 303.796 104.071 303.86V304.964C103.756 304.884 103.412 304.865 103.039 304.908C102.666 304.951 102.322 305.1 102.007 305.356C101.719 305.58 101.503 305.849 101.359 306.164C101.215 306.473 101.119 306.804 101.071 307.156C101.023 307.503 100.999 307.847 100.999 308.188V312.5H99.8231ZM108.785 312.74C107.979 312.74 107.291 312.54 106.721 312.14C106.15 311.735 105.713 311.188 105.409 310.5C105.105 309.812 104.953 309.036 104.953 308.172C104.953 307.313 105.102 306.54 105.401 305.852C105.705 305.164 106.139 304.62 106.705 304.22C107.27 303.82 107.947 303.62 108.737 303.62C109.547 303.62 110.23 303.817 110.785 304.212C111.339 304.607 111.758 305.148 112.041 305.836C112.329 306.519 112.473 307.297 112.473 308.172C112.473 309.031 112.331 309.807 112.049 310.5C111.766 311.188 111.35 311.735 110.801 312.14C110.251 312.54 109.579 312.74 108.785 312.74ZM108.905 311.644C109.518 311.644 110.025 311.495 110.425 311.196C110.825 310.897 111.123 310.487 111.321 309.964C111.518 309.436 111.617 308.839 111.617 308.172C111.617 307.495 111.518 306.897 111.321 306.38C111.123 305.857 110.825 305.449 110.425 305.156C110.03 304.863 109.531 304.716 108.929 304.716C108.31 304.716 107.798 304.868 107.393 305.172C106.987 305.476 106.686 305.889 106.489 306.412C106.297 306.935 106.201 307.521 106.201 308.172C106.201 308.828 106.299 309.42 106.497 309.948C106.699 310.471 107.001 310.884 107.401 311.188C107.801 311.492 108.302 311.644 108.905 311.644ZM111.617 312.5V305.996H111.489V300.98H112.673V312.5H111.617Z" fill="#1B1C1A"/>
<path d="M46.28 337.5L49.752 327.42H51.117L54.589 337.5H53.518L50.221 327.994H50.627L47.351 337.5H46.28ZM47.827 335.057V334.091H53.035V335.057H47.827ZM58.989 337.71C58.2284 337.71 57.5844 337.54 57.057 337.199C56.5297 336.858 56.1284 336.389 55.853 335.792C55.5824 335.19 55.4424 334.499 55.433 333.72C55.4424 332.927 55.587 332.231 55.867 331.634C56.147 331.032 56.5507 330.565 57.078 330.234C57.6054 329.898 58.2447 329.73 58.996 329.73C59.7614 329.73 60.4264 329.917 60.991 330.29C61.5604 330.663 61.95 331.174 62.16 331.823L61.152 332.145C60.9747 331.692 60.6924 331.342 60.305 331.095C59.9224 330.843 59.4837 330.717 58.989 330.717C58.4337 330.717 57.974 330.845 57.61 331.102C57.246 331.354 56.9754 331.706 56.798 332.159C56.6207 332.612 56.5297 333.132 56.525 333.72C56.5344 334.625 56.7444 335.353 57.155 335.904C57.5657 336.45 58.177 336.723 58.989 336.723C59.5024 336.723 59.9387 336.606 60.298 336.373C60.662 336.135 60.9374 335.79 61.124 335.337L62.16 335.645C61.88 336.317 61.4694 336.83 60.928 337.185C60.3867 337.535 59.7404 337.71 58.989 337.71ZM67.721 337.5C67.2963 337.589 66.8763 337.624 66.461 337.605C66.0503 337.586 65.6817 337.498 65.355 337.339C65.033 337.18 64.788 336.933 64.62 336.597C64.4847 336.317 64.41 336.035 64.396 335.75C64.3867 335.461 64.382 335.132 64.382 334.763V327.84H65.404V334.721C65.404 335.038 65.4063 335.304 65.411 335.519C65.4203 335.729 65.4693 335.916 65.558 336.079C65.726 336.392 65.992 336.578 66.356 336.639C66.7247 336.7 67.1797 336.686 67.721 336.597V337.5ZM62.765 330.822V329.94H67.721V330.822H62.765ZM69.3505 328.505V327.35H70.3795V328.505H69.3505ZM69.3505 337.5V329.94H70.3795V337.5H69.3505ZM74.522 337.5L71.778 329.94H72.821L75.054 336.156L77.273 329.94H78.33L75.586 337.5H74.522ZM82.513 337.71C81.7757 337.71 81.1363 337.547 80.595 337.22C80.0583 336.893 79.6407 336.434 79.342 335.841C79.0433 335.248 78.894 334.553 78.894 333.755C78.894 332.929 79.041 332.215 79.335 331.613C79.629 331.011 80.042 330.547 80.574 330.22C81.1107 329.893 81.743 329.73 82.471 329.73C83.2177 329.73 83.8547 329.903 84.382 330.248C84.9093 330.589 85.3083 331.079 85.579 331.718C85.8497 332.357 85.9733 333.12 85.95 334.007H84.9V333.643C84.8813 332.663 84.669 331.923 84.263 331.424C83.8617 330.925 83.2737 330.675 82.499 330.675C81.687 330.675 81.064 330.939 80.63 331.466C80.2007 331.993 79.986 332.745 79.986 333.72C79.986 334.672 80.2007 335.412 80.63 335.939C81.064 336.462 81.6777 336.723 82.471 336.723C83.0123 336.723 83.4837 336.599 83.885 336.352C84.291 336.1 84.6107 335.738 84.844 335.267L85.803 335.638C85.5043 336.296 85.0633 336.807 84.48 337.171C83.9013 337.53 83.2457 337.71 82.513 337.71ZM79.622 334.007V333.146H85.397V334.007H79.622ZM93.7012 337.71C93.0058 337.71 92.4178 337.535 91.9372 337.185C91.4565 336.83 91.0925 336.352 90.8452 335.75C90.5978 335.143 90.4742 334.464 90.4742 333.713C90.4742 332.948 90.5978 332.266 90.8452 331.669C91.0972 331.067 91.4658 330.593 91.9512 330.248C92.4365 329.903 93.0338 329.73 93.7432 329.73C94.4338 329.73 95.0265 329.905 95.5212 330.255C96.0158 330.605 96.3938 331.081 96.6552 331.683C96.9212 332.285 97.0542 332.962 97.0542 333.713C97.0542 334.469 96.9212 335.148 96.6552 335.75C96.3892 336.352 96.0065 336.83 95.5072 337.185C95.0078 337.535 94.4058 337.71 93.7012 337.71ZM90.2992 337.5V327.42H91.3352V331.809H91.2232V337.5H90.2992ZM93.5962 336.751C94.1235 336.751 94.5622 336.618 94.9122 336.352C95.2622 336.086 95.5235 335.724 95.6962 335.267C95.8735 334.805 95.9622 334.287 95.9622 333.713C95.9622 333.144 95.8758 332.63 95.7032 332.173C95.5305 331.716 95.2668 331.354 94.9122 331.088C94.5622 330.822 94.1165 330.689 93.5752 330.689C93.0478 330.689 92.6092 330.817 92.2592 331.074C91.9138 331.331 91.6548 331.688 91.4822 332.145C91.3095 332.598 91.2232 333.12 91.2232 333.713C91.2232 334.296 91.3095 334.819 91.4822 335.281C91.6548 335.738 91.9162 336.098 92.2662 336.359C92.6162 336.62 93.0595 336.751 93.5962 336.751ZM99.3002 340.86L100.763 336.891L100.784 338.067L97.4732 329.94H98.5652L101.281 336.737H100.833L103.339 329.94H104.389L100.329 340.86H99.3002ZM111.229 337.703C110.342 337.703 109.612 337.512 109.038 337.129C108.468 336.746 108.118 336.214 107.988 335.533L109.038 335.358C109.15 335.787 109.404 336.13 109.801 336.387C110.202 336.639 110.697 336.765 111.285 336.765C111.859 336.765 112.311 336.646 112.643 336.408C112.974 336.165 113.14 335.836 113.14 335.421C113.14 335.188 113.086 334.999 112.979 334.854C112.876 334.705 112.664 334.567 112.342 334.441C112.02 334.315 111.539 334.166 110.9 333.993C110.214 333.806 109.677 333.62 109.29 333.433C108.902 333.246 108.627 333.032 108.464 332.789C108.3 332.542 108.219 332.241 108.219 331.886C108.219 331.457 108.34 331.081 108.583 330.759C108.825 330.432 109.161 330.18 109.591 330.003C110.02 329.821 110.519 329.73 111.089 329.73C111.658 329.73 112.167 329.823 112.615 330.01C113.067 330.192 113.431 330.449 113.707 330.78C113.982 331.111 114.145 331.496 114.197 331.935L113.147 332.124C113.077 331.681 112.855 331.331 112.482 331.074C112.113 330.813 111.644 330.677 111.075 330.668C110.538 330.654 110.102 330.757 109.766 330.976C109.43 331.191 109.262 331.478 109.262 331.837C109.262 332.038 109.322 332.21 109.444 332.355C109.565 332.495 109.784 332.628 110.102 332.754C110.424 332.88 110.881 333.018 111.474 333.167C112.169 333.344 112.715 333.531 113.112 333.727C113.508 333.923 113.791 334.154 113.959 334.42C114.127 334.686 114.211 335.015 114.211 335.407C114.211 336.121 113.945 336.683 113.413 337.094C112.885 337.5 112.157 337.703 111.229 337.703ZM118.654 337.689C118.202 337.689 117.805 337.619 117.464 337.479C117.128 337.339 116.841 337.15 116.603 336.912C116.37 336.674 116.181 336.403 116.036 336.1C115.892 335.792 115.787 335.468 115.721 335.127C115.656 334.782 115.623 334.439 115.623 334.098V329.94H116.659V333.797C116.659 334.212 116.699 334.597 116.778 334.952C116.858 335.307 116.984 335.617 117.156 335.883C117.334 336.144 117.56 336.347 117.835 336.492C118.115 336.637 118.454 336.709 118.85 336.709C119.214 336.709 119.534 336.646 119.809 336.52C120.089 336.394 120.323 336.214 120.509 335.981C120.701 335.743 120.845 335.456 120.943 335.12C121.041 334.779 121.09 334.397 121.09 333.972L121.818 334.133C121.818 334.908 121.683 335.559 121.412 336.086C121.142 336.613 120.768 337.012 120.292 337.283C119.816 337.554 119.27 337.689 118.654 337.689ZM121.195 337.5V335.638H121.09V329.94H122.119V337.5H121.195ZM129.536 337.5V333.643C129.536 333.223 129.496 332.838 129.417 332.488C129.337 332.133 129.209 331.825 129.032 331.564C128.859 331.298 128.633 331.093 128.353 330.948C128.077 330.803 127.741 330.731 127.345 330.731C126.981 330.731 126.659 330.794 126.379 330.92C126.103 331.046 125.87 331.228 125.679 331.466C125.492 331.699 125.35 331.984 125.252 332.32C125.154 332.656 125.105 333.039 125.105 333.468L124.377 333.307C124.377 332.532 124.512 331.881 124.783 331.354C125.053 330.827 125.427 330.428 125.903 330.157C126.379 329.886 126.925 329.751 127.541 329.751C127.993 329.751 128.388 329.821 128.724 329.961C129.064 330.101 129.351 330.29 129.585 330.528C129.823 330.766 130.014 331.039 130.159 331.347C130.303 331.65 130.408 331.975 130.474 332.32C130.539 332.661 130.572 333.001 130.572 333.342V337.5H129.536ZM124.069 337.5V329.94H125V331.802H125.105V337.5H124.069ZM132.388 337.5V329.94H133.312V331.76L133.13 331.522C133.214 331.298 133.324 331.093 133.459 330.906C133.595 330.715 133.742 330.558 133.9 330.437C134.096 330.264 134.325 330.134 134.586 330.045C134.848 329.952 135.111 329.898 135.377 329.884C135.643 329.865 135.886 329.884 136.105 329.94V330.906C135.83 330.836 135.529 330.82 135.202 330.857C134.876 330.894 134.575 331.025 134.299 331.249C134.047 331.445 133.858 331.681 133.732 331.956C133.606 332.227 133.522 332.516 133.48 332.824C133.438 333.127 133.417 333.428 133.417 333.727V337.5H132.388ZM137.573 328.505V327.35H138.602V328.505H137.573ZM137.573 337.5V329.94H138.602V337.5H137.573ZM143.522 337.703C142.635 337.703 141.905 337.512 141.331 337.129C140.761 336.746 140.411 336.214 140.281 335.533L141.331 335.358C141.443 335.787 141.697 336.13 142.094 336.387C142.495 336.639 142.99 336.765 143.578 336.765C144.152 336.765 144.604 336.646 144.936 336.408C145.267 336.165 145.433 335.836 145.433 335.421C145.433 335.188 145.379 334.999 145.272 334.854C145.169 334.705 144.957 334.567 144.635 334.441C144.313 334.315 143.832 334.166 143.193 333.993C142.507 333.806 141.97 333.62 141.583 333.433C141.195 333.246 140.92 333.032 140.757 332.789C140.593 332.542 140.512 332.241 140.512 331.886C140.512 331.457 140.633 331.081 140.876 330.759C141.118 330.432 141.454 330.18 141.884 330.003C142.313 329.821 142.812 329.73 143.382 329.73C143.951 329.73 144.46 329.823 144.908 330.01C145.36 330.192 145.724 330.449 146 330.78C146.275 331.111 146.438 331.496 146.49 331.935L145.44 332.124C145.37 331.681 145.148 331.331 144.775 331.074C144.406 330.813 143.937 330.677 143.368 330.668C142.831 330.654 142.395 330.757 142.059 330.976C141.723 331.191 141.555 331.478 141.555 331.837C141.555 332.038 141.615 332.21 141.737 332.355C141.858 332.495 142.077 332.628 142.395 332.754C142.717 332.88 143.174 333.018 143.767 333.167C144.462 333.344 145.008 333.531 145.405 333.727C145.801 333.923 146.084 334.154 146.252 334.42C146.42 334.686 146.504 335.015 146.504 335.407C146.504 336.121 146.238 336.683 145.706 337.094C145.178 337.5 144.45 337.703 143.522 337.703ZM151.255 337.71C150.518 337.71 149.879 337.547 149.337 337.22C148.801 336.893 148.383 336.434 148.084 335.841C147.786 335.248 147.636 334.553 147.636 333.755C147.636 332.929 147.783 332.215 148.077 331.613C148.371 331.011 148.784 330.547 149.316 330.22C149.853 329.893 150.485 329.73 151.213 329.73C151.96 329.73 152.597 329.903 153.124 330.248C153.652 330.589 154.051 331.079 154.321 331.718C154.592 332.357 154.716 333.12 154.692 334.007H153.642V333.643C153.624 332.663 153.411 331.923 153.005 331.424C152.604 330.925 152.016 330.675 151.241 330.675C150.429 330.675 149.806 330.939 149.372 331.466C148.943 331.993 148.728 332.745 148.728 333.72C148.728 334.672 148.943 335.412 149.372 335.939C149.806 336.462 150.42 336.723 151.213 336.723C151.755 336.723 152.226 336.599 152.627 336.352C153.033 336.1 153.353 335.738 153.586 335.267L154.545 335.638C154.247 336.296 153.806 336.807 153.222 337.171C152.644 337.53 151.988 337.71 151.255 337.71ZM148.364 334.007V333.146H154.139V334.007H148.364ZM155.832 338.963L155.895 338.452C156.082 338.466 156.217 338.429 156.301 338.34C156.385 338.251 156.437 338.132 156.455 337.983C156.474 337.834 156.479 337.673 156.469 337.5H155.832V336.023H157.029V337.78C157.029 338.209 156.92 338.531 156.7 338.746C156.486 338.961 156.196 339.033 155.832 338.963ZM165.427 337.71C164.722 337.71 164.12 337.535 163.621 337.185C163.121 336.83 162.739 336.352 162.473 335.75C162.207 335.148 162.074 334.469 162.074 333.713C162.074 332.962 162.204 332.285 162.466 331.683C162.732 331.081 163.112 330.605 163.607 330.255C164.101 329.905 164.694 329.73 165.385 329.73C166.094 329.73 166.691 329.903 167.177 330.248C167.662 330.593 168.028 331.067 168.276 331.669C168.528 332.266 168.654 332.948 168.654 333.713C168.654 334.464 168.53 335.143 168.283 335.75C168.035 336.352 167.671 336.83 167.191 337.185C166.71 337.535 166.122 337.71 165.427 337.71ZM165.532 336.751C166.068 336.751 166.512 336.62 166.862 336.359C167.212 336.098 167.473 335.738 167.646 335.281C167.818 334.819 167.905 334.296 167.905 333.713C167.905 333.12 167.818 332.598 167.646 332.145C167.473 331.688 167.212 331.331 166.862 331.074C166.516 330.817 166.08 330.689 165.553 330.689C165.011 330.689 164.563 330.822 164.209 331.088C163.854 331.354 163.59 331.716 163.418 332.173C163.25 332.63 163.166 333.144 163.166 333.713C163.166 334.287 163.252 334.805 163.425 335.267C163.602 335.724 163.866 336.086 164.216 336.352C164.566 336.618 165.004 336.751 165.532 336.751ZM167.793 340.86V335.631H167.905V329.94H168.829V340.86H167.793ZM173.684 337.689C173.231 337.689 172.834 337.619 172.494 337.479C172.158 337.339 171.871 337.15 171.633 336.912C171.399 336.674 171.21 336.403 171.066 336.1C170.921 335.792 170.816 335.468 170.751 335.127C170.685 334.782 170.653 334.439 170.653 334.098V329.94H171.689V333.797C171.689 334.212 171.728 334.597 171.808 334.952C171.887 335.307 172.013 335.617 172.186 335.883C172.363 336.144 172.589 336.347 172.865 336.492C173.145 336.637 173.483 336.709 173.88 336.709C174.244 336.709 174.563 336.646 174.839 336.52C175.119 336.394 175.352 336.214 175.539 335.981C175.73 335.743 175.875 335.456 175.973 335.12C176.071 334.779 176.12 334.397 176.12 333.972L176.847 334.133C176.847 334.908 176.712 335.559 176.442 336.086C176.171 336.613 175.798 337.012 175.322 337.283C174.846 337.554 174.3 337.689 173.684 337.689ZM176.225 337.5V335.638H176.12V329.94H177.149V337.5H176.225ZM179.245 328.505V327.35H180.274V328.505H179.245ZM179.245 337.5V329.94H180.274V337.5H179.245ZM185.572 337.71C184.834 337.71 184.195 337.547 183.654 337.22C183.117 336.893 182.699 336.434 182.401 335.841C182.102 335.248 181.953 334.553 181.953 333.755C181.953 332.929 182.1 332.215 182.394 331.613C182.688 331.011 183.101 330.547 183.633 330.22C184.169 329.893 184.802 329.73 185.53 329.73C186.276 329.73 186.913 329.903 187.441 330.248C187.968 330.589 188.367 331.079 188.638 331.718C188.908 332.357 189.032 333.12 189.009 334.007H187.959V333.643C187.94 332.663 187.728 331.923 187.322 331.424C186.92 330.925 186.332 330.675 185.558 330.675C184.746 330.675 184.123 330.939 183.689 331.466C183.259 331.993 183.045 332.745 183.045 333.72C183.045 334.672 183.259 335.412 183.689 335.939C184.123 336.462 184.736 336.723 185.53 336.723C186.071 336.723 186.542 336.599 186.944 336.352C187.35 336.1 187.669 335.738 187.903 335.267L188.862 335.638C188.563 336.296 188.122 336.807 187.539 337.171C186.96 337.53 186.304 337.71 185.572 337.71ZM182.681 334.007V333.146H188.456V334.007H182.681ZM194.678 337.5C194.253 337.589 193.833 337.624 193.418 337.605C193.007 337.586 192.639 337.498 192.312 337.339C191.99 337.18 191.745 336.933 191.577 336.597C191.442 336.317 191.367 336.035 191.353 335.75C191.344 335.461 191.339 335.132 191.339 334.763V327.84H192.361V334.721C192.361 335.038 192.363 335.304 192.368 335.519C192.377 335.729 192.426 335.916 192.515 336.079C192.683 336.392 192.949 336.578 193.313 336.639C193.682 336.7 194.137 336.686 194.678 336.597V337.5ZM189.722 330.822V329.94H194.678V330.822H189.722ZM202.365 337.71C201.67 337.71 201.082 337.535 200.601 337.185C200.121 336.83 199.757 336.352 199.509 335.75C199.262 335.143 199.138 334.464 199.138 333.713C199.138 332.948 199.262 332.266 199.509 331.669C199.761 331.067 200.13 330.593 200.615 330.248C201.101 329.903 201.698 329.73 202.407 329.73C203.098 329.73 203.691 329.905 204.185 330.255C204.68 330.605 205.058 331.081 205.319 331.683C205.585 332.285 205.718 332.962 205.718 333.713C205.718 334.469 205.585 335.148 205.319 335.75C205.053 336.352 204.671 336.83 204.171 337.185C203.672 337.535 203.07 337.71 202.365 337.71ZM198.963 337.5V327.42H199.999V331.809H199.887V337.5H198.963ZM202.26 336.751C202.788 336.751 203.226 336.618 203.576 336.352C203.926 336.086 204.188 335.724 204.36 335.267C204.538 334.805 204.626 334.287 204.626 333.713C204.626 333.144 204.54 332.63 204.367 332.173C204.195 331.716 203.931 331.354 203.576 331.088C203.226 330.822 202.781 330.689 202.239 330.689C201.712 330.689 201.273 330.817 200.923 331.074C200.578 331.331 200.319 331.688 200.146 332.145C199.974 332.598 199.887 333.12 199.887 333.713C199.887 334.296 199.974 334.819 200.146 335.281C200.319 335.738 200.58 336.098 200.93 336.359C201.28 336.62 201.724 336.751 202.26 336.751ZM207.964 340.86L209.427 336.891L209.448 338.067L206.137 329.94H207.229L209.945 336.737H209.497L212.003 329.94H213.053L208.993 340.86H207.964ZM218.829 337.5V328.568L216.932 329.709V328.554L218.829 327.42H219.872V337.5H218.829ZM225.817 337.71C225.196 337.71 224.636 337.565 224.137 337.276C223.642 336.987 223.25 336.595 222.961 336.1C222.672 335.601 222.527 335.041 222.527 334.42V330.5C222.527 329.879 222.672 329.322 222.961 328.827C223.25 328.328 223.642 327.933 224.137 327.644C224.636 327.355 225.196 327.21 225.817 327.21C226.438 327.21 226.995 327.355 227.49 327.644C227.989 327.933 228.384 328.328 228.673 328.827C228.962 329.322 229.107 329.879 229.107 330.5V334.42C229.107 335.041 228.962 335.601 228.673 336.1C228.384 336.595 227.989 336.987 227.49 337.276C226.995 337.565 226.438 337.71 225.817 337.71ZM225.817 336.716C226.232 336.716 226.61 336.616 226.951 336.415C227.292 336.21 227.562 335.937 227.763 335.596C227.964 335.255 228.064 334.88 228.064 334.469V330.451C228.064 330.036 227.964 329.658 227.763 329.317C227.562 328.976 227.292 328.706 226.951 328.505C226.61 328.3 226.232 328.197 225.817 328.197C225.402 328.197 225.024 328.3 224.683 328.505C224.342 328.706 224.072 328.976 223.871 329.317C223.67 329.658 223.57 330.036 223.57 330.451V334.469C223.57 334.88 223.67 335.255 223.871 335.596C224.072 335.937 224.342 336.21 224.683 336.415C225.024 336.616 225.402 336.716 225.817 336.716ZM233.875 337.5V327.42H237.767C237.865 327.42 237.974 327.425 238.096 327.434C238.222 327.439 238.348 327.453 238.474 327.476C239.001 327.555 239.447 327.74 239.811 328.029C240.179 328.314 240.457 328.673 240.644 329.107C240.835 329.541 240.931 330.022 240.931 330.549C240.931 331.072 240.835 331.55 240.644 331.984C240.452 332.418 240.172 332.78 239.804 333.069C239.44 333.354 238.996 333.536 238.474 333.615C238.348 333.634 238.222 333.648 238.096 333.657C237.974 333.666 237.865 333.671 237.767 333.671H234.904V337.5H233.875ZM234.904 332.691H237.739C237.823 332.691 237.921 332.686 238.033 332.677C238.145 332.668 238.254 332.651 238.362 332.628C238.707 332.553 238.989 332.411 239.209 332.201C239.433 331.991 239.598 331.741 239.706 331.452C239.818 331.163 239.874 330.862 239.874 330.549C239.874 330.236 239.818 329.935 239.706 329.646C239.598 329.352 239.433 329.1 239.209 328.89C238.989 328.68 238.707 328.538 238.362 328.463C238.254 328.44 238.145 328.426 238.033 328.421C237.921 328.412 237.823 328.407 237.739 328.407H234.904V332.691ZM242.324 337.5V327.42H243.269L247.231 335.897L251.172 327.42H252.131V337.493H251.151V329.716L247.56 337.5H246.895L243.311 329.716V337.5H242.324ZM254.291 337.5V336.303H255.488V337.5H254.291Z" fill="#4C463C"/>
<rect x="21" y="394" width="348" height="136.5" rx="3" fill="#2C2005"/>
<rect x="21" y="394" width="348" height="136.5" rx="3" stroke="#120A00" stroke-width="2"/>
<path d="M57.25 441.5C54.125 441.5 51.4688 440.406 49.2812 438.219C47.0938 436.031 46 433.375 46 430.25C46 427.125 47.0938 424.469 49.2812 422.281C51.4688 420.094 54.125 419 57.25 419C57.5417 419 57.8281 419.01 58.1094 419.031C58.3906 419.052 58.6667 419.083 58.9375 419.125C58.0833 419.729 57.401 420.516 56.8906 421.484C56.3802 422.453 56.125 423.5 56.125 424.625C56.125 426.5 56.7812 428.094 58.0938 429.406C59.4062 430.719 61 431.375 62.875 431.375C64.0208 431.375 65.0729 431.12 66.0312 430.609C66.9896 430.099 67.7708 429.417 68.375 428.562C68.4167 428.833 68.4479 429.109 68.4688 429.391C68.4896 429.672 68.5 429.958 68.5 430.25C68.5 433.375 67.4062 436.031 65.2188 438.219C63.0312 440.406 60.375 441.5 57.25 441.5ZM57.25 439C59.0833 439 60.7292 438.495 62.1875 437.484C63.6458 436.474 64.7083 435.156 65.375 433.531C64.9583 433.635 64.5417 433.719 64.125 433.781C63.7083 433.844 63.2917 433.875 62.875 433.875C60.3125 433.875 58.1302 432.974 56.3281 431.172C54.526 429.37 53.625 427.188 53.625 424.625C53.625 424.208 53.6562 423.792 53.7188 423.375C53.7812 422.958 53.8646 422.542 53.9688 422.125C52.3438 422.792 51.026 423.854 50.0156 425.312C49.0052 426.771 48.5 428.417 48.5 430.25C48.5 432.667 49.3542 434.729 51.0625 436.438C52.7708 438.146 54.8333 439 57.25 439Z" fill="white"/>
<path d="M47.12 475.5V463.98H48.304L54.648 473.42V463.98H55.832V475.5H54.648L48.304 466.052V475.5H47.12ZM58.2331 465.22V463.9H59.4091V465.22H58.2331ZM58.2331 475.5V466.86H59.4091V475.5H58.2331ZM65.2395 479.58C64.7968 479.58 64.3595 479.513 63.9275 479.38C63.5008 479.252 63.1062 479.047 62.7435 478.764C62.3808 478.487 62.0768 478.124 61.8315 477.676L62.8955 477.084C63.1355 477.564 63.4715 477.908 63.9035 478.116C64.3408 478.329 64.7862 478.436 65.2395 478.436C65.8635 478.436 66.3675 478.319 66.7515 478.084C67.1408 477.855 67.4235 477.513 67.5995 477.06C67.7755 476.607 67.8608 476.041 67.8555 475.364V473.06H67.9915V466.86H69.0395V475.38C69.0395 475.625 69.0315 475.86 69.0155 476.084C69.0048 476.313 68.9808 476.537 68.9435 476.756C68.8422 477.401 68.6315 477.932 68.3115 478.348C67.9968 478.764 67.5808 479.073 67.0635 479.276C66.5515 479.479 65.9435 479.58 65.2395 479.58ZM65.1595 475.74C64.3542 475.74 63.6662 475.54 63.0955 475.14C62.5248 474.735 62.0875 474.188 61.7835 473.5C61.4795 472.812 61.3275 472.036 61.3275 471.172C61.3275 470.313 61.4768 469.54 61.7755 468.852C62.0795 468.164 62.5142 467.62 63.0795 467.22C63.6448 466.82 64.3222 466.62 65.1115 466.62C65.9222 466.62 66.6048 466.817 67.1595 467.212C67.7142 467.607 68.1328 468.148 68.4155 468.836C68.7035 469.519 68.8475 470.297 68.8475 471.172C68.8475 472.031 68.7062 472.807 68.4235 473.5C68.1408 474.188 67.7248 474.735 67.1755 475.14C66.6262 475.54 65.9542 475.74 65.1595 475.74ZM65.2795 474.644C65.8928 474.644 66.3995 474.495 66.7995 474.196C67.1995 473.897 67.4982 473.487 67.6955 472.964C67.8928 472.436 67.9915 471.839 67.9915 471.172C67.9915 470.495 67.8928 469.897 67.6955 469.38C67.4982 468.857 67.1995 468.449 66.7995 468.156C66.4048 467.863 65.9062 467.716 65.3035 467.716C64.6848 467.716 64.1728 467.868 63.7675 468.172C63.3622 468.476 63.0608 468.889 62.8635 469.412C62.6715 469.935 62.5755 470.521 62.5755 471.172C62.5755 471.828 62.6742 472.42 62.8715 472.948C63.0742 473.471 63.3755 473.884 63.7755 474.188C64.1755 474.492 64.6768 474.644 65.2795 474.644ZM77.5163 475.5V471.092C77.5163 470.612 77.4709 470.172 77.3803 469.772C77.2896 469.367 77.1429 469.015 76.9403 468.716C76.7429 468.412 76.4843 468.177 76.1643 468.012C75.8496 467.847 75.4656 467.764 75.0123 467.764C74.5963 467.764 74.2283 467.836 73.9083 467.98C73.5936 468.124 73.3269 468.332 73.1083 468.604C72.8949 468.871 72.7323 469.196 72.6203 469.58C72.5083 469.964 72.4523 470.401 72.4523 470.892L71.6203 470.708C71.6203 469.823 71.7749 469.079 72.0843 468.476C72.3936 467.873 72.8203 467.417 73.3643 467.108C73.9083 466.799 74.5323 466.644 75.2363 466.644C75.7536 466.644 76.2043 466.724 76.5883 466.884C76.9776 467.044 77.3056 467.26 77.5723 467.532C77.8443 467.804 78.0629 468.116 78.2283 468.468C78.3936 468.815 78.5136 469.185 78.5883 469.58C78.6629 469.969 78.7003 470.359 78.7003 470.748V475.5H77.5163ZM71.2683 475.5V463.98H72.3323V470.484H72.4523V475.5H71.2683ZM85.4803 475.5C84.9949 475.601 84.5149 475.641 84.0403 475.62C83.5709 475.599 83.1496 475.497 82.7763 475.316C82.4083 475.135 82.1283 474.852 81.9363 474.468C81.7816 474.148 81.6963 473.825 81.6803 473.5C81.6696 473.169 81.6643 472.793 81.6643 472.372V464.46H82.8323V472.324C82.8323 472.687 82.8349 472.991 82.8403 473.236C82.8509 473.476 82.9069 473.689 83.0083 473.876C83.2003 474.233 83.5043 474.447 83.9203 474.516C84.3416 474.585 84.8616 474.569 85.4803 474.468V475.5ZM79.8163 467.868V466.86H85.4803V467.868H79.8163ZM95.0496 475.74C93.903 475.74 92.935 475.487 92.1456 474.98C91.3563 474.468 90.759 473.761 90.3536 472.86C89.9483 471.959 89.7456 470.919 89.7456 469.74C89.7456 468.561 89.9483 467.521 90.3536 466.62C90.759 465.719 91.3563 465.015 92.1456 464.508C92.935 463.996 93.903 463.74 95.0496 463.74C96.2016 463.74 97.1696 463.996 97.9536 464.508C98.743 465.015 99.3403 465.719 99.7456 466.62C100.156 467.521 100.362 468.561 100.362 469.74C100.362 470.919 100.156 471.959 99.7456 472.86C99.3403 473.761 98.743 474.468 97.9536 474.98C97.1696 475.487 96.2016 475.74 95.0496 475.74ZM95.0496 474.612C95.951 474.612 96.703 474.407 97.3056 473.996C97.9083 473.585 98.359 473.015 98.6576 472.284C98.9616 471.548 99.1136 470.7 99.1136 469.74C99.1136 468.78 98.9616 467.935 98.6576 467.204C98.359 466.473 97.9083 465.903 97.3056 465.492C96.703 465.081 95.951 464.873 95.0496 464.868C94.1483 464.868 93.399 465.073 92.8016 465.484C92.2043 465.895 91.7536 466.468 91.4496 467.204C91.151 467.935 90.999 468.78 90.9936 469.74C90.9883 470.7 91.135 471.545 91.4336 472.276C91.7376 473.001 92.191 473.572 92.7936 473.988C93.3963 474.399 94.1483 474.607 95.0496 474.612ZM103.804 475.5L101.164 466.852L102.34 466.86L104.388 473.572L106.444 466.86H107.516L109.572 473.572L111.636 466.86H112.804L110.164 475.5H109.14L106.98 468.62L104.828 475.5H103.804ZM114.405 475.5V463.74H115.581V475.5H114.405Z" fill="white"/>
<path d="M51.061 500.71C50.0577 500.71 49.2107 500.488 48.52 500.045C47.8293 499.597 47.3067 498.979 46.952 498.19C46.5973 497.401 46.42 496.491 46.42 495.46C46.42 494.429 46.5973 493.519 46.952 492.73C47.3067 491.941 47.8293 491.325 48.52 490.882C49.2107 490.434 50.0577 490.21 51.061 490.21C52.2323 490.21 53.189 490.511 53.931 491.113C54.673 491.71 55.1817 492.513 55.457 493.521L54.407 493.794C54.1923 492.996 53.8073 492.364 53.252 491.897C52.6967 491.43 51.9663 491.197 51.061 491.197C50.2723 491.197 49.6167 491.377 49.094 491.736C48.5713 492.095 48.177 492.597 47.911 493.241C47.6497 493.88 47.5143 494.62 47.505 495.46C47.5003 496.3 47.6287 497.04 47.89 497.679C48.156 498.318 48.5527 498.82 49.08 499.184C49.612 499.543 50.2723 499.723 51.061 499.723C51.9663 499.723 52.6967 499.49 53.252 499.023C53.8073 498.552 54.1923 497.919 54.407 497.126L55.457 497.399C55.1817 498.407 54.673 499.212 53.931 499.814C53.189 500.411 52.2323 500.71 51.061 500.71ZM57.0015 500.5V492.94H57.9255V494.76L57.7435 494.522C57.8275 494.298 57.9372 494.093 58.0725 493.906C58.2078 493.715 58.3548 493.558 58.5135 493.437C58.7095 493.264 58.9382 493.134 59.1995 493.045C59.4608 492.952 59.7245 492.898 59.9905 492.884C60.2565 492.865 60.4992 492.884 60.7185 492.94V493.906C60.4432 493.836 60.1422 493.82 59.8155 493.857C59.4888 493.894 59.1878 494.025 58.9125 494.249C58.6605 494.445 58.4715 494.681 58.3455 494.956C58.2195 495.227 58.1355 495.516 58.0935 495.824C58.0515 496.127 58.0305 496.428 58.0305 496.727V500.5H57.0015ZM65.1087 500.71C64.3714 500.71 63.732 500.547 63.1907 500.22C62.654 499.893 62.2364 499.434 61.9377 498.841C61.639 498.248 61.4897 497.553 61.4897 496.755C61.4897 495.929 61.6367 495.215 61.9307 494.613C62.2247 494.011 62.6377 493.547 63.1697 493.22C63.7064 492.893 64.3387 492.73 65.0667 492.73C65.8134 492.73 66.4504 492.903 66.9777 493.248C67.505 493.589 67.904 494.079 68.1747 494.718C68.4454 495.357 68.569 496.12 68.5457 497.007H67.4957V496.643C67.477 495.663 67.2647 494.923 66.8587 494.424C66.4574 493.925 65.8694 493.675 65.0947 493.675C64.2827 493.675 63.6597 493.939 63.2257 494.466C62.7964 494.993 62.5817 495.745 62.5817 496.72C62.5817 497.672 62.7964 498.412 63.2257 498.939C63.6597 499.462 64.2734 499.723 65.0667 499.723C65.608 499.723 66.0794 499.599 66.4807 499.352C66.8867 499.1 67.2064 498.738 67.4397 498.267L68.3987 498.638C68.1 499.296 67.659 499.807 67.0757 500.171C66.497 500.53 65.8414 500.71 65.1087 500.71ZM62.2177 497.007V496.146H67.9927V497.007H62.2177ZM72.1254 500.71C71.5561 500.71 71.0778 500.607 70.6904 500.402C70.3078 500.197 70.0208 499.924 69.8294 499.583C69.6381 499.242 69.5424 498.871 69.5424 498.47C69.5424 498.059 69.6241 497.709 69.7874 497.42C69.9554 497.126 70.1818 496.886 70.4664 496.699C70.7558 496.512 71.0894 496.37 71.4674 496.272C71.8501 496.179 72.2724 496.097 72.7344 496.027C73.2011 495.952 73.6561 495.889 74.0994 495.838C74.5474 495.782 74.9394 495.728 75.2754 495.677L74.9114 495.901C74.9254 495.154 74.7808 494.601 74.4774 494.242C74.1741 493.883 73.6468 493.703 72.8954 493.703C72.3774 493.703 71.9388 493.82 71.5794 494.053C71.2248 494.286 70.9751 494.655 70.8304 495.159L69.8294 494.865C70.0021 494.188 70.3498 493.663 70.8724 493.29C71.3951 492.917 72.0741 492.73 72.9094 492.73C73.6001 492.73 74.1858 492.861 74.6664 493.122C75.1518 493.379 75.4948 493.752 75.6954 494.242C75.7888 494.461 75.8494 494.706 75.8774 494.977C75.9054 495.248 75.9194 495.523 75.9194 495.803V500.5H75.0024V498.603L75.2684 498.715C75.0118 499.364 74.6128 499.858 74.0714 500.199C73.5301 500.54 72.8814 500.71 72.1254 500.71ZM72.2444 499.821C72.7251 499.821 73.1451 499.735 73.5044 499.562C73.8638 499.389 74.1531 499.154 74.3724 498.855C74.5918 498.552 74.7341 498.211 74.7994 497.833C74.8554 497.59 74.8858 497.324 74.8904 497.035C74.8951 496.741 74.8974 496.522 74.8974 496.377L75.2894 496.58C74.9394 496.627 74.5591 496.673 74.1484 496.72C73.7424 496.767 73.3411 496.82 72.9444 496.881C72.5524 496.942 72.1978 497.014 71.8804 497.098C71.6658 497.159 71.4581 497.245 71.2574 497.357C71.0568 497.464 70.8911 497.609 70.7604 497.791C70.6344 497.973 70.5714 498.199 70.5714 498.47C70.5714 498.689 70.6251 498.902 70.7324 499.107C70.8444 499.312 71.0218 499.483 71.2644 499.618C71.5118 499.753 71.8384 499.821 72.2444 499.821ZM81.8577 500.5C81.4331 500.589 81.0131 500.624 80.5977 500.605C80.1871 500.586 79.8184 500.498 79.4917 500.339C79.1697 500.18 78.9247 499.933 78.7567 499.597C78.6214 499.317 78.5467 499.035 78.5327 498.75C78.5234 498.461 78.5187 498.132 78.5187 497.763V490.84H79.5407V497.721C79.5407 498.038 79.5431 498.304 79.5477 498.519C79.5571 498.729 79.6061 498.916 79.6947 499.079C79.8627 499.392 80.1287 499.578 80.4927 499.639C80.8614 499.7 81.3164 499.686 81.8577 499.597V500.5ZM76.9017 493.822V492.94H81.8577V493.822H76.9017ZM83.4872 491.505V490.35H84.5162V491.505H83.4872ZM83.4872 500.5V492.94H84.5162V500.5H83.4872ZM88.6588 500.5L85.9148 492.94H86.9578L89.1908 499.156L91.4098 492.94H92.4668L89.7228 500.5H88.6588ZM96.6497 500.71C95.9124 500.71 95.273 500.547 94.7317 500.22C94.195 499.893 93.7774 499.434 93.4787 498.841C93.18 498.248 93.0307 497.553 93.0307 496.755C93.0307 495.929 93.1777 495.215 93.4717 494.613C93.7657 494.011 94.1787 493.547 94.7107 493.22C95.2474 492.893 95.8797 492.73 96.6077 492.73C97.3544 492.73 97.9914 492.903 98.5187 493.248C99.046 493.589 99.445 494.079 99.7157 494.718C99.9864 495.357 100.11 496.12 100.087 497.007H99.0367V496.643C99.018 495.663 98.8057 494.923 98.3997 494.424C97.9984 493.925 97.4104 493.675 96.6357 493.675C95.8237 493.675 95.2007 493.939 94.7667 494.466C94.3374 494.993 94.1227 495.745 94.1227 496.72C94.1227 497.672 94.3374 498.412 94.7667 498.939C95.2007 499.462 95.8144 499.723 96.6077 499.723C97.149 499.723 97.6204 499.599 98.0217 499.352C98.4277 499.1 98.7474 498.738 98.9807 498.267L99.9397 498.638C99.641 499.296 99.2 499.807 98.6167 500.171C98.038 500.53 97.3824 500.71 96.6497 500.71ZM93.7587 497.007V496.146H99.5337V497.007H93.7587ZM106.606 500.71C106.037 500.71 105.558 500.607 105.171 500.402C104.788 500.197 104.501 499.924 104.31 499.583C104.119 499.242 104.023 498.871 104.023 498.47C104.023 498.059 104.105 497.709 104.268 497.42C104.436 497.126 104.662 496.886 104.947 496.699C105.236 496.512 105.57 496.37 105.948 496.272C106.331 496.179 106.753 496.097 107.215 496.027C107.682 495.952 108.137 495.889 108.58 495.838C109.028 495.782 109.42 495.728 109.756 495.677L109.392 495.901C109.406 495.154 109.261 494.601 108.958 494.242C108.655 493.883 108.127 493.703 107.376 493.703C106.858 493.703 106.419 493.82 106.06 494.053C105.705 494.286 105.456 494.655 105.311 495.159L104.31 494.865C104.483 494.188 104.83 493.663 105.353 493.29C105.876 492.917 106.555 492.73 107.39 492.73C108.081 492.73 108.666 492.861 109.147 493.122C109.632 493.379 109.975 493.752 110.176 494.242C110.269 494.461 110.33 494.706 110.358 494.977C110.386 495.248 110.4 495.523 110.4 495.803V500.5H109.483V498.603L109.749 498.715C109.492 499.364 109.093 499.858 108.552 500.199C108.011 500.54 107.362 500.71 106.606 500.71ZM106.725 499.821C107.206 499.821 107.626 499.735 107.985 499.562C108.344 499.389 108.634 499.154 108.853 498.855C109.072 498.552 109.215 498.211 109.28 497.833C109.336 497.59 109.366 497.324 109.371 497.035C109.376 496.741 109.378 496.522 109.378 496.377L109.77 496.58C109.42 496.627 109.04 496.673 108.629 496.72C108.223 496.767 107.822 496.82 107.425 496.881C107.033 496.942 106.678 497.014 106.361 497.098C106.146 497.159 105.939 497.245 105.738 497.357C105.537 497.464 105.372 497.609 105.241 497.791C105.115 497.973 105.052 498.199 105.052 498.47C105.052 498.689 105.106 498.902 105.213 499.107C105.325 499.312 105.502 499.483 105.745 499.618C105.992 499.753 106.319 499.821 106.725 499.821ZM112.971 500.5V492.38C112.971 492.184 112.981 491.99 112.999 491.799C113.023 491.608 113.067 491.426 113.132 491.253C113.198 491.076 113.3 490.912 113.44 490.763C113.594 490.595 113.762 490.474 113.944 490.399C114.126 490.32 114.315 490.268 114.511 490.245C114.712 490.222 114.908 490.21 115.099 490.21H116.065V491.078H115.169C114.777 491.078 114.483 491.174 114.287 491.365C114.096 491.556 114 491.857 114 492.268V500.5H112.971ZM111.662 493.822V492.94H116.065V493.822H111.662ZM121.301 500.5C120.876 500.589 120.456 500.624 120.041 500.605C119.63 500.586 119.262 500.498 118.935 500.339C118.613 500.18 118.368 499.933 118.2 499.597C118.065 499.317 117.99 499.035 117.976 498.75C117.967 498.461 117.962 498.132 117.962 497.763V490.84H118.984V497.721C118.984 498.038 118.986 498.304 118.991 498.519C119 498.729 119.049 498.916 119.138 499.079C119.306 499.392 119.572 499.578 119.936 499.639C120.305 499.7 120.76 499.686 121.301 499.597V500.5ZM116.345 493.822V492.94H121.301V493.822H116.345ZM125.716 500.71C124.979 500.71 124.339 500.547 123.798 500.22C123.261 499.893 122.844 499.434 122.545 498.841C122.246 498.248 122.097 497.553 122.097 496.755C122.097 495.929 122.244 495.215 122.538 494.613C122.832 494.011 123.245 493.547 123.777 493.22C124.314 492.893 124.946 492.73 125.674 492.73C126.421 492.73 127.058 492.903 127.585 493.248C128.112 493.589 128.511 494.079 128.782 494.718C129.053 495.357 129.176 496.12 129.153 497.007H128.103V496.643C128.084 495.663 127.872 494.923 127.466 494.424C127.065 493.925 126.477 493.675 125.702 493.675C124.89 493.675 124.267 493.939 123.833 494.466C123.404 494.993 123.189 495.745 123.189 496.72C123.189 497.672 123.404 498.412 123.833 498.939C124.267 499.462 124.881 499.723 125.674 499.723C126.215 499.723 126.687 499.599 127.088 499.352C127.494 499.1 127.814 498.738 128.047 498.267L129.006 498.638C128.707 499.296 128.266 499.807 127.683 500.171C127.104 500.53 126.449 500.71 125.716 500.71ZM122.825 497.007V496.146H128.6V497.007H122.825ZM130.707 500.5V492.94H131.631V494.76L131.449 494.522C131.533 494.298 131.642 494.093 131.778 493.906C131.913 493.715 132.06 493.558 132.219 493.437C132.415 493.264 132.643 493.134 132.905 493.045C133.166 492.952 133.43 492.898 133.696 492.884C133.962 492.865 134.204 492.884 134.424 492.94V493.906C134.148 493.836 133.847 493.82 133.521 493.857C133.194 493.894 132.893 494.025 132.618 494.249C132.366 494.445 132.177 494.681 132.051 494.956C131.925 495.227 131.841 495.516 131.799 495.824C131.757 496.127 131.736 496.428 131.736 496.727V500.5H130.707ZM141.487 500.71C140.783 500.71 140.181 500.535 139.681 500.185C139.182 499.83 138.799 499.352 138.533 498.75C138.267 498.148 138.134 497.469 138.134 496.713C138.134 495.962 138.265 495.285 138.526 494.683C138.792 494.081 139.173 493.605 139.667 493.255C140.162 492.905 140.755 492.73 141.445 492.73C142.155 492.73 142.752 492.903 143.237 493.248C143.723 493.593 144.089 494.067 144.336 494.669C144.588 495.266 144.714 495.948 144.714 496.713C144.714 497.464 144.591 498.143 144.343 498.75C144.096 499.352 143.732 499.83 143.251 500.185C142.771 500.535 142.183 500.71 141.487 500.71ZM141.592 499.751C142.129 499.751 142.572 499.62 142.922 499.359C143.272 499.098 143.534 498.738 143.706 498.281C143.879 497.819 143.965 497.296 143.965 496.713C143.965 496.12 143.879 495.598 143.706 495.145C143.534 494.688 143.272 494.331 142.922 494.074C142.577 493.817 142.141 493.689 141.613 493.689C141.072 493.689 140.624 493.822 140.269 494.088C139.915 494.354 139.651 494.716 139.478 495.173C139.31 495.63 139.226 496.144 139.226 496.713C139.226 497.287 139.313 497.805 139.485 498.267C139.663 498.724 139.926 499.086 140.276 499.352C140.626 499.618 141.065 499.751 141.592 499.751ZM143.965 500.5V494.809H143.853V490.42H144.889V500.5H143.965ZM149.016 500.71C148.447 500.71 147.968 500.607 147.581 500.402C147.198 500.197 146.911 499.924 146.72 499.583C146.529 499.242 146.433 498.871 146.433 498.47C146.433 498.059 146.515 497.709 146.678 497.42C146.846 497.126 147.072 496.886 147.357 496.699C147.646 496.512 147.98 496.37 148.358 496.272C148.741 496.179 149.163 496.097 149.625 496.027C150.092 495.952 150.547 495.889 150.99 495.838C151.438 495.782 151.83 495.728 152.166 495.677L151.802 495.901C151.816 495.154 151.671 494.601 151.368 494.242C151.065 493.883 150.537 493.703 149.786 493.703C149.268 493.703 148.829 493.82 148.47 494.053C148.115 494.286 147.866 494.655 147.721 495.159L146.72 494.865C146.893 494.188 147.24 493.663 147.763 493.29C148.286 492.917 148.965 492.73 149.8 492.73C150.491 492.73 151.076 492.861 151.557 493.122C152.042 493.379 152.385 493.752 152.586 494.242C152.679 494.461 152.74 494.706 152.768 494.977C152.796 495.248 152.81 495.523 152.81 495.803V500.5H151.893V498.603L152.159 498.715C151.902 499.364 151.503 499.858 150.962 500.199C150.421 500.54 149.772 500.71 149.016 500.71ZM149.135 499.821C149.616 499.821 150.036 499.735 150.395 499.562C150.754 499.389 151.044 499.154 151.263 498.855C151.482 498.552 151.625 498.211 151.69 497.833C151.746 497.59 151.776 497.324 151.781 497.035C151.786 496.741 151.788 496.522 151.788 496.377L152.18 496.58C151.83 496.627 151.45 496.673 151.039 496.72C150.633 496.767 150.232 496.82 149.835 496.881C149.443 496.942 149.088 497.014 148.771 497.098C148.556 497.159 148.349 497.245 148.148 497.357C147.947 497.464 147.782 497.609 147.651 497.791C147.525 497.973 147.462 498.199 147.462 498.47C147.462 498.689 147.516 498.902 147.623 499.107C147.735 499.312 147.912 499.483 148.155 499.618C148.402 499.753 148.729 499.821 149.135 499.821ZM154.632 500.5V492.94H155.556V494.76L155.374 494.522C155.458 494.298 155.568 494.093 155.703 493.906C155.839 493.715 155.986 493.558 156.144 493.437C156.34 493.264 156.569 493.134 156.83 493.045C157.092 492.952 157.355 492.898 157.621 492.884C157.887 492.865 158.13 492.884 158.349 492.94V493.906C158.074 493.836 157.773 493.82 157.446 493.857C157.12 493.894 156.819 494.025 156.543 494.249C156.291 494.445 156.102 494.681 155.976 494.956C155.85 495.227 155.766 495.516 155.724 495.824C155.682 496.127 155.661 496.428 155.661 496.727V500.5H154.632ZM159.67 500.5L159.677 490.42H160.713V496.58L164.087 492.94H165.459L161.917 496.72L165.921 500.5H164.423L160.713 496.86V500.5H159.67ZM166.483 501.963L166.546 501.452C166.732 501.466 166.868 501.429 166.952 501.34C167.036 501.251 167.087 501.132 167.106 500.983C167.124 500.834 167.129 500.673 167.12 500.5H166.483V499.023H167.68V500.78C167.68 501.209 167.57 501.531 167.351 501.746C167.136 501.961 166.847 502.033 166.483 501.963ZM176.077 500.71C175.372 500.71 174.77 500.535 174.271 500.185C173.772 499.83 173.389 499.352 173.123 498.75C172.857 498.148 172.724 497.469 172.724 496.713C172.724 495.962 172.855 495.285 173.116 494.683C173.382 494.081 173.762 493.605 174.257 493.255C174.752 492.905 175.344 492.73 176.035 492.73C176.744 492.73 177.342 492.903 177.827 493.248C178.312 493.593 178.679 494.067 178.926 494.669C179.178 495.266 179.304 495.948 179.304 496.713C179.304 497.464 179.18 498.143 178.933 498.75C178.686 499.352 178.322 499.83 177.841 500.185C177.36 500.535 176.772 500.71 176.077 500.71ZM176.182 499.751C176.719 499.751 177.162 499.62 177.512 499.359C177.862 499.098 178.123 498.738 178.296 498.281C178.469 497.819 178.555 497.296 178.555 496.713C178.555 496.12 178.469 495.598 178.296 495.145C178.123 494.688 177.862 494.331 177.512 494.074C177.167 493.817 176.73 493.689 176.203 493.689C175.662 493.689 175.214 493.822 174.859 494.088C174.504 494.354 174.241 494.716 174.068 495.173C173.9 495.63 173.816 496.144 173.816 496.713C173.816 497.287 173.902 497.805 174.075 498.267C174.252 498.724 174.516 499.086 174.866 499.352C175.216 499.618 175.655 499.751 176.182 499.751ZM178.555 500.5V494.809H178.443V490.42H179.479V500.5H178.555ZM184.6 500.71C183.849 500.71 183.207 500.54 182.675 500.199C182.143 499.858 181.735 499.387 181.45 498.785C181.165 498.183 181.023 497.492 181.023 496.713C181.023 495.92 181.168 495.224 181.457 494.627C181.746 494.03 182.157 493.565 182.689 493.234C183.226 492.898 183.863 492.73 184.6 492.73C185.356 492.73 186 492.9 186.532 493.241C187.069 493.577 187.477 494.046 187.757 494.648C188.042 495.245 188.184 495.934 188.184 496.713C188.184 497.506 188.042 498.204 187.757 498.806C187.472 499.403 187.062 499.87 186.525 500.206C185.988 500.542 185.347 500.71 184.6 500.71ZM184.6 499.723C185.44 499.723 186.065 499.445 186.476 498.89C186.887 498.33 187.092 497.604 187.092 496.713C187.092 495.798 186.884 495.07 186.469 494.529C186.058 493.988 185.435 493.717 184.6 493.717C184.035 493.717 183.569 493.845 183.2 494.102C182.836 494.354 182.563 494.706 182.381 495.159C182.204 495.607 182.115 496.125 182.115 496.713C182.115 497.623 182.325 498.353 182.745 498.904C183.165 499.45 183.783 499.723 184.6 499.723ZM189.728 500.5V492.94H190.652V494.76L190.47 494.522C190.554 494.298 190.664 494.093 190.799 493.906C190.934 493.715 191.081 493.558 191.24 493.437C191.436 493.264 191.665 493.134 191.926 493.045C192.187 492.952 192.451 492.898 192.717 492.884C192.983 492.865 193.226 492.884 193.445 492.94V493.906C193.17 493.836 192.869 493.82 192.542 493.857C192.215 493.894 191.914 494.025 191.639 494.249C191.387 494.445 191.198 494.681 191.072 494.956C190.946 495.227 190.862 495.516 190.82 495.824C190.778 496.127 190.757 496.428 190.757 496.727V500.5H189.728ZM203.789 500.5L203.796 495.537C203.796 494.954 203.633 494.496 203.306 494.165C202.984 493.829 202.573 493.661 202.074 493.661C201.789 493.661 201.512 493.726 201.241 493.857C200.97 493.988 200.746 494.198 200.569 494.487C200.396 494.776 200.31 495.154 200.31 495.621L199.701 495.446C199.687 494.905 199.792 494.431 200.016 494.025C200.245 493.619 200.557 493.304 200.954 493.08C201.355 492.851 201.808 492.737 202.312 492.737C203.073 492.737 203.682 492.973 204.139 493.444C204.596 493.911 204.825 494.543 204.825 495.341L204.818 500.5H203.789ZM194.766 500.5V492.94H195.69V494.802H195.802V500.5H194.766ZM199.288 500.5L199.295 495.607C199.295 495.005 199.134 494.531 198.812 494.186C198.495 493.836 198.075 493.661 197.552 493.661C197.029 493.661 196.607 493.841 196.285 494.2C195.963 494.555 195.802 495.028 195.802 495.621L195.186 495.285C195.186 494.8 195.3 494.366 195.529 493.983C195.758 493.596 196.07 493.292 196.467 493.073C196.864 492.849 197.314 492.737 197.818 492.737C198.299 492.737 198.726 492.84 199.099 493.045C199.477 493.25 199.773 493.549 199.988 493.941C200.203 494.333 200.31 494.809 200.31 495.369L200.303 500.5H199.288ZM208.803 500.71C208.234 500.71 207.755 500.607 207.368 500.402C206.985 500.197 206.698 499.924 206.507 499.583C206.316 499.242 206.22 498.871 206.22 498.47C206.22 498.059 206.302 497.709 206.465 497.42C206.633 497.126 206.859 496.886 207.144 496.699C207.433 496.512 207.767 496.37 208.145 496.272C208.528 496.179 208.95 496.097 209.412 496.027C209.879 495.952 210.334 495.889 210.777 495.838C211.225 495.782 211.617 495.728 211.953 495.677L211.589 495.901C211.603 495.154 211.458 494.601 211.155 494.242C210.852 493.883 210.324 493.703 209.573 493.703C209.055 493.703 208.616 493.82 208.257 494.053C207.902 494.286 207.653 494.655 207.508 495.159L206.507 494.865C206.68 494.188 207.027 493.663 207.55 493.29C208.073 492.917 208.752 492.73 209.587 492.73C210.278 492.73 210.863 492.861 211.344 493.122C211.829 493.379 212.172 493.752 212.373 494.242C212.466 494.461 212.527 494.706 212.555 494.977C212.583 495.248 212.597 495.523 212.597 495.803V500.5H211.68V498.603L211.946 498.715C211.689 499.364 211.29 499.858 210.749 500.199C210.208 500.54 209.559 500.71 208.803 500.71ZM208.922 499.821C209.403 499.821 209.823 499.735 210.182 499.562C210.541 499.389 210.831 499.154 211.05 498.855C211.269 498.552 211.412 498.211 211.477 497.833C211.533 497.59 211.563 497.324 211.568 497.035C211.573 496.741 211.575 496.522 211.575 496.377L211.967 496.58C211.617 496.627 211.237 496.673 210.826 496.72C210.42 496.767 210.019 496.82 209.622 496.881C209.23 496.942 208.875 497.014 208.558 497.098C208.343 497.159 208.136 497.245 207.935 497.357C207.734 497.464 207.569 497.609 207.438 497.791C207.312 497.973 207.249 498.199 207.249 498.47C207.249 498.689 207.303 498.902 207.41 499.107C207.522 499.312 207.699 499.483 207.942 499.618C208.189 499.753 208.516 499.821 208.922 499.821ZM219.879 500.5V496.643C219.879 496.223 219.84 495.838 219.76 495.488C219.681 495.133 219.553 494.825 219.375 494.564C219.203 494.298 218.976 494.093 218.696 493.948C218.421 493.803 218.085 493.731 217.688 493.731C217.324 493.731 217.002 493.794 216.722 493.92C216.447 494.046 216.214 494.228 216.022 494.466C215.836 494.699 215.693 494.984 215.595 495.32C215.497 495.656 215.448 496.039 215.448 496.468L214.72 496.307C214.72 495.532 214.856 494.881 215.126 494.354C215.397 493.827 215.77 493.428 216.246 493.157C216.722 492.886 217.268 492.751 217.884 492.751C218.337 492.751 218.731 492.821 219.067 492.961C219.408 493.101 219.695 493.29 219.928 493.528C220.166 493.766 220.358 494.039 220.502 494.347C220.647 494.65 220.752 494.975 220.817 495.32C220.883 495.661 220.915 496.001 220.915 496.342V500.5H219.879ZM214.412 500.5V492.94H215.343V494.802H215.448V500.5H214.412ZM226.848 500.5C226.423 500.589 226.003 500.624 225.588 500.605C225.177 500.586 224.809 500.498 224.482 500.339C224.16 500.18 223.915 499.933 223.747 499.597C223.612 499.317 223.537 499.035 223.523 498.75C223.514 498.461 223.509 498.132 223.509 497.763V490.84H224.531V497.721C224.531 498.038 224.533 498.304 224.538 498.519C224.547 498.729 224.596 498.916 224.685 499.079C224.853 499.392 225.119 499.578 225.483 499.639C225.852 499.7 226.307 499.686 226.848 499.597V500.5ZM221.892 493.822V492.94H226.848V493.822H221.892ZM234.031 500.689C233.578 500.689 233.182 500.619 232.841 500.479C232.505 500.339 232.218 500.15 231.98 499.912C231.747 499.674 231.558 499.403 231.413 499.1C231.268 498.792 231.163 498.468 231.098 498.127C231.033 497.782 231 497.439 231 497.098V492.94H232.036V496.797C232.036 497.212 232.076 497.597 232.155 497.952C232.234 498.307 232.36 498.617 232.533 498.883C232.71 499.144 232.937 499.347 233.212 499.492C233.492 499.637 233.83 499.709 234.227 499.709C234.591 499.709 234.911 499.646 235.186 499.52C235.466 499.394 235.699 499.214 235.886 498.981C236.077 498.743 236.222 498.456 236.32 498.12C236.418 497.779 236.467 497.397 236.467 496.972L237.195 497.133C237.195 497.908 237.06 498.559 236.789 499.086C236.518 499.613 236.145 500.012 235.669 500.283C235.193 500.554 234.647 500.689 234.031 500.689ZM236.572 500.5V498.638H236.467V492.94H237.496V500.5H236.572ZM244.913 500.5V496.643C244.913 496.223 244.873 495.838 244.794 495.488C244.714 495.133 244.586 494.825 244.409 494.564C244.236 494.298 244.01 494.093 243.73 493.948C243.454 493.803 243.118 493.731 242.722 493.731C242.358 493.731 242.036 493.794 241.756 493.92C241.48 494.046 241.247 494.228 241.056 494.466C240.869 494.699 240.727 494.984 240.629 495.32C240.531 495.656 240.482 496.039 240.482 496.468L239.754 496.307C239.754 495.532 239.889 494.881 240.16 494.354C240.43 493.827 240.804 493.428 241.28 493.157C241.756 492.886 242.302 492.751 242.918 492.751C243.37 492.751 243.765 492.821 244.101 492.961C244.441 493.101 244.728 493.29 244.962 493.528C245.2 493.766 245.391 494.039 245.536 494.347C245.68 494.65 245.785 494.975 245.851 495.32C245.916 495.661 245.949 496.001 245.949 496.342V500.5H244.913ZM239.446 500.5V492.94H240.377V494.802H240.482V500.5H239.446ZM251.881 500.5C251.456 500.589 251.036 500.624 250.621 500.605C250.21 500.586 249.842 500.498 249.515 500.339C249.193 500.18 248.948 499.933 248.78 499.597C248.645 499.317 248.57 499.035 248.556 498.75C248.547 498.461 248.542 498.132 248.542 497.763V490.84H249.564V497.721C249.564 498.038 249.566 498.304 249.571 498.519C249.58 498.729 249.629 498.916 249.718 499.079C249.886 499.392 250.152 499.578 250.516 499.639C250.885 499.7 251.34 499.686 251.881 499.597V500.5ZM246.925 493.822V492.94H251.881V493.822H246.925ZM253.511 491.505V490.35H254.54V491.505H253.511ZM253.511 500.5V492.94H254.54V500.5H253.511ZM256.778 500.5V490.21H257.807V500.5H256.778ZM268.169 500.5V496.643C268.169 496.223 268.129 495.838 268.05 495.488C267.97 495.133 267.842 494.825 267.665 494.564C267.492 494.298 267.266 494.093 266.986 493.948C266.71 493.803 266.374 493.731 265.978 493.731C265.614 493.731 265.292 493.794 265.012 493.92C264.736 494.046 264.503 494.228 264.312 494.466C264.125 494.699 263.983 494.984 263.885 495.32C263.787 495.656 263.738 496.039 263.738 496.468L263.01 496.307C263.01 495.532 263.145 494.881 263.416 494.354C263.686 493.827 264.06 493.428 264.536 493.157C265.012 492.886 265.558 492.751 266.174 492.751C266.626 492.751 267.021 492.821 267.357 492.961C267.697 493.101 267.984 493.29 268.218 493.528C268.456 493.766 268.647 494.039 268.792 494.347C268.936 494.65 269.041 494.975 269.107 495.32C269.172 495.661 269.205 496.001 269.205 496.342V500.5H268.169ZM262.702 500.5V492.94H263.633V494.802H263.738V500.5H262.702ZM274.137 500.71C273.386 500.71 272.744 500.54 272.212 500.199C271.68 499.858 271.272 499.387 270.987 498.785C270.702 498.183 270.56 497.492 270.56 496.713C270.56 495.92 270.705 495.224 270.994 494.627C271.283 494.03 271.694 493.565 272.226 493.234C272.763 492.898 273.4 492.73 274.137 492.73C274.893 492.73 275.537 492.9 276.069 493.241C276.606 493.577 277.014 494.046 277.294 494.648C277.579 495.245 277.721 495.934 277.721 496.713C277.721 497.506 277.579 498.204 277.294 498.806C277.009 499.403 276.599 499.87 276.062 500.206C275.525 500.542 274.884 500.71 274.137 500.71ZM274.137 499.723C274.977 499.723 275.602 499.445 276.013 498.89C276.424 498.33 276.629 497.604 276.629 496.713C276.629 495.798 276.421 495.07 276.006 494.529C275.595 493.988 274.972 493.717 274.137 493.717C273.572 493.717 273.106 493.845 272.737 494.102C272.373 494.354 272.1 494.706 271.918 495.159C271.741 495.607 271.652 496.125 271.652 496.713C271.652 497.623 271.862 498.353 272.282 498.904C272.702 499.45 273.32 499.723 274.137 499.723ZM282.422 500.71C281.671 500.71 281.029 500.54 280.497 500.199C279.965 499.858 279.557 499.387 279.272 498.785C278.987 498.183 278.845 497.492 278.845 496.713C278.845 495.92 278.99 495.224 279.279 494.627C279.568 494.03 279.979 493.565 280.511 493.234C281.048 492.898 281.685 492.73 282.422 492.73C283.178 492.73 283.822 492.9 284.354 493.241C284.891 493.577 285.299 494.046 285.579 494.648C285.864 495.245 286.006 495.934 286.006 496.713C286.006 497.506 285.864 498.204 285.579 498.806C285.294 499.403 284.884 499.87 284.347 500.206C283.81 500.542 283.169 500.71 282.422 500.71ZM282.422 499.723C283.262 499.723 283.887 499.445 284.298 498.89C284.709 498.33 284.914 497.604 284.914 496.713C284.914 495.798 284.706 495.07 284.291 494.529C283.88 493.988 283.257 493.717 282.422 493.717C281.857 493.717 281.391 493.845 281.022 494.102C280.658 494.354 280.385 494.706 280.203 495.159C280.026 495.607 279.937 496.125 279.937 496.713C279.937 497.623 280.147 498.353 280.567 498.904C280.987 499.45 281.605 499.723 282.422 499.723ZM293.01 500.5V496.643C293.01 496.223 292.971 495.838 292.891 495.488C292.812 495.133 292.684 494.825 292.506 494.564C292.334 494.298 292.107 494.093 291.827 493.948C291.552 493.803 291.216 493.731 290.819 493.731C290.455 493.731 290.133 493.794 289.853 493.92C289.578 494.046 289.345 494.228 289.153 494.466C288.967 494.699 288.824 494.984 288.726 495.32C288.628 495.656 288.579 496.039 288.579 496.468L287.851 496.307C287.851 495.532 287.987 494.881 288.257 494.354C288.528 493.827 288.901 493.428 289.377 493.157C289.853 492.886 290.399 492.751 291.015 492.751C291.468 492.751 291.862 492.821 292.198 492.961C292.539 493.101 292.826 493.29 293.059 493.528C293.297 493.766 293.489 494.039 293.633 494.347C293.778 494.65 293.883 494.975 293.948 495.32C294.014 495.661 294.046 496.001 294.046 496.342V500.5H293.01ZM287.543 500.5V492.94H288.474V494.802H288.579V500.5H287.543ZM296.059 500.5V499.303H297.256V500.5H296.059Z" fill="white" fill-opacity="0.7"/>
<defs>
<clipPath id="clip0_185_536">
<rect width="24" height="24" fill="white" transform="translate(343 727)"/>
</clipPath>
</defs>
</svg>
