<svg width="20" height="17" viewBox="0 0 20 17" fill="none" xmlns="http://www.w3.org/2000/svg">
<path d="M0 17V14H15V17H0ZM16 17V14H17.5V17H16ZM18.5 17V14H20V17H18.5ZM16 13V11.7C16 11.05 15.8083 10.5542 15.425 10.2125C15.0417 9.87083 14.5833 9.7 14.05 9.7H12.5C11.5667 9.7 10.775 9.375 10.125 8.725C9.475 8.075 9.15 7.28333 9.15 6.35C9.15 5.41667 9.475 4.625 10.125 3.975C10.775 3.325 11.5667 3 12.5 3V4.5C12 4.5 11.5667 4.675 11.2 5.025C10.8333 5.375 10.65 5.81667 10.65 6.35C10.65 6.88333 10.8333 7.325 11.2 7.675C11.5667 8.025 12 8.2 12.5 8.2H14.05C14.9833 8.2 15.7917 8.5 16.475 9.1C17.1583 9.7 17.5 10.45 17.5 11.35V13H16ZM18.5 13V10.75C18.5 9.65 18.1167 8.7 17.35 7.9C16.5833 7.1 15.6333 6.7 14.5 6.7V5.2C15 5.2 15.4333 5.01667 15.8 4.65C16.1667 4.28333 16.35 3.85 16.35 3.35C16.35 2.85 16.1667 2.41667 15.8 2.05C15.4333 1.68333 15 1.5 14.5 1.5V0C15.4333 0 16.225 0.325 16.875 0.975C17.525 1.625 17.85 2.41667 17.85 3.35C17.85 3.83333 17.7583 4.27083 17.575 4.6625C17.3917 5.05417 17.15 5.41667 16.85 5.75C17.7833 6.18333 18.5417 6.85 19.125 7.75C19.7083 8.65 20 9.65 20 10.75V13H18.5Z" fill="#1B1C1A"/>
</svg>
